{"glyphs":{"0":{"ha":833,"x_min":107,"x_max":726,"o":"m 417 -14 q 190 67 274 -14 q 107 286 107 149 l 107 728 q 190 947 107 865 q 417 1028 274 1028 q 643 947 560 1028 q 726 728 726 865 l 726 286 q 688 128 726 196 q 581 24 650 61 q 417 -14 511 -14 m 417 104 q 546 155 497 104 q 594 286 594 206 l 594 728 q 546 859 594 808 q 417 910 497 910 q 288 859 336 910 q 239 728 239 808 l 239 286 q 288 155 239 206 q 417 104 336 104 m 417 429 q 355 451 378 429 q 332 511 332 472 q 355 570 332 550 q 417 590 378 590 q 479 570 456 590 q 503 511 503 550 q 479 451 503 472 q 417 429 456 429 z "},"1":{"ha":833,"x_min":122,"x_max":754,"o":"m 124 0 l 124 125 l 394 125 l 394 890 l 122 688 l 122 843 l 353 1014 l 532 1014 l 532 125 l 754 125 l 754 0 l 124 0 z "},"2":{"ha":833,"x_min":101,"x_max":736,"o":"m 115 0 l 115 126 l 460 490 q 555 617 526 560 q 583 731 583 675 q 538 858 583 810 q 414 906 492 906 q 286 857 333 906 q 239 725 239 808 l 101 725 q 190 946 104 864 q 414 1028 275 1028 q 640 947 556 1028 q 724 732 724 867 q 685 578 724 658 q 553 403 646 499 l 283 125 l 736 125 l 736 0 l 115 0 z "},"3":{"ha":833,"x_min":93,"x_max":715,"o":"m 403 -14 q 176 65 260 -14 q 93 278 93 143 l 231 278 q 277 153 231 199 q 404 108 324 108 q 531 153 483 108 q 578 278 578 199 l 578 349 q 531 474 578 428 q 404 521 485 521 l 290 521 l 290 636 l 535 890 l 124 890 l 124 1014 l 689 1014 l 689 889 l 447 639 q 643 551 571 628 q 715 349 715 474 l 715 278 q 631 65 715 143 q 403 -14 547 -14 z "},"4":{"ha":833,"x_min":93,"x_max":688,"o":"m 550 0 l 550 217 l 93 217 l 93 426 l 464 1014 l 619 1014 l 229 394 l 229 340 l 550 340 l 550 583 l 688 583 l 688 0 l 550 0 z "},"5":{"ha":833,"x_min":100,"x_max":721,"o":"m 410 -14 q 183 65 267 -14 q 100 278 100 143 l 238 278 q 284 153 238 199 q 410 108 331 108 q 537 154 490 108 q 583 279 583 200 l 583 343 q 538 468 583 422 q 415 514 493 514 l 135 514 l 135 1014 l 685 1014 l 685 889 l 263 889 l 265 638 l 422 638 q 642 560 564 638 q 721 343 721 483 l 721 279 q 637 65 721 143 q 410 -14 553 -14 z "},"6":{"ha":833,"x_min":85,"x_max":749,"o":"m 418 -14 q 243 27 318 -14 q 126 142 168 68 q 85 313 85 215 q 110 450 85 378 q 179 599 136 522 l 410 1014 l 564 1014 l 311 576 l 315 574 q 370 611 333 597 q 453 625 407 625 q 607 586 540 625 q 711 478 674 547 q 749 315 749 408 q 707 143 749 217 q 591 28 665 69 q 418 -14 517 -14 m 417 107 q 558 164 504 107 q 611 313 611 221 q 558 463 611 406 q 417 519 504 519 q 276 463 329 519 q 222 313 222 406 q 276 164 222 221 q 417 107 329 107 z "},"7":{"ha":833,"x_min":108,"x_max":764,"o":"m 253 0 l 617 890 l 246 890 l 246 726 l 108 726 l 108 1014 l 764 1014 l 764 888 l 403 0 l 253 0 z "},"8":{"ha":833,"x_min":88,"x_max":746,"o":"m 417 -14 q 245 24 319 -14 q 129 128 171 61 q 88 285 88 196 q 142 449 88 379 q 286 533 196 518 l 286 538 q 162 616 208 554 q 115 758 115 678 q 153 899 115 838 q 260 994 192 960 q 417 1028 328 1028 q 574 994 506 1028 q 680 899 642 960 q 718 758 718 838 q 672 616 718 678 q 547 538 625 554 l 547 533 q 692 449 638 518 q 746 285 746 379 q 704 128 746 196 q 588 24 663 61 q 417 -14 514 -14 m 417 589 q 536 633 490 589 q 582 749 582 678 q 536 864 582 819 q 417 908 490 908 q 297 864 343 908 q 251 749 251 819 q 297 633 251 678 q 417 589 343 589 m 417 107 q 556 158 503 107 q 610 289 610 208 q 556 420 610 369 q 417 471 503 471 q 277 420 331 471 q 224 289 224 369 q 277 158 224 208 q 417 107 331 107 z "},"9":{"ha":833,"x_min":85,"x_max":749,"o":"m 264 0 l 513 432 l 508 432 q 460 399 493 411 q 382 386 426 386 q 228 426 294 386 q 123 535 161 465 q 85 699 85 606 q 126 871 85 797 q 242 986 168 944 q 415 1028 317 1028 q 590 987 515 1028 q 707 872 665 946 q 749 701 749 799 q 723 564 749 636 q 654 415 697 492 l 424 0 l 264 0 m 417 494 q 558 551 504 494 q 611 701 611 608 q 558 850 611 793 q 417 907 504 907 q 276 850 329 907 q 222 701 222 793 q 276 551 222 608 q 417 494 329 494 z "},"A":{"ha":833,"x_min":64,"x_max":769,"o":"m 64 0 l 326 1014 l 508 1014 l 769 0 l 629 0 l 565 264 l 268 264 l 204 0 l 64 0 m 296 378 l 538 378 l 465 681 q 432 822 444 764 q 417 901 419 881 q 401 822 414 881 q 369 682 389 764 l 296 378 z "},"Á":{"ha":833,"x_min":64,"x_max":769,"o":"m 64 0 l 326 1014 l 508 1014 l 769 0 l 629 0 l 565 264 l 268 264 l 204 0 l 64 0 m 296 378 l 538 378 l 465 681 q 432 822 444 764 q 417 901 419 881 q 401 822 414 881 q 369 682 389 764 l 296 378 m 331 1125 l 476 1319 l 625 1319 l 469 1125 l 331 1125 z "},"Ă":{"ha":833,"x_min":64,"x_max":769,"o":"m 64 0 l 326 1014 l 508 1014 l 769 0 l 629 0 l 565 264 l 268 264 l 204 0 l 64 0 m 296 378 l 538 378 l 465 681 q 432 822 444 764 q 417 901 419 881 q 401 822 414 881 q 369 682 389 764 l 296 378 m 417 1117 q 251 1172 314 1117 q 189 1319 189 1228 l 297 1319 q 330 1236 297 1268 q 415 1204 363 1204 q 503 1236 469 1204 q 536 1319 536 1268 l 644 1319 q 582 1172 644 1228 q 417 1117 519 1117 z "},"Ắ":{"ha":833,"x_min":64,"x_max":769,"o":"m 328 1251 l 474 1417 l 614 1417 l 460 1251 l 328 1251 m 379 1083 q 234 1132 288 1083 q 181 1265 181 1181 l 282 1265 q 308 1197 282 1222 q 379 1171 335 1171 l 453 1171 q 525 1197 499 1171 q 551 1265 551 1222 l 653 1265 q 599 1132 653 1181 q 453 1083 544 1083 l 379 1083 m 64 0 l 326 1014 l 508 1014 l 769 0 l 629 0 l 565 264 l 268 264 l 204 0 l 64 0 m 296 378 l 538 378 l 465 681 q 432 822 444 764 q 417 901 419 881 q 401 822 414 881 q 369 682 389 764 l 296 378 z "},"Ặ":{"ha":833,"x_min":64,"x_max":769,"o":"m 417 1117 q 251 1172 314 1117 q 189 1319 189 1228 l 297 1319 q 330 1236 297 1268 q 415 1204 363 1204 q 503 1236 469 1204 q 536 1319 536 1268 l 644 1319 q 582 1172 644 1228 q 417 1117 519 1117 m 64 0 l 326 1014 l 508 1014 l 769 0 l 629 0 l 565 264 l 268 264 l 204 0 l 64 0 m 296 378 l 538 378 l 465 681 q 432 822 444 764 q 417 901 419 881 q 401 822 414 881 q 369 682 389 764 l 296 378 m 417 -300 q 342 -276 369 -300 q 314 -210 314 -251 q 342 -142 314 -167 q 417 -117 369 -117 q 492 -142 464 -117 q 519 -210 519 -167 q 492 -276 519 -251 q 417 -300 464 -300 z "},"Ằ":{"ha":833,"x_min":64,"x_max":769,"o":"m 64 0 l 326 1014 l 508 1014 l 769 0 l 629 0 l 565 264 l 268 264 l 204 0 l 64 0 m 296 378 l 538 378 l 465 681 q 432 822 444 764 q 417 901 419 881 q 401 822 414 881 q 369 682 389 764 l 296 378 m 375 1251 l 238 1417 l 375 1417 l 506 1251 l 375 1251 m 379 1083 q 234 1132 288 1083 q 181 1265 181 1181 l 282 1265 q 308 1197 282 1222 q 379 1171 335 1171 l 453 1171 q 525 1197 499 1171 q 551 1265 551 1222 l 653 1265 q 599 1132 653 1181 q 453 1083 544 1083 l 379 1083 z "},"Ẳ":{"ha":833,"x_min":64,"x_max":769,"o":"m 64 0 l 326 1014 l 508 1014 l 769 0 l 629 0 l 565 264 l 268 264 l 204 0 l 64 0 m 296 378 l 538 378 l 465 681 q 432 822 444 764 q 417 901 419 881 q 401 822 414 881 q 369 682 389 764 l 296 378 m 351 1225 l 413 1297 q 422 1319 422 1308 q 408 1331 422 1331 l 307 1331 l 307 1417 l 443 1417 q 503 1399 482 1417 q 525 1346 525 1381 q 501 1274 525 1304 l 463 1225 l 351 1225 m 379 1083 q 234 1132 288 1083 q 181 1265 181 1181 l 282 1265 q 308 1197 282 1222 q 379 1171 335 1171 l 453 1171 q 525 1197 499 1171 q 551 1265 551 1222 l 653 1265 q 599 1132 653 1181 q 453 1083 544 1083 l 379 1083 z "},"Ẵ":{"ha":833,"x_min":64,"x_max":769,"o":"m 64 0 l 326 1014 l 508 1014 l 769 0 l 629 0 l 565 264 l 268 264 l 204 0 l 64 0 m 296 378 l 538 378 l 465 681 q 432 822 444 764 q 417 901 419 881 q 401 822 414 881 q 369 682 389 764 l 296 378 m 524 1276 q 433 1292 467 1276 q 375 1323 400 1307 q 319 1339 350 1339 q 290 1328 301 1339 q 279 1297 279 1317 l 279 1289 l 185 1289 l 185 1297 q 219 1385 185 1353 q 311 1417 253 1417 q 384 1407 356 1417 q 433 1385 413 1397 q 472 1363 454 1372 q 514 1354 490 1354 q 543 1365 532 1354 q 554 1394 554 1376 l 554 1404 l 649 1404 l 649 1394 q 615 1308 649 1340 q 524 1276 582 1276 m 378 1083 q 237 1125 289 1083 q 185 1249 185 1167 l 288 1249 q 312 1189 288 1207 q 376 1171 336 1171 l 456 1171 q 522 1189 497 1171 q 547 1249 547 1207 l 649 1249 q 596 1125 649 1167 q 454 1083 543 1083 l 378 1083 z "},"Ǎ":{"ha":833,"x_min":64,"x_max":769,"o":"m 64 0 l 326 1014 l 508 1014 l 769 0 l 629 0 l 565 264 l 268 264 l 204 0 l 64 0 m 296 378 l 538 378 l 465 681 q 432 822 444 764 q 417 901 419 881 q 401 822 414 881 q 369 682 389 764 l 296 378 m 354 1125 l 160 1319 l 306 1319 l 417 1213 l 525 1319 l 674 1319 l 481 1125 l 354 1125 z "},"Â":{"ha":833,"x_min":64,"x_max":769,"o":"m 64 0 l 326 1014 l 508 1014 l 769 0 l 629 0 l 565 264 l 268 264 l 204 0 l 64 0 m 296 378 l 538 378 l 465 681 q 432 822 444 764 q 417 901 419 881 q 401 822 414 881 q 369 682 389 764 l 296 378 m 160 1125 l 353 1319 l 479 1319 l 674 1125 l 528 1125 l 417 1232 l 308 1125 l 160 1125 z "},"Ấ":{"ha":833,"x_min":64,"x_max":865,"o":"m 64 0 l 326 1014 l 508 1014 l 769 0 l 629 0 l 565 264 l 268 264 l 204 0 l 64 0 m 296 378 l 538 378 l 465 681 q 432 822 444 764 q 417 901 419 881 q 401 822 414 881 q 369 682 389 764 l 296 378 m 569 1251 l 715 1417 l 865 1417 l 713 1251 l 569 1251 m 161 1083 l 353 1278 l 481 1278 l 674 1083 l 525 1083 l 417 1190 l 307 1083 l 161 1083 z "},"Ậ":{"ha":833,"x_min":64,"x_max":769,"o":"m 160 1125 l 353 1319 l 479 1319 l 674 1125 l 528 1125 l 417 1232 l 308 1125 l 160 1125 m 64 0 l 326 1014 l 508 1014 l 769 0 l 629 0 l 565 264 l 268 264 l 204 0 l 64 0 m 296 378 l 538 378 l 465 681 q 432 822 444 764 q 417 901 419 881 q 401 822 414 881 q 369 682 389 764 l 296 378 m 417 -300 q 342 -276 369 -300 q 314 -210 314 -251 q 342 -142 314 -167 q 417 -117 369 -117 q 492 -142 464 -117 q 519 -210 519 -167 q 492 -276 519 -251 q 417 -300 464 -300 z "},"Ầ":{"ha":833,"x_min":64,"x_max":769,"o":"m 64 0 l 326 1014 l 508 1014 l 769 0 l 629 0 l 565 264 l 268 264 l 204 0 l 64 0 m 296 378 l 538 378 l 465 681 q 432 822 444 764 q 417 901 419 881 q 401 822 414 881 q 369 682 389 764 l 296 378 m 621 1251 l 454 1417 l 603 1417 l 761 1251 l 621 1251 m 161 1083 l 353 1278 l 481 1278 l 674 1083 l 525 1083 l 417 1190 l 307 1083 l 161 1083 z "},"Ẩ":{"ha":833,"x_min":64,"x_max":772,"o":"m 64 0 l 326 1014 l 508 1014 l 769 0 l 629 0 l 565 264 l 268 264 l 204 0 l 64 0 m 296 378 l 538 378 l 465 681 q 432 822 444 764 q 417 901 419 881 q 401 822 414 881 q 369 682 389 764 l 296 378 m 588 1221 l 651 1283 q 663 1310 663 1294 q 640 1332 663 1332 l 547 1332 l 547 1417 l 668 1417 q 744 1392 715 1417 q 772 1326 772 1368 q 749 1264 772 1288 l 703 1221 l 588 1221 m 161 1083 l 353 1278 l 481 1278 l 674 1083 l 525 1083 l 417 1190 l 307 1083 l 161 1083 z "},"Ẫ":{"ha":833,"x_min":64,"x_max":769,"o":"m 64 0 l 326 1014 l 508 1014 l 769 0 l 629 0 l 565 264 l 268 264 l 204 0 l 64 0 m 296 378 l 538 378 l 465 681 q 432 822 444 764 q 417 901 419 881 q 401 822 414 881 q 369 682 389 764 l 296 378 m 524 1276 q 433 1292 467 1276 q 375 1323 400 1307 q 319 1339 350 1339 q 290 1328 301 1339 q 279 1297 279 1317 l 279 1289 l 185 1289 l 185 1297 q 219 1385 185 1353 q 311 1417 253 1417 q 384 1407 356 1417 q 433 1385 413 1397 q 472 1363 454 1372 q 514 1354 490 1354 q 543 1365 532 1354 q 554 1394 554 1376 l 554 1404 l 649 1404 l 649 1394 q 615 1308 649 1340 q 524 1276 582 1276 m 161 1083 l 318 1235 l 515 1235 l 672 1083 l 525 1083 l 417 1185 l 307 1083 l 161 1083 z "},"Ä":{"ha":833,"x_min":64,"x_max":769,"o":"m 64 0 l 326 1014 l 508 1014 l 769 0 l 629 0 l 565 264 l 268 264 l 204 0 l 64 0 m 296 378 l 538 378 l 465 681 q 432 822 444 764 q 417 901 419 881 q 401 822 414 881 q 369 682 389 764 l 296 378 m 574 1132 q 506 1156 531 1132 q 481 1222 481 1181 q 506 1290 481 1265 q 574 1315 531 1315 q 640 1290 615 1315 q 665 1222 665 1265 q 640 1156 665 1181 q 574 1132 615 1132 m 260 1132 q 193 1156 218 1132 q 168 1222 168 1181 q 193 1290 168 1265 q 260 1315 218 1315 q 328 1290 303 1315 q 353 1222 353 1265 q 328 1156 353 1181 q 260 1132 303 1132 z "},"Ạ":{"ha":833,"x_min":64,"x_max":769,"o":"m 64 0 l 326 1014 l 508 1014 l 769 0 l 629 0 l 565 264 l 268 264 l 204 0 l 64 0 m 296 378 l 538 378 l 465 681 q 432 822 444 764 q 417 901 419 881 q 401 822 414 881 q 369 682 389 764 l 296 378 m 417 -300 q 342 -276 369 -300 q 314 -210 314 -251 q 342 -142 314 -167 q 417 -117 369 -117 q 492 -142 464 -117 q 519 -210 519 -167 q 492 -276 519 -251 q 417 -300 464 -300 z "},"À":{"ha":833,"x_min":64,"x_max":769,"o":"m 64 0 l 326 1014 l 508 1014 l 769 0 l 629 0 l 565 264 l 268 264 l 204 0 l 64 0 m 296 378 l 538 378 l 465 681 q 432 822 444 764 q 417 901 419 881 q 401 822 414 881 q 369 682 389 764 l 296 378 m 365 1125 l 204 1319 l 357 1319 l 508 1125 l 365 1125 z "},"Ả":{"ha":833,"x_min":64,"x_max":769,"o":"m 64 0 l 326 1014 l 508 1014 l 769 0 l 629 0 l 565 264 l 268 264 l 204 0 l 64 0 m 296 378 l 538 378 l 465 681 q 432 822 444 764 q 417 901 419 881 q 401 822 414 881 q 369 682 389 764 l 296 378 m 356 1110 l 418 1197 q 439 1240 439 1224 q 394 1268 439 1268 l 290 1268 l 290 1363 l 406 1363 q 512 1333 472 1363 q 551 1256 551 1304 q 528 1181 551 1215 l 479 1110 l 356 1110 z "},"Ā":{"ha":833,"x_min":64,"x_max":769,"o":"m 64 0 l 326 1014 l 508 1014 l 769 0 l 629 0 l 565 264 l 268 264 l 204 0 l 64 0 m 296 378 l 538 378 l 465 681 q 432 822 444 764 q 417 901 419 881 q 401 822 414 881 q 369 682 389 764 l 296 378 m 190 1163 l 190 1274 l 643 1274 l 643 1163 l 190 1163 z "},"Ą":{"ha":833,"x_min":64,"x_max":810,"o":"m 64 0 l 326 1014 l 508 1014 l 769 0 l 738 0 l 735 -3 q 670 -69 690 -39 q 650 -126 650 -100 q 670 -175 650 -156 q 725 -194 690 -194 l 810 -194 l 810 -286 l 696 -286 q 570 -249 617 -286 q 524 -154 524 -211 q 548 -77 524 -115 q 629 1 572 -39 l 565 264 l 268 264 l 204 0 l 64 0 m 296 378 l 538 378 l 465 681 q 432 822 444 764 q 417 901 419 881 q 401 822 414 881 q 369 682 389 764 l 296 378 z "},"Å":{"ha":833,"x_min":64,"x_max":769,"o":"m 64 0 l 326 1014 l 508 1014 l 769 0 l 629 0 l 565 264 l 268 264 l 204 0 l 64 0 m 296 378 l 538 378 l 465 681 q 432 822 444 764 q 417 901 419 881 q 401 822 414 881 q 369 682 389 764 l 296 378 m 417 1061 q 293 1106 340 1061 q 246 1222 246 1150 q 293 1339 246 1294 q 417 1383 340 1383 q 540 1339 493 1383 q 588 1222 588 1294 q 540 1106 588 1150 q 417 1061 493 1061 m 417 1139 q 477 1162 454 1139 q 500 1222 500 1185 q 477 1283 500 1260 q 417 1307 454 1307 q 356 1283 379 1307 q 333 1222 333 1260 q 356 1162 333 1185 q 417 1139 379 1139 z "},"Ã":{"ha":833,"x_min":64,"x_max":769,"o":"m 64 0 l 326 1014 l 508 1014 l 769 0 l 629 0 l 565 264 l 268 264 l 204 0 l 64 0 m 296 378 l 538 378 l 465 681 q 432 822 444 764 q 417 901 419 881 q 401 822 414 881 q 369 682 389 764 l 296 378 m 514 1129 q 446 1143 472 1129 q 401 1176 419 1157 q 367 1210 383 1196 q 326 1224 350 1224 q 285 1176 285 1224 l 285 1136 l 190 1136 l 190 1179 q 226 1279 190 1243 q 319 1315 261 1315 q 388 1301 361 1315 q 432 1268 414 1288 q 467 1235 450 1249 q 507 1221 483 1221 q 549 1268 549 1221 l 549 1308 l 643 1308 l 643 1267 q 608 1165 643 1201 q 514 1129 572 1129 z "},"Æ":{"ha":833,"x_min":36,"x_max":794,"o":"m 36 0 l 235 1014 l 794 1014 l 794 892 l 544 892 l 544 586 l 760 586 l 760 463 l 544 463 l 544 124 l 794 124 l 794 0 l 417 0 l 417 274 l 225 274 l 172 0 l 36 0 m 246 385 l 417 385 l 417 892 l 340 892 l 246 385 z "},"Ǽ":{"ha":833,"x_min":36,"x_max":794,"o":"m 36 0 l 235 1014 l 794 1014 l 794 892 l 544 892 l 544 586 l 760 586 l 760 463 l 544 463 l 544 124 l 794 124 l 794 0 l 417 0 l 417 274 l 225 274 l 172 0 l 36 0 m 246 385 l 417 385 l 417 892 l 340 892 l 246 385 m 331 1125 l 476 1319 l 625 1319 l 469 1125 l 331 1125 z "},"B":{"ha":833,"x_min":124,"x_max":743,"o":"m 124 0 l 124 1014 l 417 1014 q 638 944 557 1014 q 719 751 719 874 q 670 610 719 672 q 543 535 621 549 l 543 531 q 647 489 601 524 q 717 401 692 454 q 743 283 743 347 q 660 76 743 153 q 436 0 578 0 l 124 0 m 258 586 l 415 586 q 538 627 493 586 q 582 739 582 668 q 538 852 582 811 q 417 893 493 893 l 258 893 l 258 586 m 258 121 l 424 121 q 557 166 508 121 q 606 289 606 211 q 557 419 606 369 q 424 469 508 469 l 258 469 l 258 121 z "},"C":{"ha":833,"x_min":122,"x_max":732,"o":"m 428 -14 q 205 65 288 -14 q 122 281 122 143 l 122 735 q 205 949 122 871 q 428 1028 288 1028 q 649 949 567 1028 q 732 735 732 869 l 594 735 q 550 861 594 817 q 428 906 506 906 q 304 861 349 906 q 260 735 260 817 l 260 281 q 304 153 260 197 q 428 108 349 108 q 550 153 506 108 q 594 281 594 197 l 732 281 q 649 65 732 144 q 428 -14 567 -14 z "},"Ć":{"ha":833,"x_min":122,"x_max":732,"o":"m 428 -14 q 205 65 288 -14 q 122 281 122 143 l 122 735 q 205 949 122 871 q 428 1028 288 1028 q 649 949 567 1028 q 732 735 732 869 l 594 735 q 550 861 594 817 q 428 906 506 906 q 304 861 349 906 q 260 735 260 817 l 260 281 q 304 153 260 197 q 428 108 349 108 q 550 153 506 108 q 594 281 594 197 l 732 281 q 649 65 732 144 q 428 -14 567 -14 m 338 1125 l 483 1319 l 632 1319 l 476 1125 l 338 1125 z "},"Č":{"ha":833,"x_min":122,"x_max":732,"o":"m 428 -14 q 205 65 288 -14 q 122 281 122 143 l 122 735 q 205 949 122 871 q 428 1028 288 1028 q 649 949 567 1028 q 732 735 732 869 l 594 735 q 550 861 594 817 q 428 906 506 906 q 304 861 349 906 q 260 735 260 817 l 260 281 q 304 153 260 197 q 428 108 349 108 q 550 153 506 108 q 594 281 594 197 l 732 281 q 649 65 732 144 q 428 -14 567 -14 m 361 1125 l 167 1319 l 313 1319 l 424 1213 l 532 1319 l 681 1319 l 488 1125 l 361 1125 z "},"Ç":{"ha":833,"x_min":122,"x_max":732,"o":"m 290 -286 l 290 -207 l 389 -207 q 439 -191 419 -207 q 458 -157 458 -175 q 419 -114 458 -132 q 310 -96 381 -96 l 344 -6 q 181 91 240 17 q 122 281 122 165 l 122 735 q 205 949 122 871 q 428 1028 288 1028 q 649 949 567 1028 q 732 735 732 869 l 594 735 q 550 861 594 817 q 428 906 506 906 q 304 861 349 906 q 260 735 260 817 l 260 281 q 304 153 260 197 q 428 108 349 108 q 550 153 506 108 q 594 281 594 197 l 732 281 q 649 65 732 144 q 428 -14 567 -14 q 425 -14 426 -14 l 413 -50 q 490 -67 450 -53 q 556 -107 529 -82 q 583 -169 583 -132 q 537 -252 583 -218 q 413 -286 490 -286 l 290 -286 z "},"Ĉ":{"ha":833,"x_min":122,"x_max":732,"o":"m 428 -14 q 205 65 288 -14 q 122 281 122 143 l 122 735 q 205 949 122 871 q 428 1028 288 1028 q 649 949 567 1028 q 732 735 732 869 l 594 735 q 550 861 594 817 q 428 906 506 906 q 304 861 349 906 q 260 735 260 817 l 260 281 q 304 153 260 197 q 428 108 349 108 q 550 153 506 108 q 594 281 594 197 l 732 281 q 649 65 732 144 q 428 -14 567 -14 m 167 1125 l 360 1319 l 486 1319 l 681 1125 l 535 1125 l 424 1232 l 315 1125 l 167 1125 z "},"Ċ":{"ha":833,"x_min":122,"x_max":732,"o":"m 428 -14 q 205 65 288 -14 q 122 281 122 143 l 122 735 q 205 949 122 871 q 428 1028 288 1028 q 649 949 567 1028 q 732 735 732 869 l 594 735 q 550 861 594 817 q 428 906 506 906 q 304 861 349 906 q 260 735 260 817 l 260 281 q 304 153 260 197 q 428 108 349 108 q 550 153 506 108 q 594 281 594 197 l 732 281 q 649 65 732 144 q 428 -14 567 -14 m 424 1131 q 349 1156 376 1131 q 321 1222 321 1181 q 349 1289 321 1264 q 424 1314 376 1314 q 499 1289 471 1314 q 526 1222 526 1264 q 499 1156 526 1181 q 424 1131 471 1131 z "},"D":{"ha":833,"x_min":122,"x_max":719,"o":"m 122 0 l 122 1014 l 394 1014 q 566 976 493 1014 q 679 869 639 938 q 719 707 719 800 l 719 308 q 679 146 719 215 q 566 38 639 76 q 394 0 493 0 l 122 0 m 260 122 l 394 122 q 532 172 482 122 q 582 308 582 222 l 582 707 q 532 842 582 793 q 394 892 482 892 l 260 892 l 260 122 z "},"Ð":{"ha":833,"x_min":14,"x_max":719,"o":"m 122 0 l 122 464 l 14 464 l 14 572 l 122 572 l 122 1014 l 394 1014 q 566 976 493 1014 q 679 869 639 938 q 719 707 719 800 l 719 308 q 679 146 719 215 q 566 38 639 76 q 394 0 493 0 l 122 0 m 260 122 l 394 122 q 532 172 482 122 q 582 308 582 222 l 582 707 q 532 842 582 793 q 394 892 482 892 l 260 892 l 260 572 l 403 572 l 403 464 l 260 464 l 260 122 z "},"Ď":{"ha":833,"x_min":122,"x_max":719,"o":"m 122 0 l 122 1014 l 394 1014 q 566 976 493 1014 q 679 869 639 938 q 719 707 719 800 l 719 308 q 679 146 719 215 q 566 38 639 76 q 394 0 493 0 l 122 0 m 260 122 l 394 122 q 532 172 482 122 q 582 308 582 222 l 582 707 q 532 842 582 793 q 394 892 482 892 l 260 892 l 260 122 m 354 1125 l 160 1319 l 306 1319 l 417 1213 l 525 1319 l 674 1319 l 481 1125 l 354 1125 z "},"Đ":{"ha":833,"x_min":14,"x_max":719,"o":"m 122 0 l 122 464 l 14 464 l 14 572 l 122 572 l 122 1014 l 394 1014 q 566 976 493 1014 q 679 869 639 938 q 719 707 719 800 l 719 308 q 679 146 719 215 q 566 38 639 76 q 394 0 493 0 l 122 0 m 260 122 l 394 122 q 532 172 482 122 q 582 308 582 222 l 582 707 q 532 842 582 793 q 394 892 482 892 l 260 892 l 260 572 l 403 572 l 403 464 l 260 464 l 260 122 z "},"E":{"ha":833,"x_min":135,"x_max":725,"o":"m 135 0 l 135 1014 l 725 1014 l 725 890 l 271 890 l 271 589 l 676 589 l 676 469 l 271 469 l 271 124 l 725 124 l 725 0 l 135 0 z "},"É":{"ha":833,"x_min":135,"x_max":725,"o":"m 135 0 l 135 1014 l 725 1014 l 725 890 l 271 890 l 271 589 l 676 589 l 676 469 l 271 469 l 271 124 l 725 124 l 725 0 l 135 0 m 343 1125 l 489 1319 l 638 1319 l 482 1125 l 343 1125 z "},"Ĕ":{"ha":833,"x_min":135,"x_max":725,"o":"m 135 0 l 135 1014 l 725 1014 l 725 890 l 271 890 l 271 589 l 676 589 l 676 469 l 271 469 l 271 124 l 725 124 l 725 0 l 135 0 m 429 1117 q 264 1172 326 1117 q 201 1319 201 1228 l 310 1319 q 342 1236 310 1268 q 428 1204 375 1204 q 515 1236 482 1204 q 549 1319 549 1268 l 657 1319 q 594 1172 657 1228 q 429 1117 532 1117 z "},"Ě":{"ha":833,"x_min":135,"x_max":725,"o":"m 135 0 l 135 1014 l 725 1014 l 725 890 l 271 890 l 271 589 l 676 589 l 676 469 l 271 469 l 271 124 l 725 124 l 725 0 l 135 0 m 367 1125 l 172 1319 l 318 1319 l 429 1213 l 538 1319 l 686 1319 l 493 1125 l 367 1125 z "},"Ê":{"ha":833,"x_min":135,"x_max":725,"o":"m 135 0 l 135 1014 l 725 1014 l 725 890 l 271 890 l 271 589 l 676 589 l 676 469 l 271 469 l 271 124 l 725 124 l 725 0 l 135 0 m 172 1125 l 365 1319 l 492 1319 l 686 1125 l 540 1125 l 429 1232 l 321 1125 l 172 1125 z "},"Ế":{"ha":833,"x_min":135,"x_max":878,"o":"m 135 0 l 135 1014 l 725 1014 l 725 890 l 271 890 l 271 589 l 676 589 l 676 469 l 271 469 l 271 124 l 725 124 l 725 0 l 135 0 m 582 1251 l 728 1417 l 878 1417 l 725 1251 l 582 1251 m 174 1083 l 365 1278 l 493 1278 l 686 1083 l 538 1083 l 429 1190 l 319 1083 l 174 1083 z "},"Ệ":{"ha":833,"x_min":135,"x_max":725,"o":"m 135 0 l 135 1014 l 725 1014 l 725 890 l 271 890 l 271 589 l 676 589 l 676 469 l 271 469 l 271 124 l 725 124 l 725 0 l 135 0 m 429 -300 q 354 -276 382 -300 q 326 -210 326 -251 q 354 -142 326 -167 q 429 -117 382 -117 q 504 -142 476 -117 q 532 -210 532 -167 q 504 -276 532 -251 q 429 -300 476 -300 m 172 1125 l 365 1319 l 492 1319 l 686 1125 l 540 1125 l 429 1232 l 321 1125 l 172 1125 z "},"Ề":{"ha":833,"x_min":135,"x_max":774,"o":"m 135 0 l 135 1014 l 725 1014 l 725 890 l 271 890 l 271 589 l 676 589 l 676 469 l 271 469 l 271 124 l 725 124 l 725 0 l 135 0 m 633 1251 l 467 1417 l 615 1417 l 774 1251 l 633 1251 m 174 1083 l 365 1278 l 493 1278 l 686 1083 l 538 1083 l 429 1190 l 319 1083 l 174 1083 z "},"Ể":{"ha":833,"x_min":135,"x_max":785,"o":"m 135 0 l 135 1014 l 725 1014 l 725 890 l 271 890 l 271 589 l 676 589 l 676 469 l 271 469 l 271 124 l 725 124 l 725 0 l 135 0 m 600 1221 l 664 1283 q 675 1310 675 1294 q 653 1332 675 1332 l 560 1332 l 560 1417 l 681 1417 q 756 1392 728 1417 q 785 1326 785 1368 q 761 1264 785 1288 l 715 1221 l 600 1221 m 174 1083 l 365 1278 l 493 1278 l 686 1083 l 538 1083 l 429 1190 l 319 1083 l 174 1083 z "},"Ễ":{"ha":833,"x_min":135,"x_max":725,"o":"m 135 0 l 135 1014 l 725 1014 l 725 890 l 271 890 l 271 589 l 676 589 l 676 469 l 271 469 l 271 124 l 725 124 l 725 0 l 135 0 m 536 1276 q 446 1292 479 1276 q 388 1323 413 1307 q 332 1339 363 1339 q 303 1328 314 1339 q 292 1297 292 1317 l 292 1289 l 197 1289 l 197 1297 q 231 1385 197 1353 q 324 1417 265 1417 q 397 1407 368 1417 q 446 1385 425 1397 q 485 1363 467 1372 q 526 1354 503 1354 q 556 1365 544 1354 q 567 1394 567 1376 l 567 1404 l 661 1404 l 661 1394 q 628 1308 661 1340 q 536 1276 594 1276 m 174 1083 l 331 1235 l 528 1235 l 685 1083 l 538 1083 l 429 1185 l 319 1083 l 174 1083 z "},"Ë":{"ha":833,"x_min":135,"x_max":725,"o":"m 135 0 l 135 1014 l 725 1014 l 725 890 l 271 890 l 271 589 l 676 589 l 676 469 l 271 469 l 271 124 l 725 124 l 725 0 l 135 0 m 586 1132 q 518 1156 543 1132 q 493 1222 493 1181 q 518 1290 493 1265 q 586 1315 543 1315 q 653 1290 628 1315 q 678 1222 678 1265 q 653 1156 678 1181 q 586 1132 628 1132 m 272 1132 q 206 1156 231 1132 q 181 1222 181 1181 q 206 1290 181 1265 q 272 1315 231 1315 q 340 1290 315 1315 q 365 1222 365 1265 q 340 1156 365 1181 q 272 1132 315 1132 z "},"Ė":{"ha":833,"x_min":135,"x_max":725,"o":"m 135 0 l 135 1014 l 725 1014 l 725 890 l 271 890 l 271 589 l 676 589 l 676 469 l 271 469 l 271 124 l 725 124 l 725 0 l 135 0 m 429 1131 q 354 1156 382 1131 q 326 1222 326 1181 q 354 1289 326 1264 q 429 1314 382 1314 q 504 1289 476 1314 q 532 1222 532 1264 q 504 1156 532 1181 q 429 1131 476 1131 z "},"Ẹ":{"ha":833,"x_min":135,"x_max":725,"o":"m 135 0 l 135 1014 l 725 1014 l 725 890 l 271 890 l 271 589 l 676 589 l 676 469 l 271 469 l 271 124 l 725 124 l 725 0 l 135 0 m 429 -300 q 354 -276 382 -300 q 326 -210 326 -251 q 354 -142 326 -167 q 429 -117 382 -117 q 504 -142 476 -117 q 532 -210 532 -167 q 504 -276 532 -251 q 429 -300 476 -300 z "},"È":{"ha":833,"x_min":135,"x_max":725,"o":"m 135 0 l 135 1014 l 725 1014 l 725 890 l 271 890 l 271 589 l 676 589 l 676 469 l 271 469 l 271 124 l 725 124 l 725 0 l 135 0 m 378 1125 l 217 1319 l 369 1319 l 521 1125 l 378 1125 z "},"Ẻ":{"ha":833,"x_min":135,"x_max":725,"o":"m 135 0 l 135 1014 l 725 1014 l 725 890 l 271 890 l 271 589 l 676 589 l 676 469 l 271 469 l 271 124 l 725 124 l 725 0 l 135 0 m 368 1110 l 431 1197 q 451 1240 451 1224 q 407 1268 451 1268 l 303 1268 l 303 1363 l 418 1363 q 524 1333 485 1363 q 564 1256 564 1304 q 540 1181 564 1215 l 492 1110 l 368 1110 z "},"Ē":{"ha":833,"x_min":135,"x_max":725,"o":"m 135 0 l 135 1014 l 725 1014 l 725 890 l 271 890 l 271 589 l 676 589 l 676 469 l 271 469 l 271 124 l 725 124 l 725 0 l 135 0 m 203 1163 l 203 1274 l 656 1274 l 656 1163 l 203 1163 z "},"Ę":{"ha":833,"x_min":135,"x_max":731,"o":"m 135 0 l 135 1014 l 725 1014 l 725 890 l 271 890 l 271 589 l 676 589 l 676 469 l 271 469 l 271 124 l 725 124 l 725 0 l 658 0 l 656 -3 q 591 -69 611 -39 q 571 -126 571 -100 q 591 -175 571 -156 q 646 -194 611 -194 l 731 -194 l 731 -286 l 617 -286 q 492 -249 539 -286 q 446 -154 446 -211 q 469 -78 446 -117 q 549 0 493 -40 l 135 0 z "},"Ɛ":{"ha":833,"x_min":88,"x_max":765,"o":"m 429 -14 q 251 23 328 -14 q 131 126 174 60 q 88 278 88 192 q 141 447 88 376 q 281 533 194 518 l 281 538 q 163 617 208 554 q 118 764 118 681 q 157 901 118 842 q 265 994 196 961 q 424 1028 333 1028 q 588 991 517 1028 q 698 888 658 954 q 738 735 738 821 l 601 735 q 552 859 601 811 q 424 907 503 907 q 302 864 349 907 q 256 750 256 821 q 303 633 256 678 q 426 588 350 588 l 547 588 l 547 467 l 428 467 q 283 417 339 467 q 228 288 228 367 q 283 157 228 207 q 428 107 339 107 q 571 155 515 107 q 629 281 626 203 l 765 281 q 722 126 764 193 q 603 23 679 60 q 429 -14 528 -14 z "},"Ẽ":{"ha":833,"x_min":135,"x_max":725,"o":"m 135 0 l 135 1014 l 725 1014 l 725 890 l 271 890 l 271 589 l 676 589 l 676 469 l 271 469 l 271 124 l 725 124 l 725 0 l 135 0 m 526 1129 q 458 1143 485 1129 q 414 1176 432 1157 q 379 1210 396 1196 q 339 1224 363 1224 q 297 1176 297 1224 l 297 1136 l 203 1136 l 203 1179 q 238 1279 203 1243 q 332 1315 274 1315 q 400 1301 374 1315 q 444 1268 426 1288 q 479 1235 463 1249 q 519 1221 496 1221 q 561 1268 561 1221 l 561 1308 l 656 1308 l 656 1267 q 620 1165 656 1201 q 526 1129 585 1129 z "},"F":{"ha":833,"x_min":126,"x_max":732,"o":"m 126 0 l 126 1014 l 732 1014 l 732 888 l 261 888 l 261 568 l 696 568 l 696 443 l 264 443 l 264 0 l 126 0 z "},"G":{"ha":833,"x_min":117,"x_max":726,"o":"m 422 -14 q 199 65 282 -14 q 117 281 117 143 l 117 735 q 199 949 117 871 q 422 1028 282 1028 q 644 949 561 1028 q 726 735 726 869 l 589 735 q 544 861 589 817 q 422 906 500 906 q 299 861 343 906 q 254 735 254 817 l 254 281 q 299 153 254 197 q 422 108 343 108 q 544 153 500 108 q 589 281 589 197 l 589 413 l 392 413 l 392 535 l 726 535 l 726 281 q 644 65 726 144 q 422 -14 561 -14 z "},"Ǵ":{"ha":833,"x_min":117,"x_max":726,"o":"m 422 -14 q 199 65 282 -14 q 117 281 117 143 l 117 735 q 199 949 117 871 q 422 1028 282 1028 q 644 949 561 1028 q 726 735 726 869 l 589 735 q 544 861 589 817 q 422 906 500 906 q 299 861 343 906 q 254 735 254 817 l 254 281 q 299 153 254 197 q 422 108 343 108 q 544 153 500 108 q 589 281 589 197 l 589 413 l 392 413 l 392 535 l 726 535 l 726 281 q 644 65 726 144 q 422 -14 561 -14 m 331 1125 l 476 1319 l 625 1319 l 469 1125 l 331 1125 z "},"Ğ":{"ha":833,"x_min":117,"x_max":726,"o":"m 422 -14 q 199 65 282 -14 q 117 281 117 143 l 117 735 q 199 949 117 871 q 422 1028 282 1028 q 644 949 561 1028 q 726 735 726 869 l 589 735 q 544 861 589 817 q 422 906 500 906 q 299 861 343 906 q 254 735 254 817 l 254 281 q 299 153 254 197 q 422 108 343 108 q 544 153 500 108 q 589 281 589 197 l 589 413 l 392 413 l 392 535 l 726 535 l 726 281 q 644 65 726 144 q 422 -14 561 -14 m 417 1117 q 251 1172 314 1117 q 189 1319 189 1228 l 297 1319 q 330 1236 297 1268 q 415 1204 363 1204 q 503 1236 469 1204 q 536 1319 536 1268 l 644 1319 q 582 1172 644 1228 q 417 1117 519 1117 z "},"Ǧ":{"ha":833,"x_min":117,"x_max":726,"o":"m 422 -14 q 199 65 282 -14 q 117 281 117 143 l 117 735 q 199 949 117 871 q 422 1028 282 1028 q 644 949 561 1028 q 726 735 726 869 l 589 735 q 544 861 589 817 q 422 906 500 906 q 299 861 343 906 q 254 735 254 817 l 254 281 q 299 153 254 197 q 422 108 343 108 q 544 153 500 108 q 589 281 589 197 l 589 413 l 392 413 l 392 535 l 726 535 l 726 281 q 644 65 726 144 q 422 -14 561 -14 m 354 1125 l 160 1319 l 306 1319 l 417 1213 l 525 1319 l 674 1319 l 481 1125 l 354 1125 z "},"Ĝ":{"ha":833,"x_min":117,"x_max":726,"o":"m 422 -14 q 199 65 282 -14 q 117 281 117 143 l 117 735 q 199 949 117 871 q 422 1028 282 1028 q 644 949 561 1028 q 726 735 726 869 l 589 735 q 544 861 589 817 q 422 906 500 906 q 299 861 343 906 q 254 735 254 817 l 254 281 q 299 153 254 197 q 422 108 343 108 q 544 153 500 108 q 589 281 589 197 l 589 413 l 392 413 l 392 535 l 726 535 l 726 281 q 644 65 726 144 q 422 -14 561 -14 m 160 1125 l 353 1319 l 479 1319 l 674 1125 l 528 1125 l 417 1232 l 308 1125 l 160 1125 z "},"Ģ":{"ha":833,"x_min":117,"x_max":726,"o":"m 422 -14 q 199 65 282 -14 q 117 281 117 143 l 117 735 q 199 949 117 871 q 422 1028 282 1028 q 644 949 561 1028 q 726 735 726 869 l 589 735 q 544 861 589 817 q 422 906 500 906 q 299 861 343 906 q 254 735 254 817 l 254 281 q 299 153 254 197 q 422 108 343 108 q 544 153 500 108 q 589 281 589 197 l 589 413 l 392 413 l 392 535 l 726 535 l 726 281 q 644 65 726 144 q 422 -14 561 -14 m 267 -333 l 399 -132 l 554 -132 l 406 -333 l 267 -333 z "},"Ġ":{"ha":833,"x_min":117,"x_max":726,"o":"m 422 -14 q 199 65 282 -14 q 117 281 117 143 l 117 735 q 199 949 117 871 q 422 1028 282 1028 q 644 949 561 1028 q 726 735 726 869 l 589 735 q 544 861 589 817 q 422 906 500 906 q 299 861 343 906 q 254 735 254 817 l 254 281 q 299 153 254 197 q 422 108 343 108 q 544 153 500 108 q 589 281 589 197 l 589 413 l 392 413 l 392 535 l 726 535 l 726 281 q 644 65 726 144 q 422 -14 561 -14 m 417 1131 q 342 1156 369 1131 q 314 1222 314 1181 q 342 1289 314 1264 q 417 1314 369 1314 q 492 1289 464 1314 q 519 1222 519 1264 q 492 1156 519 1181 q 417 1131 464 1131 z "},"H":{"ha":833,"x_min":124,"x_max":710,"o":"m 124 0 l 124 1014 l 261 1014 l 261 586 l 572 586 l 572 1014 l 710 1014 l 710 0 l 572 0 l 572 461 l 261 461 l 261 0 l 124 0 z "},"Ħ":{"ha":833,"x_min":14,"x_max":819,"o":"m 124 0 l 124 729 l 14 729 l 14 838 l 124 838 l 124 1014 l 261 1014 l 261 838 l 572 838 l 572 1014 l 710 1014 l 710 838 l 819 838 l 819 729 l 710 729 l 710 0 l 572 0 l 572 461 l 261 461 l 261 0 l 124 0 m 261 586 l 572 586 l 572 729 l 261 729 l 261 586 z "},"Ĥ":{"ha":833,"x_min":124,"x_max":710,"o":"m 124 0 l 124 1014 l 261 1014 l 261 586 l 572 586 l 572 1014 l 710 1014 l 710 0 l 572 0 l 572 461 l 261 461 l 261 0 l 124 0 m 160 1125 l 353 1319 l 479 1319 l 674 1125 l 528 1125 l 417 1232 l 308 1125 l 160 1125 z "},"I":{"ha":833,"x_min":140,"x_max":693,"o":"m 140 0 l 140 125 l 347 125 l 347 889 l 140 889 l 140 1014 l 693 1014 l 693 889 l 486 889 l 486 125 l 693 125 l 693 0 l 140 0 z "},"Í":{"ha":833,"x_min":140,"x_max":693,"o":"m 140 0 l 140 125 l 347 125 l 347 889 l 140 889 l 140 1014 l 693 1014 l 693 889 l 486 889 l 486 125 l 693 125 l 693 0 l 140 0 m 331 1125 l 476 1319 l 625 1319 l 469 1125 l 331 1125 z "},"Ĭ":{"ha":833,"x_min":140,"x_max":693,"o":"m 140 0 l 140 125 l 347 125 l 347 889 l 140 889 l 140 1014 l 693 1014 l 693 889 l 486 889 l 486 125 l 693 125 l 693 0 l 140 0 m 417 1117 q 251 1172 314 1117 q 189 1319 189 1228 l 297 1319 q 330 1236 297 1268 q 415 1204 363 1204 q 503 1236 469 1204 q 536 1319 536 1268 l 644 1319 q 582 1172 644 1228 q 417 1117 519 1117 z "},"Î":{"ha":833,"x_min":140,"x_max":693,"o":"m 140 0 l 140 125 l 347 125 l 347 889 l 140 889 l 140 1014 l 693 1014 l 693 889 l 486 889 l 486 125 l 693 125 l 693 0 l 140 0 m 160 1125 l 353 1319 l 479 1319 l 674 1125 l 528 1125 l 417 1232 l 308 1125 l 160 1125 z "},"Ï":{"ha":833,"x_min":140,"x_max":693,"o":"m 140 0 l 140 125 l 347 125 l 347 889 l 140 889 l 140 1014 l 693 1014 l 693 889 l 486 889 l 486 125 l 693 125 l 693 0 l 140 0 m 574 1132 q 506 1156 531 1132 q 481 1222 481 1181 q 506 1290 481 1265 q 574 1315 531 1315 q 640 1290 615 1315 q 665 1222 665 1265 q 640 1156 665 1181 q 574 1132 615 1132 m 260 1132 q 193 1156 218 1132 q 168 1222 168 1181 q 193 1290 168 1265 q 260 1315 218 1315 q 328 1290 303 1315 q 353 1222 353 1265 q 328 1156 353 1181 q 260 1132 303 1132 z "},"İ":{"ha":833,"x_min":140,"x_max":693,"o":"m 140 0 l 140 125 l 347 125 l 347 889 l 140 889 l 140 1014 l 693 1014 l 693 889 l 486 889 l 486 125 l 693 125 l 693 0 l 140 0 m 417 1131 q 342 1156 369 1131 q 314 1222 314 1181 q 342 1289 314 1264 q 417 1314 369 1314 q 492 1289 464 1314 q 519 1222 519 1264 q 492 1156 519 1181 q 417 1131 464 1131 z "},"Ị":{"ha":833,"x_min":140,"x_max":693,"o":"m 140 0 l 140 125 l 347 125 l 347 889 l 140 889 l 140 1014 l 693 1014 l 693 889 l 486 889 l 486 125 l 693 125 l 693 0 l 140 0 m 417 -300 q 342 -276 369 -300 q 314 -210 314 -251 q 342 -142 314 -167 q 417 -117 369 -117 q 492 -142 464 -117 q 519 -210 519 -167 q 492 -276 519 -251 q 417 -300 464 -300 z "},"Ì":{"ha":833,"x_min":140,"x_max":693,"o":"m 140 0 l 140 125 l 347 125 l 347 889 l 140 889 l 140 1014 l 693 1014 l 693 889 l 486 889 l 486 125 l 693 125 l 693 0 l 140 0 m 365 1125 l 204 1319 l 357 1319 l 508 1125 l 365 1125 z "},"Ỉ":{"ha":833,"x_min":140,"x_max":693,"o":"m 140 0 l 140 125 l 347 125 l 347 889 l 140 889 l 140 1014 l 693 1014 l 693 889 l 486 889 l 486 125 l 693 125 l 693 0 l 140 0 m 356 1110 l 418 1197 q 439 1240 439 1224 q 394 1268 439 1268 l 290 1268 l 290 1363 l 406 1363 q 512 1333 472 1363 q 551 1256 551 1304 q 528 1181 551 1215 l 479 1110 l 356 1110 z "},"Ī":{"ha":833,"x_min":140,"x_max":693,"o":"m 140 0 l 140 125 l 347 125 l 347 889 l 140 889 l 140 1014 l 693 1014 l 693 889 l 486 889 l 486 125 l 693 125 l 693 0 l 140 0 m 190 1163 l 190 1274 l 643 1274 l 643 1163 l 190 1163 z "},"Į":{"ha":833,"x_min":140,"x_max":693,"o":"m 140 0 l 140 125 l 347 125 l 347 889 l 140 889 l 140 1014 l 693 1014 l 693 889 l 486 889 l 486 125 l 693 125 l 693 0 l 467 0 l 463 -3 q 399 -69 419 -39 q 379 -126 379 -100 q 399 -175 379 -156 q 454 -194 419 -194 l 539 -194 l 539 -286 l 424 -286 q 299 -249 346 -286 q 253 -154 253 -211 q 276 -78 253 -117 q 356 0 300 -40 l 140 0 z "},"Ĩ":{"ha":833,"x_min":140,"x_max":693,"o":"m 140 0 l 140 125 l 347 125 l 347 889 l 140 889 l 140 1014 l 693 1014 l 693 889 l 486 889 l 486 125 l 693 125 l 693 0 l 140 0 m 514 1129 q 446 1143 472 1129 q 401 1176 419 1157 q 367 1210 383 1196 q 326 1224 350 1224 q 285 1176 285 1224 l 285 1136 l 190 1136 l 190 1179 q 226 1279 190 1243 q 319 1315 261 1315 q 388 1301 361 1315 q 432 1268 414 1288 q 467 1235 450 1249 q 507 1221 483 1221 q 549 1268 549 1221 l 549 1308 l 643 1308 l 643 1267 q 608 1165 643 1201 q 514 1129 572 1129 z "},"J":{"ha":833,"x_min":57,"x_max":693,"o":"m 375 -14 q 142 69 226 -14 q 57 294 57 151 l 194 294 q 242 157 194 206 q 375 108 290 108 q 508 157 460 108 q 556 293 556 206 l 556 1014 l 693 1014 l 693 293 q 608 69 693 151 q 375 -14 522 -14 z "},"Ĵ":{"ha":833,"x_min":57,"x_max":882,"o":"m 375 -14 q 142 69 226 -14 q 57 294 57 151 l 194 294 q 242 157 194 206 q 375 108 290 108 q 508 157 460 108 q 556 293 556 206 l 556 1014 l 693 1014 l 693 293 q 608 69 693 151 q 375 -14 522 -14 m 368 1125 l 561 1319 l 688 1319 l 882 1125 l 736 1125 l 625 1232 l 517 1125 l 368 1125 z "},"K":{"ha":833,"x_min":122,"x_max":781,"o":"m 122 0 l 122 1014 l 260 1014 l 260 583 l 401 583 l 618 1014 l 768 1014 l 522 526 l 781 0 l 625 0 l 399 463 l 260 463 l 260 0 l 122 0 z "},"Ķ":{"ha":833,"x_min":122,"x_max":781,"o":"m 122 0 l 122 1014 l 260 1014 l 260 583 l 401 583 l 618 1014 l 768 1014 l 522 526 l 781 0 l 625 0 l 399 463 l 260 463 l 260 0 l 122 0 m 261 -333 l 393 -132 l 549 -132 l 400 -333 l 261 -333 z "},"L":{"ha":833,"x_min":178,"x_max":767,"o":"m 178 0 l 178 1014 l 315 1014 l 315 125 l 767 125 l 767 0 l 178 0 z "},"Ĺ":{"ha":833,"x_min":160,"x_max":767,"o":"m 178 0 l 178 1014 l 315 1014 l 315 125 l 767 125 l 767 0 l 178 0 m 160 1125 l 306 1319 l 454 1319 l 299 1125 l 160 1125 z "},"Ľ":{"ha":833,"x_min":178,"x_max":767,"o":"m 178 0 l 178 1014 l 315 1014 l 315 125 l 767 125 l 767 0 l 178 0 m 478 764 l 499 1014 l 624 1014 l 590 764 l 478 764 z "},"Ļ":{"ha":833,"x_min":178,"x_max":767,"o":"m 178 0 l 178 1014 l 315 1014 l 315 125 l 767 125 l 767 0 l 178 0 m 317 -333 l 449 -132 l 604 -132 l 456 -333 l 317 -333 z "},"Ŀ":{"ha":833,"x_min":178,"x_max":769,"o":"m 178 0 l 178 1014 l 315 1014 l 315 125 l 767 125 l 767 0 l 178 0 m 651 368 q 566 400 599 368 q 533 482 533 432 q 566 568 533 535 q 651 601 599 601 q 737 568 704 601 q 769 482 769 535 q 737 400 769 432 q 651 368 704 368 z "},"Ł":{"ha":833,"x_min":28,"x_max":768,"o":"m 179 0 l 179 418 l 28 319 l 28 443 l 179 542 l 179 1014 l 317 1014 l 317 631 l 544 778 l 544 654 l 317 507 l 317 125 l 768 125 l 768 0 l 179 0 z "},"M":{"ha":833,"x_min":94,"x_max":740,"o":"m 94 0 l 94 1014 l 289 1014 l 414 576 l 544 1014 l 740 1014 l 740 0 l 608 0 l 608 465 q 611 628 608 539 q 619 808 614 718 q 629 969 624 897 l 471 450 l 354 450 l 201 957 q 219 731 214 856 q 225 465 225 607 l 225 0 l 94 0 z "},"N":{"ha":833,"x_min":119,"x_max":715,"o":"m 119 0 l 119 1014 l 297 1014 l 600 158 q 592 248 596 194 q 587 359 589 301 q 585 468 585 417 l 585 1014 l 715 1014 l 715 0 l 536 0 l 236 856 q 242 767 239 819 q 247 658 244 715 q 249 551 249 601 l 249 0 l 119 0 z "},"Ń":{"ha":833,"x_min":119,"x_max":715,"o":"m 119 0 l 119 1014 l 297 1014 l 600 158 q 592 248 596 194 q 587 359 589 301 q 585 468 585 417 l 585 1014 l 715 1014 l 715 0 l 536 0 l 236 856 q 242 767 239 819 q 247 658 244 715 q 249 551 249 601 l 249 0 l 119 0 m 331 1125 l 476 1319 l 625 1319 l 469 1125 l 331 1125 z "},"Ň":{"ha":833,"x_min":119,"x_max":715,"o":"m 119 0 l 119 1014 l 297 1014 l 600 158 q 592 248 596 194 q 587 359 589 301 q 585 468 585 417 l 585 1014 l 715 1014 l 715 0 l 536 0 l 236 856 q 242 767 239 819 q 247 658 244 715 q 249 551 249 601 l 249 0 l 119 0 m 354 1125 l 160 1319 l 306 1319 l 417 1213 l 525 1319 l 674 1319 l 481 1125 l 354 1125 z "},"Ņ":{"ha":833,"x_min":119,"x_max":715,"o":"m 119 0 l 119 1014 l 297 1014 l 600 158 q 592 248 596 194 q 587 359 589 301 q 585 468 585 417 l 585 1014 l 715 1014 l 715 0 l 536 0 l 236 856 q 242 767 239 819 q 247 658 244 715 q 249 551 249 601 l 249 0 l 119 0 m 261 -333 l 393 -132 l 549 -132 l 400 -333 l 261 -333 z "},"Ŋ":{"ha":833,"x_min":119,"x_max":715,"o":"m 336 -250 l 336 -124 l 425 -124 q 537 -83 496 -124 q 578 26 578 -43 l 236 856 q 242 767 239 819 q 247 658 244 715 q 249 551 249 601 l 249 0 l 119 0 l 119 1014 l 297 1014 l 600 268 q 592 359 596 306 q 587 470 589 413 q 585 578 585 528 l 585 1014 l 715 1014 l 715 24 q 678 -121 715 -60 q 576 -216 642 -182 q 422 -250 511 -250 l 336 -250 z "},"Ñ":{"ha":833,"x_min":119,"x_max":715,"o":"m 119 0 l 119 1014 l 297 1014 l 600 158 q 592 248 596 194 q 587 359 589 301 q 585 468 585 417 l 585 1014 l 715 1014 l 715 0 l 536 0 l 236 856 q 242 767 239 819 q 247 658 244 715 q 249 551 249 601 l 249 0 l 119 0 m 514 1129 q 446 1143 472 1129 q 401 1176 419 1157 q 367 1210 383 1196 q 326 1224 350 1224 q 285 1176 285 1224 l 285 1136 l 190 1136 l 190 1179 q 226 1279 190 1243 q 319 1315 261 1315 q 388 1301 361 1315 q 432 1268 414 1288 q 467 1235 450 1249 q 507 1221 483 1221 q 549 1268 549 1221 l 549 1308 l 643 1308 l 643 1267 q 608 1165 643 1201 q 514 1129 572 1129 z "},"O":{"ha":833,"x_min":117,"x_max":717,"o":"m 417 -14 q 197 67 278 -14 q 117 294 117 147 l 117 721 q 197 947 117 867 q 417 1028 278 1028 q 636 948 556 1028 q 717 721 717 868 l 717 294 q 636 67 717 147 q 417 -14 556 -14 m 417 108 q 537 153 494 108 q 579 281 579 197 l 579 735 q 538 861 579 817 q 417 906 496 906 q 296 861 338 906 q 254 735 254 817 l 254 281 q 297 153 254 197 q 417 108 339 108 z "},"Ó":{"ha":833,"x_min":117,"x_max":717,"o":"m 417 -14 q 197 67 278 -14 q 117 294 117 147 l 117 721 q 197 947 117 867 q 417 1028 278 1028 q 636 948 556 1028 q 717 721 717 868 l 717 294 q 636 67 717 147 q 417 -14 556 -14 m 417 108 q 537 153 494 108 q 579 281 579 197 l 579 735 q 538 861 579 817 q 417 906 496 906 q 296 861 338 906 q 254 735 254 817 l 254 281 q 297 153 254 197 q 417 108 339 108 m 331 1125 l 476 1319 l 625 1319 l 469 1125 l 331 1125 z "},"Ŏ":{"ha":833,"x_min":117,"x_max":717,"o":"m 417 -14 q 197 67 278 -14 q 117 294 117 147 l 117 721 q 197 947 117 867 q 417 1028 278 1028 q 636 948 556 1028 q 717 721 717 868 l 717 294 q 636 67 717 147 q 417 -14 556 -14 m 417 108 q 537 153 494 108 q 579 281 579 197 l 579 735 q 538 861 579 817 q 417 906 496 906 q 296 861 338 906 q 254 735 254 817 l 254 281 q 297 153 254 197 q 417 108 339 108 m 417 1117 q 251 1172 314 1117 q 189 1319 189 1228 l 297 1319 q 330 1236 297 1268 q 415 1204 363 1204 q 503 1236 469 1204 q 536 1319 536 1268 l 644 1319 q 582 1172 644 1228 q 417 1117 519 1117 z "},"Ô":{"ha":833,"x_min":117,"x_max":717,"o":"m 417 -14 q 197 67 278 -14 q 117 294 117 147 l 117 721 q 197 947 117 867 q 417 1028 278 1028 q 636 948 556 1028 q 717 721 717 868 l 717 294 q 636 67 717 147 q 417 -14 556 -14 m 417 108 q 537 153 494 108 q 579 281 579 197 l 579 735 q 538 861 579 817 q 417 906 496 906 q 296 861 338 906 q 254 735 254 817 l 254 281 q 297 153 254 197 q 417 108 339 108 m 160 1125 l 353 1319 l 479 1319 l 674 1125 l 528 1125 l 417 1232 l 308 1125 l 160 1125 z "},"Ố":{"ha":833,"x_min":117,"x_max":865,"o":"m 417 -14 q 197 67 278 -14 q 117 294 117 147 l 117 721 q 197 947 117 867 q 417 1028 278 1028 q 636 948 556 1028 q 717 721 717 868 l 717 294 q 636 67 717 147 q 417 -14 556 -14 m 417 108 q 537 153 494 108 q 579 281 579 197 l 579 735 q 538 861 579 817 q 417 906 496 906 q 296 861 338 906 q 254 735 254 817 l 254 281 q 297 153 254 197 q 417 108 339 108 m 569 1251 l 715 1417 l 865 1417 l 713 1251 l 569 1251 m 161 1083 l 353 1278 l 481 1278 l 674 1083 l 525 1083 l 417 1190 l 307 1083 l 161 1083 z "},"Ộ":{"ha":833,"x_min":117,"x_max":717,"o":"m 417 -14 q 197 67 278 -14 q 117 294 117 147 l 117 721 q 197 947 117 867 q 417 1028 278 1028 q 636 948 556 1028 q 717 721 717 868 l 717 294 q 636 67 717 147 q 417 -14 556 -14 m 417 108 q 537 153 494 108 q 579 281 579 197 l 579 735 q 538 861 579 817 q 417 906 496 906 q 296 861 338 906 q 254 735 254 817 l 254 281 q 297 153 254 197 q 417 108 339 108 m 417 -300 q 342 -276 369 -300 q 314 -210 314 -251 q 342 -142 314 -167 q 417 -117 369 -117 q 492 -142 464 -117 q 519 -210 519 -167 q 492 -276 519 -251 q 417 -300 464 -300 m 160 1125 l 353 1319 l 479 1319 l 674 1125 l 528 1125 l 417 1232 l 308 1125 l 160 1125 z "},"Ồ":{"ha":833,"x_min":117,"x_max":761,"o":"m 417 -14 q 197 67 278 -14 q 117 294 117 147 l 117 721 q 197 947 117 867 q 417 1028 278 1028 q 636 948 556 1028 q 717 721 717 868 l 717 294 q 636 67 717 147 q 417 -14 556 -14 m 417 108 q 537 153 494 108 q 579 281 579 197 l 579 735 q 538 861 579 817 q 417 906 496 906 q 296 861 338 906 q 254 735 254 817 l 254 281 q 297 153 254 197 q 417 108 339 108 m 621 1251 l 454 1417 l 603 1417 l 761 1251 l 621 1251 m 161 1083 l 353 1278 l 481 1278 l 674 1083 l 525 1083 l 417 1190 l 307 1083 l 161 1083 z "},"Ổ":{"ha":833,"x_min":117,"x_max":772,"o":"m 417 -14 q 197 67 278 -14 q 117 294 117 147 l 117 721 q 197 947 117 867 q 417 1028 278 1028 q 636 948 556 1028 q 717 721 717 868 l 717 294 q 636 67 717 147 q 417 -14 556 -14 m 417 108 q 537 153 494 108 q 579 281 579 197 l 579 735 q 538 861 579 817 q 417 906 496 906 q 296 861 338 906 q 254 735 254 817 l 254 281 q 297 153 254 197 q 417 108 339 108 m 588 1221 l 651 1283 q 663 1310 663 1294 q 640 1332 663 1332 l 547 1332 l 547 1417 l 668 1417 q 744 1392 715 1417 q 772 1326 772 1368 q 749 1264 772 1288 l 703 1221 l 588 1221 m 161 1083 l 353 1278 l 481 1278 l 674 1083 l 525 1083 l 417 1190 l 307 1083 l 161 1083 z "},"Ỗ":{"ha":833,"x_min":117,"x_max":717,"o":"m 417 -14 q 197 67 278 -14 q 117 294 117 147 l 117 721 q 197 947 117 867 q 417 1028 278 1028 q 636 948 556 1028 q 717 721 717 868 l 717 294 q 636 67 717 147 q 417 -14 556 -14 m 417 108 q 537 153 494 108 q 579 281 579 197 l 579 735 q 538 861 579 817 q 417 906 496 906 q 296 861 338 906 q 254 735 254 817 l 254 281 q 297 153 254 197 q 417 108 339 108 m 524 1276 q 433 1292 467 1276 q 375 1323 400 1307 q 319 1339 350 1339 q 290 1328 301 1339 q 279 1297 279 1317 l 279 1289 l 185 1289 l 185 1297 q 219 1385 185 1353 q 311 1417 253 1417 q 384 1407 356 1417 q 433 1385 413 1397 q 472 1363 454 1372 q 514 1354 490 1354 q 543 1365 532 1354 q 554 1394 554 1376 l 554 1404 l 649 1404 l 649 1394 q 615 1308 649 1340 q 524 1276 582 1276 m 161 1083 l 318 1235 l 515 1235 l 672 1083 l 525 1083 l 417 1185 l 307 1083 l 161 1083 z "},"Ö":{"ha":833,"x_min":117,"x_max":717,"o":"m 417 -14 q 197 67 278 -14 q 117 294 117 147 l 117 721 q 197 947 117 867 q 417 1028 278 1028 q 636 948 556 1028 q 717 721 717 868 l 717 294 q 636 67 717 147 q 417 -14 556 -14 m 417 108 q 537 153 494 108 q 579 281 579 197 l 579 735 q 538 861 579 817 q 417 906 496 906 q 296 861 338 906 q 254 735 254 817 l 254 281 q 297 153 254 197 q 417 108 339 108 m 574 1132 q 506 1156 531 1132 q 481 1222 481 1181 q 506 1290 481 1265 q 574 1315 531 1315 q 640 1290 615 1315 q 665 1222 665 1265 q 640 1156 665 1181 q 574 1132 615 1132 m 260 1132 q 193 1156 218 1132 q 168 1222 168 1181 q 193 1290 168 1265 q 260 1315 218 1315 q 328 1290 303 1315 q 353 1222 353 1265 q 328 1156 353 1181 q 260 1132 303 1132 z "},"Ọ":{"ha":833,"x_min":117,"x_max":717,"o":"m 417 -14 q 197 67 278 -14 q 117 294 117 147 l 117 721 q 197 947 117 867 q 417 1028 278 1028 q 636 948 556 1028 q 717 721 717 868 l 717 294 q 636 67 717 147 q 417 -14 556 -14 m 417 108 q 537 153 494 108 q 579 281 579 197 l 579 735 q 538 861 579 817 q 417 906 496 906 q 296 861 338 906 q 254 735 254 817 l 254 281 q 297 153 254 197 q 417 108 339 108 m 417 -300 q 342 -276 369 -300 q 314 -210 314 -251 q 342 -142 314 -167 q 417 -117 369 -117 q 492 -142 464 -117 q 519 -210 519 -167 q 492 -276 519 -251 q 417 -300 464 -300 z "},"Ò":{"ha":833,"x_min":117,"x_max":717,"o":"m 417 -14 q 197 67 278 -14 q 117 294 117 147 l 117 721 q 197 947 117 867 q 417 1028 278 1028 q 636 948 556 1028 q 717 721 717 868 l 717 294 q 636 67 717 147 q 417 -14 556 -14 m 417 108 q 537 153 494 108 q 579 281 579 197 l 579 735 q 538 861 579 817 q 417 906 496 906 q 296 861 338 906 q 254 735 254 817 l 254 281 q 297 153 254 197 q 417 108 339 108 m 365 1125 l 204 1319 l 357 1319 l 508 1125 l 365 1125 z "},"Ỏ":{"ha":833,"x_min":117,"x_max":717,"o":"m 417 -14 q 197 67 278 -14 q 117 294 117 147 l 117 721 q 197 947 117 867 q 417 1028 278 1028 q 636 948 556 1028 q 717 721 717 868 l 717 294 q 636 67 717 147 q 417 -14 556 -14 m 417 108 q 537 153 494 108 q 579 281 579 197 l 579 735 q 538 861 579 817 q 417 906 496 906 q 296 861 338 906 q 254 735 254 817 l 254 281 q 297 153 254 197 q 417 108 339 108 m 356 1110 l 418 1197 q 439 1240 439 1224 q 394 1268 439 1268 l 290 1268 l 290 1363 l 406 1363 q 512 1333 472 1363 q 551 1256 551 1304 q 528 1181 551 1215 l 479 1110 l 356 1110 z "},"Ơ":{"ha":833,"x_min":117,"x_max":747,"o":"m 417 -14 q 197 67 278 -14 q 117 294 117 147 l 117 721 q 197 947 117 867 q 417 1028 278 1028 q 604 975 529 1028 q 635 1021 635 985 l 635 1125 l 747 1125 l 747 1015 q 678 893 747 929 q 717 721 717 822 l 717 294 q 636 67 717 147 q 417 -14 556 -14 m 417 108 q 537 153 494 108 q 579 281 579 197 l 579 735 q 538 861 579 817 q 417 906 496 906 q 296 861 338 906 q 254 735 254 817 l 254 281 q 297 153 254 197 q 417 108 339 108 z "},"Ớ":{"ha":833,"x_min":117,"x_max":747,"o":"m 417 -14 q 197 67 278 -14 q 117 294 117 147 l 117 721 q 197 947 117 867 q 417 1028 278 1028 q 604 975 529 1028 q 635 1021 635 985 l 635 1125 l 747 1125 l 747 1015 q 678 893 747 929 q 717 721 717 822 l 717 294 q 636 67 717 147 q 417 -14 556 -14 m 417 108 q 537 153 494 108 q 579 281 579 197 l 579 735 q 538 861 579 817 q 417 906 496 906 q 296 861 338 906 q 254 735 254 817 l 254 281 q 297 153 254 197 q 417 108 339 108 m 317 1125 l 463 1319 l 611 1319 l 456 1125 l 317 1125 z "},"Ợ":{"ha":833,"x_min":117,"x_max":747,"o":"m 417 -14 q 197 67 278 -14 q 117 294 117 147 l 117 721 q 197 947 117 867 q 417 1028 278 1028 q 604 975 529 1028 q 635 1021 635 985 l 635 1125 l 747 1125 l 747 1015 q 678 893 747 929 q 717 721 717 822 l 717 294 q 636 67 717 147 q 417 -14 556 -14 m 417 108 q 537 153 494 108 q 579 281 579 197 l 579 735 q 538 861 579 817 q 417 906 496 906 q 296 861 338 906 q 254 735 254 817 l 254 281 q 297 153 254 197 q 417 108 339 108 m 417 -300 q 342 -276 369 -300 q 314 -210 314 -251 q 342 -142 314 -167 q 417 -117 369 -117 q 492 -142 464 -117 q 519 -210 519 -167 q 492 -276 519 -251 q 417 -300 464 -300 z "},"Ờ":{"ha":833,"x_min":117,"x_max":747,"o":"m 417 -14 q 197 67 278 -14 q 117 294 117 147 l 117 721 q 197 947 117 867 q 417 1028 278 1028 q 604 975 529 1028 q 635 1021 635 985 l 635 1125 l 747 1125 l 747 1015 q 678 893 747 929 q 717 721 717 822 l 717 294 q 636 67 717 147 q 417 -14 556 -14 m 417 108 q 537 153 494 108 q 579 281 579 197 l 579 735 q 538 861 579 817 q 417 906 496 906 q 296 861 338 906 q 254 735 254 817 l 254 281 q 297 153 254 197 q 417 108 339 108 m 351 1125 l 190 1319 l 343 1319 l 494 1125 l 351 1125 z "},"Ở":{"ha":833,"x_min":117,"x_max":747,"o":"m 417 -14 q 197 67 278 -14 q 117 294 117 147 l 117 721 q 197 947 117 867 q 417 1028 278 1028 q 604 975 529 1028 q 635 1021 635 985 l 635 1125 l 747 1125 l 747 1015 q 678 893 747 929 q 717 721 717 822 l 717 294 q 636 67 717 147 q 417 -14 556 -14 m 417 108 q 537 153 494 108 q 579 281 579 197 l 579 735 q 538 861 579 817 q 417 906 496 906 q 296 861 338 906 q 254 735 254 817 l 254 281 q 297 153 254 197 q 417 108 339 108 m 342 1110 l 404 1197 q 425 1240 425 1224 q 381 1268 425 1268 l 276 1268 l 276 1363 l 392 1363 q 498 1333 458 1363 q 538 1256 538 1304 q 514 1181 538 1215 l 465 1110 l 342 1110 z "},"Ỡ":{"ha":833,"x_min":117,"x_max":747,"o":"m 417 -14 q 197 67 278 -14 q 117 294 117 147 l 117 721 q 197 947 117 867 q 417 1028 278 1028 q 604 975 529 1028 q 635 1021 635 985 l 635 1125 l 747 1125 l 747 1015 q 678 893 747 929 q 717 721 717 822 l 717 294 q 636 67 717 147 q 417 -14 556 -14 m 417 108 q 537 153 494 108 q 579 281 579 197 l 579 735 q 538 861 579 817 q 417 906 496 906 q 296 861 338 906 q 254 735 254 817 l 254 281 q 297 153 254 197 q 417 108 339 108 m 500 1129 q 432 1143 458 1129 q 388 1176 406 1157 q 353 1210 369 1196 q 313 1224 336 1224 q 271 1176 271 1224 l 271 1136 l 176 1136 l 176 1179 q 212 1279 176 1243 q 306 1315 247 1315 q 374 1301 347 1315 q 418 1268 400 1288 q 453 1235 436 1249 q 493 1221 469 1221 q 535 1268 535 1221 l 535 1308 l 629 1308 l 629 1267 q 594 1165 629 1201 q 500 1129 558 1129 z "},"Ő":{"ha":833,"x_min":117,"x_max":742,"o":"m 417 -14 q 197 67 278 -14 q 117 294 117 147 l 117 721 q 197 947 117 867 q 417 1028 278 1028 q 636 948 556 1028 q 717 721 717 868 l 717 294 q 636 67 717 147 q 417 -14 556 -14 m 417 108 q 537 153 494 108 q 579 281 579 197 l 579 735 q 538 861 579 817 q 417 906 496 906 q 296 861 338 906 q 254 735 254 817 l 254 281 q 297 153 254 197 q 417 108 339 108 m 451 1125 l 604 1319 l 742 1319 l 582 1125 l 451 1125 m 196 1125 l 347 1319 l 486 1319 l 326 1125 l 196 1125 z "},"Ō":{"ha":833,"x_min":117,"x_max":717,"o":"m 417 -14 q 197 67 278 -14 q 117 294 117 147 l 117 721 q 197 947 117 867 q 417 1028 278 1028 q 636 948 556 1028 q 717 721 717 868 l 717 294 q 636 67 717 147 q 417 -14 556 -14 m 417 108 q 537 153 494 108 q 579 281 579 197 l 579 735 q 538 861 579 817 q 417 906 496 906 q 296 861 338 906 q 254 735 254 817 l 254 281 q 297 153 254 197 q 417 108 339 108 m 190 1163 l 190 1274 l 643 1274 l 643 1163 l 190 1163 z "},"Ǫ":{"ha":833,"x_min":117,"x_max":717,"o":"m 521 -286 q 397 -249 443 -286 q 350 -154 350 -211 q 375 -83 350 -122 q 442 -7 400 -43 q 432 -11 439 -8 q 417 -14 425 -14 q 197 65 278 -14 q 117 281 117 143 l 117 735 q 197 949 117 871 q 417 1028 278 1028 q 636 949 556 1028 q 717 735 717 871 l 717 281 q 685 134 717 197 q 599 33 654 71 l 554 -3 q 494 -69 511 -39 q 476 -126 476 -100 q 496 -175 476 -156 q 550 -194 515 -194 l 636 -194 l 636 -286 l 521 -286 m 417 108 q 537 153 494 108 q 579 281 579 197 l 579 735 q 538 861 579 817 q 417 906 496 906 q 296 861 338 906 q 254 735 254 817 l 254 281 q 297 153 254 197 q 417 108 339 108 z "},"Ø":{"ha":833,"x_min":44,"x_max":789,"o":"m 44 -56 l 150 129 q 117 281 117 194 l 117 735 q 197 949 117 871 q 417 1028 278 1028 q 621 964 542 1028 l 665 1042 l 789 1042 l 692 869 q 717 735 717 810 l 717 281 q 636 65 717 143 q 417 -14 556 -14 q 224 42 300 -14 l 168 -56 l 44 -56 m 253 735 l 253 313 l 553 843 q 417 906 511 906 q 295 861 338 906 q 253 735 253 817 m 417 108 q 538 153 496 108 q 581 281 581 197 l 581 674 l 290 160 q 417 108 332 108 z "},"Ǿ":{"ha":833,"x_min":44,"x_max":789,"o":"m 44 -56 l 150 129 q 117 281 117 194 l 117 735 q 197 949 117 871 q 417 1028 278 1028 q 621 964 542 1028 l 665 1042 l 789 1042 l 692 869 q 717 735 717 810 l 717 281 q 636 65 717 143 q 417 -14 556 -14 q 224 42 300 -14 l 168 -56 l 44 -56 m 253 735 l 253 313 l 553 843 q 417 906 511 906 q 295 861 338 906 q 253 735 253 817 m 417 108 q 538 153 496 108 q 581 281 581 197 l 581 674 l 290 160 q 417 108 332 108 m 331 1125 l 476 1319 l 625 1319 l 469 1125 l 331 1125 z "},"Õ":{"ha":833,"x_min":117,"x_max":717,"o":"m 417 -14 q 197 67 278 -14 q 117 294 117 147 l 117 721 q 197 947 117 867 q 417 1028 278 1028 q 636 948 556 1028 q 717 721 717 868 l 717 294 q 636 67 717 147 q 417 -14 556 -14 m 417 108 q 537 153 494 108 q 579 281 579 197 l 579 735 q 538 861 579 817 q 417 906 496 906 q 296 861 338 906 q 254 735 254 817 l 254 281 q 297 153 254 197 q 417 108 339 108 m 514 1129 q 446 1143 472 1129 q 401 1176 419 1157 q 367 1210 383 1196 q 326 1224 350 1224 q 285 1176 285 1224 l 285 1136 l 190 1136 l 190 1179 q 226 1279 190 1243 q 319 1315 261 1315 q 388 1301 361 1315 q 432 1268 414 1288 q 467 1235 450 1249 q 507 1221 483 1221 q 549 1268 549 1221 l 549 1308 l 643 1308 l 643 1267 q 608 1165 643 1201 q 514 1129 572 1129 z "},"Œ":{"ha":833,"x_min":54,"x_max":800,"o":"m 267 -12 q 111 59 168 -12 q 54 253 54 131 l 54 763 q 111 956 54 885 q 267 1028 168 1028 q 347 1008 315 1028 q 397 959 379 988 q 419 903 415 931 l 426 903 l 426 1014 l 800 1014 l 800 892 l 557 892 l 557 585 l 765 585 l 765 461 l 557 461 l 557 124 l 800 124 l 800 0 l 426 0 l 426 113 l 419 113 q 397 56 415 85 q 347 8 379 28 q 267 -12 315 -12 m 307 108 q 394 147 363 108 q 425 253 425 186 l 425 763 q 394 868 425 829 q 307 907 363 907 q 220 868 251 907 q 189 763 189 829 l 189 253 q 220 147 189 186 q 307 108 251 108 z "},"P":{"ha":833,"x_min":122,"x_max":768,"o":"m 122 0 l 122 1014 l 451 1014 q 619 976 549 1014 q 729 872 690 939 q 768 711 768 804 q 729 552 768 619 q 619 447 690 485 q 451 410 547 410 l 260 410 l 260 0 l 122 0 m 260 532 l 451 532 q 579 581 532 532 q 626 711 626 631 q 579 842 626 793 q 451 892 532 892 l 260 892 l 260 532 z "},"Þ":{"ha":833,"x_min":121,"x_max":768,"o":"m 121 0 l 121 1014 l 258 1014 l 258 808 l 464 808 q 625 774 557 808 q 731 676 693 739 q 768 528 768 613 q 685 323 768 399 q 464 247 603 247 l 258 247 l 258 0 l 121 0 m 258 368 l 458 368 q 582 410 538 368 q 626 528 626 453 q 581 646 626 603 q 458 689 536 689 l 258 689 l 258 368 z "},"Q":{"ha":833,"x_min":107,"x_max":738,"o":"m 582 -250 l 438 -12 q 428 -14 433 -14 q 417 -14 422 -14 q 191 68 275 -14 q 107 286 107 150 l 107 728 q 191 947 107 865 q 417 1028 275 1028 q 642 947 558 1028 q 726 728 726 865 l 726 286 q 686 124 726 193 q 574 19 646 54 l 738 -250 l 582 -250 m 417 108 q 542 156 496 108 q 589 286 589 204 l 589 728 q 542 858 589 810 q 417 907 496 907 q 291 858 338 907 q 244 728 244 810 l 244 286 q 291 156 244 204 q 417 108 338 108 z "},"R":{"ha":833,"x_min":124,"x_max":761,"o":"m 124 0 l 124 1014 l 438 1014 q 600 977 531 1014 q 708 874 669 940 q 747 719 747 808 q 695 543 747 617 q 557 439 643 469 l 761 0 l 610 0 l 417 424 l 260 424 l 260 0 l 124 0 m 260 546 l 438 546 q 560 593 515 546 q 606 718 606 640 q 560 844 606 797 q 438 892 514 892 l 260 892 l 260 546 z "},"Ŕ":{"ha":833,"x_min":124,"x_max":761,"o":"m 124 0 l 124 1014 l 438 1014 q 600 977 531 1014 q 708 874 669 940 q 747 719 747 808 q 695 543 747 617 q 557 439 643 469 l 761 0 l 610 0 l 417 424 l 260 424 l 260 0 l 124 0 m 260 546 l 438 546 q 560 593 515 546 q 606 718 606 640 q 560 844 606 797 q 438 892 514 892 l 260 892 l 260 546 m 331 1125 l 476 1319 l 625 1319 l 469 1125 l 331 1125 z "},"Ř":{"ha":833,"x_min":124,"x_max":761,"o":"m 124 0 l 124 1014 l 438 1014 q 600 977 531 1014 q 708 874 669 940 q 747 719 747 808 q 695 543 747 617 q 557 439 643 469 l 761 0 l 610 0 l 417 424 l 260 424 l 260 0 l 124 0 m 260 546 l 438 546 q 560 593 515 546 q 606 718 606 640 q 560 844 606 797 q 438 892 514 892 l 260 892 l 260 546 m 354 1125 l 160 1319 l 306 1319 l 417 1213 l 525 1319 l 674 1319 l 481 1125 l 354 1125 z "},"Ŗ":{"ha":833,"x_min":124,"x_max":761,"o":"m 124 0 l 124 1014 l 438 1014 q 600 977 531 1014 q 708 874 669 940 q 747 719 747 808 q 695 543 747 617 q 557 439 643 469 l 761 0 l 610 0 l 417 424 l 260 424 l 260 0 l 124 0 m 260 546 l 438 546 q 560 593 515 546 q 606 718 606 640 q 560 844 606 797 q 438 892 514 892 l 260 892 l 260 546 m 261 -333 l 393 -132 l 549 -132 l 400 -333 l 261 -333 z "},"S":{"ha":833,"x_min":94,"x_max":739,"o":"m 422 -14 q 183 65 272 -14 q 94 281 94 143 l 232 281 q 283 154 232 200 q 422 108 335 108 q 555 155 506 108 q 604 279 604 201 q 572 381 604 338 q 482 440 540 425 l 332 481 q 176 581 233 508 q 118 754 118 654 q 155 898 118 836 q 258 994 192 960 q 413 1028 325 1028 q 569 994 501 1028 q 674 899 636 960 q 711 757 711 838 l 575 757 q 530 865 575 824 q 413 907 485 907 q 297 865 340 907 q 253 757 253 824 q 282 666 253 703 q 364 614 311 629 l 518 572 q 681 466 622 544 q 739 279 739 388 q 700 124 739 190 q 590 22 661 58 q 422 -14 518 -14 z "},"Ś":{"ha":833,"x_min":94,"x_max":739,"o":"m 422 -14 q 183 65 272 -14 q 94 281 94 143 l 232 281 q 283 154 232 200 q 422 108 335 108 q 555 155 506 108 q 604 279 604 201 q 572 381 604 338 q 482 440 540 425 l 332 481 q 176 581 233 508 q 118 754 118 654 q 155 898 118 836 q 258 994 192 960 q 413 1028 325 1028 q 569 994 501 1028 q 674 899 636 960 q 711 757 711 838 l 575 757 q 530 865 575 824 q 413 907 485 907 q 297 865 340 907 q 253 757 253 824 q 282 666 253 703 q 364 614 311 629 l 518 572 q 681 466 622 544 q 739 279 739 388 q 700 124 739 190 q 590 22 661 58 q 422 -14 518 -14 m 331 1125 l 476 1319 l 625 1319 l 469 1125 l 331 1125 z "},"Š":{"ha":833,"x_min":94,"x_max":739,"o":"m 422 -14 q 183 65 272 -14 q 94 281 94 143 l 232 281 q 283 154 232 200 q 422 108 335 108 q 555 155 506 108 q 604 279 604 201 q 572 381 604 338 q 482 440 540 425 l 332 481 q 176 581 233 508 q 118 754 118 654 q 155 898 118 836 q 258 994 192 960 q 413 1028 325 1028 q 569 994 501 1028 q 674 899 636 960 q 711 757 711 838 l 575 757 q 530 865 575 824 q 413 907 485 907 q 297 865 340 907 q 253 757 253 824 q 282 666 253 703 q 364 614 311 629 l 518 572 q 681 466 622 544 q 739 279 739 388 q 700 124 739 190 q 590 22 661 58 q 422 -14 518 -14 m 354 1125 l 160 1319 l 306 1319 l 417 1213 l 525 1319 l 674 1319 l 481 1125 l 354 1125 z "},"Ş":{"ha":833,"x_min":94,"x_max":739,"o":"m 283 -286 l 283 -207 l 382 -207 q 432 -191 413 -207 q 451 -157 451 -175 q 413 -114 451 -132 q 303 -96 374 -96 l 336 -7 q 160 89 225 14 q 94 281 94 164 l 232 281 q 283 154 232 200 q 422 108 335 108 q 555 155 506 108 q 604 279 604 201 q 572 381 604 338 q 482 440 540 425 l 332 481 q 176 581 233 508 q 118 754 118 654 q 155 898 118 836 q 258 994 192 960 q 413 1028 325 1028 q 569 994 501 1028 q 674 899 636 960 q 711 757 711 838 l 575 757 q 530 865 575 824 q 413 907 485 907 q 297 865 340 907 q 253 757 253 824 q 282 666 253 703 q 364 614 311 629 l 518 572 q 681 466 622 544 q 739 279 739 388 q 700 124 739 190 q 590 22 661 58 q 422 -14 518 -14 q 418 -14 419 -14 l 406 -50 q 483 -67 443 -53 q 549 -107 522 -82 q 576 -169 576 -132 q 530 -252 576 -218 q 406 -286 483 -286 l 283 -286 z "},"Ŝ":{"ha":833,"x_min":94,"x_max":739,"o":"m 422 -14 q 183 65 272 -14 q 94 281 94 143 l 232 281 q 283 154 232 200 q 422 108 335 108 q 555 155 506 108 q 604 279 604 201 q 572 381 604 338 q 482 440 540 425 l 332 481 q 176 581 233 508 q 118 754 118 654 q 155 898 118 836 q 258 994 192 960 q 413 1028 325 1028 q 569 994 501 1028 q 674 899 636 960 q 711 757 711 838 l 575 757 q 530 865 575 824 q 413 907 485 907 q 297 865 340 907 q 253 757 253 824 q 282 666 253 703 q 364 614 311 629 l 518 572 q 681 466 622 544 q 739 279 739 388 q 700 124 739 190 q 590 22 661 58 q 422 -14 518 -14 m 160 1125 l 353 1319 l 479 1319 l 674 1125 l 528 1125 l 417 1232 l 308 1125 l 160 1125 z "},"Ș":{"ha":833,"x_min":94,"x_max":739,"o":"m 422 -14 q 183 65 272 -14 q 94 281 94 143 l 232 281 q 283 154 232 200 q 422 108 335 108 q 555 155 506 108 q 604 279 604 201 q 572 381 604 338 q 482 440 540 425 l 332 481 q 176 581 233 508 q 118 754 118 654 q 155 898 118 836 q 258 994 192 960 q 413 1028 325 1028 q 569 994 501 1028 q 674 899 636 960 q 711 757 711 838 l 575 757 q 530 865 575 824 q 413 907 485 907 q 297 865 340 907 q 253 757 253 824 q 282 666 253 703 q 364 614 311 629 l 518 572 q 681 466 622 544 q 739 279 739 388 q 700 124 739 190 q 590 22 661 58 q 422 -14 518 -14 m 261 -333 l 393 -132 l 549 -132 l 400 -333 l 261 -333 z "},"ẞ":{"ha":833,"x_min":121,"x_max":754,"o":"m 121 0 l 121 725 q 158 877 121 813 q 263 978 196 942 q 418 1014 329 1014 l 739 1014 l 739 881 l 514 588 q 689 500 624 578 q 754 299 754 422 q 716 142 754 208 q 609 38 678 75 q 449 0 540 0 l 358 0 l 358 122 l 436 122 q 563 171 517 122 q 610 301 610 219 q 563 428 610 382 q 436 475 517 475 l 372 475 l 372 590 l 599 892 l 418 892 q 299 847 343 892 q 256 725 256 803 l 256 0 l 121 0 z "},"Ə":{"ha":833,"x_min":119,"x_max":715,"o":"m 417 -14 q 199 67 279 -14 q 119 281 119 147 l 119 558 l 578 558 l 578 735 q 537 862 578 817 q 417 907 496 907 q 298 862 339 907 q 257 735 257 817 l 119 735 q 199 949 119 869 q 417 1028 278 1028 q 636 949 557 1028 q 715 735 715 871 l 715 281 q 635 67 715 147 q 417 -14 556 -14 m 417 99 q 539 145 500 99 q 578 281 578 192 l 578 453 l 257 453 l 257 281 q 296 145 257 192 q 417 99 335 99 z "},"T":{"ha":833,"x_min":74,"x_max":760,"o":"m 349 0 l 349 889 l 74 889 l 74 1014 l 760 1014 l 760 889 l 486 889 l 486 0 l 349 0 z "},"Ŧ":{"ha":833,"x_min":74,"x_max":760,"o":"m 349 0 l 349 404 l 151 404 l 151 518 l 349 518 l 349 889 l 74 889 l 74 1014 l 760 1014 l 760 889 l 486 889 l 486 518 l 683 518 l 683 404 l 486 404 l 486 0 l 349 0 z "},"Ť":{"ha":833,"x_min":74,"x_max":760,"o":"m 349 0 l 349 889 l 74 889 l 74 1014 l 760 1014 l 760 889 l 486 889 l 486 0 l 349 0 m 354 1125 l 160 1319 l 306 1319 l 417 1213 l 525 1319 l 674 1319 l 481 1125 l 354 1125 z "},"Ţ":{"ha":833,"x_min":74,"x_max":760,"o":"m 349 0 l 349 889 l 74 889 l 74 1014 l 760 1014 l 760 889 l 486 889 l 486 0 l 468 -50 q 545 -67 506 -53 q 613 -107 585 -82 q 640 -169 640 -132 q 593 -252 640 -218 q 469 -286 546 -286 l 346 -286 l 346 -207 l 444 -207 q 495 -191 476 -207 q 514 -157 514 -175 q 476 -114 514 -132 q 367 -96 438 -96 l 401 0 l 349 0 z "},"Ț":{"ha":833,"x_min":74,"x_max":760,"o":"m 349 0 l 349 889 l 74 889 l 74 1014 l 760 1014 l 760 889 l 486 889 l 486 0 l 349 0 m 261 -333 l 393 -132 l 549 -132 l 400 -333 l 261 -333 z "},"U":{"ha":833,"x_min":119,"x_max":715,"o":"m 417 -14 q 197 65 274 -14 q 119 281 119 144 l 119 1014 l 257 1014 l 257 281 q 297 154 257 200 q 417 108 336 108 q 537 154 496 108 q 578 281 578 200 l 578 1014 l 715 1014 l 715 281 q 638 65 715 143 q 417 -14 561 -14 z "},"Ú":{"ha":833,"x_min":119,"x_max":715,"o":"m 417 -14 q 197 65 274 -14 q 119 281 119 144 l 119 1014 l 257 1014 l 257 281 q 297 154 257 200 q 417 108 336 108 q 537 154 496 108 q 578 281 578 200 l 578 1014 l 715 1014 l 715 281 q 638 65 715 143 q 417 -14 561 -14 m 331 1125 l 476 1319 l 625 1319 l 469 1125 l 331 1125 z "},"Ŭ":{"ha":833,"x_min":119,"x_max":715,"o":"m 417 -14 q 197 65 274 -14 q 119 281 119 144 l 119 1014 l 257 1014 l 257 281 q 297 154 257 200 q 417 108 336 108 q 537 154 496 108 q 578 281 578 200 l 578 1014 l 715 1014 l 715 281 q 638 65 715 143 q 417 -14 561 -14 m 417 1117 q 251 1172 314 1117 q 189 1319 189 1228 l 297 1319 q 330 1236 297 1268 q 415 1204 363 1204 q 503 1236 469 1204 q 536 1319 536 1268 l 644 1319 q 582 1172 644 1228 q 417 1117 519 1117 z "},"Û":{"ha":833,"x_min":119,"x_max":715,"o":"m 417 -14 q 197 65 274 -14 q 119 281 119 144 l 119 1014 l 257 1014 l 257 281 q 297 154 257 200 q 417 108 336 108 q 537 154 496 108 q 578 281 578 200 l 578 1014 l 715 1014 l 715 281 q 638 65 715 143 q 417 -14 561 -14 m 160 1125 l 353 1319 l 479 1319 l 674 1125 l 528 1125 l 417 1232 l 308 1125 l 160 1125 z "},"Ü":{"ha":833,"x_min":119,"x_max":715,"o":"m 417 -14 q 197 65 274 -14 q 119 281 119 144 l 119 1014 l 257 1014 l 257 281 q 297 154 257 200 q 417 108 336 108 q 537 154 496 108 q 578 281 578 200 l 578 1014 l 715 1014 l 715 281 q 638 65 715 143 q 417 -14 561 -14 m 574 1132 q 506 1156 531 1132 q 481 1222 481 1181 q 506 1290 481 1265 q 574 1315 531 1315 q 640 1290 615 1315 q 665 1222 665 1265 q 640 1156 665 1181 q 574 1132 615 1132 m 260 1132 q 193 1156 218 1132 q 168 1222 168 1181 q 193 1290 168 1265 q 260 1315 218 1315 q 328 1290 303 1315 q 353 1222 353 1265 q 328 1156 353 1181 q 260 1132 303 1132 z "},"Ụ":{"ha":833,"x_min":119,"x_max":715,"o":"m 417 -14 q 197 65 274 -14 q 119 281 119 144 l 119 1014 l 257 1014 l 257 281 q 297 154 257 200 q 417 108 336 108 q 537 154 496 108 q 578 281 578 200 l 578 1014 l 715 1014 l 715 281 q 638 65 715 143 q 417 -14 561 -14 m 417 -300 q 342 -276 369 -300 q 314 -210 314 -251 q 342 -142 314 -167 q 417 -117 369 -117 q 492 -142 464 -117 q 519 -210 519 -167 q 492 -276 519 -251 q 417 -300 464 -300 z "},"Ù":{"ha":833,"x_min":119,"x_max":715,"o":"m 417 -14 q 197 65 274 -14 q 119 281 119 144 l 119 1014 l 257 1014 l 257 281 q 297 154 257 200 q 417 108 336 108 q 537 154 496 108 q 578 281 578 200 l 578 1014 l 715 1014 l 715 281 q 638 65 715 143 q 417 -14 561 -14 m 365 1125 l 204 1319 l 357 1319 l 508 1125 l 365 1125 z "},"Ủ":{"ha":833,"x_min":119,"x_max":715,"o":"m 417 -14 q 197 65 274 -14 q 119 281 119 144 l 119 1014 l 257 1014 l 257 281 q 297 154 257 200 q 417 108 336 108 q 537 154 496 108 q 578 281 578 200 l 578 1014 l 715 1014 l 715 281 q 638 65 715 143 q 417 -14 561 -14 m 356 1110 l 418 1197 q 439 1240 439 1224 q 394 1268 439 1268 l 290 1268 l 290 1363 l 406 1363 q 512 1333 472 1363 q 551 1256 551 1304 q 528 1181 551 1215 l 479 1110 l 356 1110 z "},"Ư":{"ha":833,"x_min":119,"x_max":838,"o":"m 417 -14 q 197 65 274 -14 q 119 281 119 144 l 119 1014 l 257 1014 l 257 281 q 297 154 257 200 q 417 108 336 108 q 537 154 496 108 q 578 281 578 200 l 578 1014 l 676 1014 q 712 1027 699 1014 q 725 1063 725 1040 l 725 1167 l 838 1167 l 838 1057 q 805 963 838 1000 q 715 918 772 926 l 715 281 q 638 65 715 143 q 417 -14 561 -14 z "},"Ứ":{"ha":833,"x_min":119,"x_max":838,"o":"m 417 -14 q 197 65 274 -14 q 119 281 119 144 l 119 1014 l 257 1014 l 257 281 q 297 154 257 200 q 417 108 336 108 q 537 154 496 108 q 578 281 578 200 l 578 1014 l 676 1014 q 712 1027 699 1014 q 725 1063 725 1040 l 725 1167 l 838 1167 l 838 1057 q 805 963 838 1000 q 715 918 772 926 l 715 281 q 638 65 715 143 q 417 -14 561 -14 m 331 1125 l 476 1319 l 625 1319 l 469 1125 l 331 1125 z "},"Ự":{"ha":833,"x_min":119,"x_max":838,"o":"m 417 -14 q 197 65 274 -14 q 119 281 119 144 l 119 1014 l 257 1014 l 257 281 q 297 154 257 200 q 417 108 336 108 q 537 154 496 108 q 578 281 578 200 l 578 1014 l 676 1014 q 712 1027 699 1014 q 725 1063 725 1040 l 725 1167 l 838 1167 l 838 1057 q 805 963 838 1000 q 715 918 772 926 l 715 281 q 638 65 715 143 q 417 -14 561 -14 m 417 -300 q 342 -276 369 -300 q 314 -210 314 -251 q 342 -142 314 -167 q 417 -117 369 -117 q 492 -142 464 -117 q 519 -210 519 -167 q 492 -276 519 -251 q 417 -300 464 -300 z "},"Ừ":{"ha":833,"x_min":119,"x_max":838,"o":"m 417 -14 q 197 65 274 -14 q 119 281 119 144 l 119 1014 l 257 1014 l 257 281 q 297 154 257 200 q 417 108 336 108 q 537 154 496 108 q 578 281 578 200 l 578 1014 l 676 1014 q 712 1027 699 1014 q 725 1063 725 1040 l 725 1167 l 838 1167 l 838 1057 q 805 963 838 1000 q 715 918 772 926 l 715 281 q 638 65 715 143 q 417 -14 561 -14 m 365 1125 l 204 1319 l 357 1319 l 508 1125 l 365 1125 z "},"Ử":{"ha":833,"x_min":119,"x_max":838,"o":"m 417 -14 q 197 65 274 -14 q 119 281 119 144 l 119 1014 l 257 1014 l 257 281 q 297 154 257 200 q 417 108 336 108 q 537 154 496 108 q 578 281 578 200 l 578 1014 l 676 1014 q 712 1027 699 1014 q 725 1063 725 1040 l 725 1167 l 838 1167 l 838 1057 q 805 963 838 1000 q 715 918 772 926 l 715 281 q 638 65 715 143 q 417 -14 561 -14 m 356 1110 l 418 1197 q 439 1240 439 1224 q 394 1268 439 1268 l 290 1268 l 290 1363 l 406 1363 q 512 1333 472 1363 q 551 1256 551 1304 q 528 1181 551 1215 l 479 1110 l 356 1110 z "},"Ữ":{"ha":833,"x_min":119,"x_max":838,"o":"m 417 -14 q 197 65 274 -14 q 119 281 119 144 l 119 1014 l 257 1014 l 257 281 q 297 154 257 200 q 417 108 336 108 q 537 154 496 108 q 578 281 578 200 l 578 1014 l 676 1014 q 712 1027 699 1014 q 725 1063 725 1040 l 725 1167 l 838 1167 l 838 1057 q 805 963 838 1000 q 715 918 772 926 l 715 281 q 638 65 715 143 q 417 -14 561 -14 m 514 1129 q 446 1143 472 1129 q 401 1176 419 1157 q 367 1210 383 1196 q 326 1224 350 1224 q 285 1176 285 1224 l 285 1136 l 190 1136 l 190 1179 q 226 1279 190 1243 q 319 1315 261 1315 q 388 1301 361 1315 q 432 1268 414 1288 q 467 1235 450 1249 q 507 1221 483 1221 q 549 1268 549 1221 l 549 1308 l 643 1308 l 643 1267 q 608 1165 643 1201 q 514 1129 572 1129 z "},"Ű":{"ha":833,"x_min":119,"x_max":742,"o":"m 417 -14 q 197 65 274 -14 q 119 281 119 144 l 119 1014 l 257 1014 l 257 281 q 297 154 257 200 q 417 108 336 108 q 537 154 496 108 q 578 281 578 200 l 578 1014 l 715 1014 l 715 281 q 638 65 715 143 q 417 -14 561 -14 m 451 1125 l 604 1319 l 742 1319 l 582 1125 l 451 1125 m 196 1125 l 347 1319 l 486 1319 l 326 1125 l 196 1125 z "},"Ū":{"ha":833,"x_min":119,"x_max":715,"o":"m 417 -14 q 197 65 274 -14 q 119 281 119 144 l 119 1014 l 257 1014 l 257 281 q 297 154 257 200 q 417 108 336 108 q 537 154 496 108 q 578 281 578 200 l 578 1014 l 715 1014 l 715 281 q 638 65 715 143 q 417 -14 561 -14 m 190 1163 l 190 1274 l 643 1274 l 643 1163 l 190 1163 z "},"Ų":{"ha":833,"x_min":119,"x_max":715,"o":"m 521 -286 q 397 -249 443 -286 q 350 -154 350 -211 q 375 -83 350 -122 q 442 -7 400 -43 q 432 -11 439 -8 q 417 -14 425 -14 q 199 65 278 -14 q 119 281 119 143 l 119 1014 l 257 1014 l 257 281 q 298 153 257 197 q 417 108 339 108 q 536 153 494 108 q 578 281 578 197 l 578 1014 l 715 1014 l 715 281 q 599 33 715 110 l 554 -3 q 494 -69 511 -39 q 476 -126 476 -100 q 496 -175 476 -156 q 550 -194 515 -194 l 636 -194 l 636 -286 l 521 -286 z "},"Ů":{"ha":833,"x_min":119,"x_max":715,"o":"m 417 -14 q 197 65 274 -14 q 119 281 119 144 l 119 1014 l 257 1014 l 257 281 q 297 154 257 200 q 417 108 336 108 q 537 154 496 108 q 578 281 578 200 l 578 1014 l 715 1014 l 715 281 q 638 65 715 143 q 417 -14 561 -14 m 417 1061 q 293 1106 340 1061 q 246 1222 246 1150 q 293 1339 246 1294 q 417 1383 340 1383 q 540 1339 493 1383 q 588 1222 588 1294 q 540 1106 588 1150 q 417 1061 493 1061 m 417 1139 q 477 1162 454 1139 q 500 1222 500 1185 q 477 1283 500 1260 q 417 1307 454 1307 q 356 1283 379 1307 q 333 1222 333 1260 q 356 1162 333 1185 q 417 1139 379 1139 z "},"Ũ":{"ha":833,"x_min":119,"x_max":715,"o":"m 417 -14 q 197 65 274 -14 q 119 281 119 144 l 119 1014 l 257 1014 l 257 281 q 297 154 257 200 q 417 108 336 108 q 537 154 496 108 q 578 281 578 200 l 578 1014 l 715 1014 l 715 281 q 638 65 715 143 q 417 -14 561 -14 m 514 1129 q 446 1143 472 1129 q 401 1176 419 1157 q 367 1210 383 1196 q 326 1224 350 1224 q 285 1176 285 1224 l 285 1136 l 190 1136 l 190 1179 q 226 1279 190 1243 q 319 1315 261 1315 q 388 1301 361 1315 q 432 1268 414 1288 q 467 1235 450 1249 q 507 1221 483 1221 q 549 1268 549 1221 l 549 1308 l 643 1308 l 643 1267 q 608 1165 643 1201 q 514 1129 572 1129 z "},"V":{"ha":833,"x_min":64,"x_max":769,"o":"m 324 0 l 64 1014 l 206 1014 l 374 331 q 402 205 390 265 q 419 113 414 144 q 437 206 424 144 q 465 332 450 267 l 628 1014 l 769 1014 l 508 0 l 324 0 z "},"W":{"ha":833,"x_min":26,"x_max":808,"o":"m 143 0 l 26 1014 l 149 1014 l 224 275 q 231 180 228 231 q 236 97 235 129 q 243 180 239 129 q 254 275 247 231 l 351 1014 l 489 1014 l 579 275 q 589 180 583 231 q 599 97 594 129 q 604 180 600 129 q 613 275 608 231 l 689 1014 l 808 1014 l 688 0 l 521 0 l 433 750 q 424 844 428 796 q 419 921 421 892 q 413 844 415 892 q 404 750 410 796 l 308 0 l 143 0 z "},"Ẃ":{"ha":833,"x_min":26,"x_max":808,"o":"m 143 0 l 26 1014 l 149 1014 l 224 275 q 231 180 228 231 q 236 97 235 129 q 243 180 239 129 q 254 275 247 231 l 351 1014 l 489 1014 l 579 275 q 589 180 583 231 q 599 97 594 129 q 604 180 600 129 q 613 275 608 231 l 689 1014 l 808 1014 l 688 0 l 521 0 l 433 750 q 424 844 428 796 q 419 921 421 892 q 413 844 415 892 q 404 750 410 796 l 308 0 l 143 0 m 331 1125 l 476 1319 l 625 1319 l 469 1125 l 331 1125 z "},"Ŵ":{"ha":833,"x_min":26,"x_max":808,"o":"m 143 0 l 26 1014 l 149 1014 l 224 275 q 231 180 228 231 q 236 97 235 129 q 243 180 239 129 q 254 275 247 231 l 351 1014 l 489 1014 l 579 275 q 589 180 583 231 q 599 97 594 129 q 604 180 600 129 q 613 275 608 231 l 689 1014 l 808 1014 l 688 0 l 521 0 l 433 750 q 424 844 428 796 q 419 921 421 892 q 413 844 415 892 q 404 750 410 796 l 308 0 l 143 0 m 160 1125 l 353 1319 l 479 1319 l 674 1125 l 528 1125 l 417 1232 l 308 1125 l 160 1125 z "},"Ẅ":{"ha":833,"x_min":26,"x_max":808,"o":"m 143 0 l 26 1014 l 149 1014 l 224 275 q 231 180 228 231 q 236 97 235 129 q 243 180 239 129 q 254 275 247 231 l 351 1014 l 489 1014 l 579 275 q 589 180 583 231 q 599 97 594 129 q 604 180 600 129 q 613 275 608 231 l 689 1014 l 808 1014 l 688 0 l 521 0 l 433 750 q 424 844 428 796 q 419 921 421 892 q 413 844 415 892 q 404 750 410 796 l 308 0 l 143 0 m 574 1132 q 506 1156 531 1132 q 481 1222 481 1181 q 506 1290 481 1265 q 574 1315 531 1315 q 640 1290 615 1315 q 665 1222 665 1265 q 640 1156 665 1181 q 574 1132 615 1132 m 260 1132 q 193 1156 218 1132 q 168 1222 168 1181 q 193 1290 168 1265 q 260 1315 218 1315 q 328 1290 303 1315 q 353 1222 353 1265 q 328 1156 353 1181 q 260 1132 303 1132 z "},"Ẁ":{"ha":833,"x_min":26,"x_max":808,"o":"m 143 0 l 26 1014 l 149 1014 l 224 275 q 231 180 228 231 q 236 97 235 129 q 243 180 239 129 q 254 275 247 231 l 351 1014 l 489 1014 l 579 275 q 589 180 583 231 q 599 97 594 129 q 604 180 600 129 q 613 275 608 231 l 689 1014 l 808 1014 l 688 0 l 521 0 l 433 750 q 424 844 428 796 q 419 921 421 892 q 413 844 415 892 q 404 750 410 796 l 308 0 l 143 0 m 365 1125 l 204 1319 l 357 1319 l 508 1125 l 365 1125 z "},"X":{"ha":833,"x_min":51,"x_max":782,"o":"m 51 0 l 340 515 l 67 1014 l 224 1014 l 374 725 q 399 674 386 700 q 419 633 413 647 q 439 674 426 647 q 464 725 451 700 l 615 1014 l 767 1014 l 493 522 l 782 0 l 626 0 l 460 311 q 435 363 447 336 q 415 407 422 390 q 396 363 408 390 q 369 313 383 336 l 203 0 l 51 0 z "},"Y":{"ha":833,"x_min":44,"x_max":789,"o":"m 349 0 l 349 376 l 44 1014 l 190 1014 l 378 614 q 405 549 394 578 q 418 507 415 519 q 433 549 422 519 q 461 614 443 578 l 647 1014 l 789 1014 l 486 376 l 486 0 l 349 0 z "},"Ý":{"ha":833,"x_min":44,"x_max":789,"o":"m 349 0 l 349 376 l 44 1014 l 190 1014 l 378 614 q 405 549 394 578 q 418 507 415 519 q 433 549 422 519 q 461 614 443 578 l 647 1014 l 789 1014 l 486 376 l 486 0 l 349 0 m 331 1125 l 476 1319 l 625 1319 l 469 1125 l 331 1125 z "},"Ŷ":{"ha":833,"x_min":44,"x_max":789,"o":"m 349 0 l 349 376 l 44 1014 l 190 1014 l 378 614 q 405 549 394 578 q 418 507 415 519 q 433 549 422 519 q 461 614 443 578 l 647 1014 l 789 1014 l 486 376 l 486 0 l 349 0 m 160 1125 l 353 1319 l 479 1319 l 674 1125 l 528 1125 l 417 1232 l 308 1125 l 160 1125 z "},"Ÿ":{"ha":833,"x_min":44,"x_max":789,"o":"m 349 0 l 349 376 l 44 1014 l 190 1014 l 378 614 q 405 549 394 578 q 418 507 415 519 q 433 549 422 519 q 461 614 443 578 l 647 1014 l 789 1014 l 486 376 l 486 0 l 349 0 m 574 1132 q 506 1156 531 1132 q 481 1222 481 1181 q 506 1290 481 1265 q 574 1315 531 1315 q 640 1290 615 1315 q 665 1222 665 1265 q 640 1156 665 1181 q 574 1132 615 1132 m 260 1132 q 193 1156 218 1132 q 168 1222 168 1181 q 193 1290 168 1265 q 260 1315 218 1315 q 328 1290 303 1315 q 353 1222 353 1265 q 328 1156 353 1181 q 260 1132 303 1132 z "},"Ỵ":{"ha":833,"x_min":44,"x_max":789,"o":"m 349 0 l 349 376 l 44 1014 l 190 1014 l 378 614 q 405 549 394 578 q 418 507 415 519 q 433 549 422 519 q 461 614 443 578 l 647 1014 l 789 1014 l 486 376 l 486 0 l 349 0 m 417 -300 q 342 -276 369 -300 q 314 -210 314 -251 q 342 -142 314 -167 q 417 -117 369 -117 q 492 -142 464 -117 q 519 -210 519 -167 q 492 -276 519 -251 q 417 -300 464 -300 z "},"Ỳ":{"ha":833,"x_min":44,"x_max":789,"o":"m 349 0 l 349 376 l 44 1014 l 190 1014 l 378 614 q 405 549 394 578 q 418 507 415 519 q 433 549 422 519 q 461 614 443 578 l 647 1014 l 789 1014 l 486 376 l 486 0 l 349 0 m 365 1125 l 204 1319 l 357 1319 l 508 1125 l 365 1125 z "},"Ỷ":{"ha":833,"x_min":44,"x_max":789,"o":"m 349 0 l 349 376 l 44 1014 l 190 1014 l 378 614 q 405 549 394 578 q 418 507 415 519 q 433 549 422 519 q 461 614 443 578 l 647 1014 l 789 1014 l 486 376 l 486 0 l 349 0 m 356 1110 l 418 1197 q 439 1240 439 1224 q 394 1268 439 1268 l 290 1268 l 290 1363 l 406 1363 q 512 1333 472 1363 q 551 1256 551 1304 q 528 1181 551 1215 l 479 1110 l 356 1110 z "},"Ȳ":{"ha":833,"x_min":44,"x_max":789,"o":"m 349 0 l 349 376 l 44 1014 l 190 1014 l 378 614 q 405 549 394 578 q 418 507 415 519 q 433 549 422 519 q 461 614 443 578 l 647 1014 l 789 1014 l 486 376 l 486 0 l 349 0 m 190 1163 l 190 1274 l 643 1274 l 643 1163 l 190 1163 z "},"Ỹ":{"ha":833,"x_min":44,"x_max":789,"o":"m 349 0 l 349 376 l 44 1014 l 190 1014 l 378 614 q 405 549 394 578 q 418 507 415 519 q 433 549 422 519 q 461 614 443 578 l 647 1014 l 789 1014 l 486 376 l 486 0 l 349 0 m 514 1129 q 446 1143 472 1129 q 401 1176 419 1157 q 367 1210 383 1196 q 326 1224 350 1224 q 285 1176 285 1224 l 285 1136 l 190 1136 l 190 1179 q 226 1279 190 1243 q 319 1315 261 1315 q 388 1301 361 1315 q 432 1268 414 1288 q 467 1235 450 1249 q 507 1221 483 1221 q 549 1268 549 1221 l 549 1308 l 643 1308 l 643 1267 q 608 1165 643 1201 q 514 1129 572 1129 z "},"Z":{"ha":833,"x_min":117,"x_max":718,"o":"m 117 0 l 117 135 l 560 889 l 124 889 l 124 1014 l 703 1014 l 703 879 l 258 125 l 718 125 l 718 0 l 117 0 z "},"Ź":{"ha":833,"x_min":117,"x_max":718,"o":"m 117 0 l 117 135 l 560 889 l 124 889 l 124 1014 l 703 1014 l 703 879 l 258 125 l 718 125 l 718 0 l 117 0 m 331 1125 l 476 1319 l 625 1319 l 469 1125 l 331 1125 z "},"Ž":{"ha":833,"x_min":117,"x_max":718,"o":"m 117 0 l 117 135 l 560 889 l 124 889 l 124 1014 l 703 1014 l 703 879 l 258 125 l 718 125 l 718 0 l 117 0 m 354 1125 l 160 1319 l 306 1319 l 417 1213 l 525 1319 l 674 1319 l 481 1125 l 354 1125 z "},"Ż":{"ha":833,"x_min":117,"x_max":718,"o":"m 117 0 l 117 135 l 560 889 l 124 889 l 124 1014 l 703 1014 l 703 879 l 258 125 l 718 125 l 718 0 l 117 0 m 417 1131 q 342 1156 369 1131 q 314 1222 314 1181 q 342 1289 314 1264 q 417 1314 369 1314 q 492 1289 464 1314 q 519 1222 519 1264 q 492 1156 519 1181 q 417 1131 464 1131 z "},"a":{"ha":833,"x_min":90,"x_max":711,"o":"m 346 -14 q 159 52 228 -14 q 90 225 90 118 q 162 397 90 332 q 350 463 233 463 l 574 463 l 574 521 q 418 661 574 661 q 306 635 349 661 q 261 564 264 610 l 125 564 q 210 717 132 657 q 418 778 288 778 q 635 711 558 778 q 711 524 711 644 l 711 0 l 576 0 l 576 140 l 574 140 q 503 28 564 69 q 346 -14 443 -14 m 382 101 q 522 144 469 101 q 574 260 574 186 l 574 361 l 363 361 q 266 326 303 361 q 229 232 229 290 q 269 137 229 172 q 382 101 310 101 z "},"á":{"ha":833,"x_min":90,"x_max":711,"o":"m 346 -14 q 159 52 228 -14 q 90 225 90 118 q 162 397 90 332 q 350 463 233 463 l 574 463 l 574 521 q 418 661 574 661 q 306 635 349 661 q 261 564 264 610 l 125 564 q 210 717 132 657 q 418 778 288 778 q 635 711 558 778 q 711 524 711 644 l 711 0 l 576 0 l 576 140 l 574 140 q 503 28 564 69 q 346 -14 443 -14 m 382 101 q 522 144 469 101 q 574 260 574 186 l 574 361 l 363 361 q 266 326 303 361 q 229 232 229 290 q 269 137 229 172 q 382 101 310 101 m 338 896 l 483 1090 l 632 1090 l 476 896 l 338 896 z "},"ă":{"ha":833,"x_min":90,"x_max":711,"o":"m 346 -14 q 159 52 228 -14 q 90 225 90 118 q 162 397 90 332 q 350 463 233 463 l 574 463 l 574 521 q 418 661 574 661 q 306 635 349 661 q 261 564 264 610 l 125 564 q 210 717 132 657 q 418 778 288 778 q 635 711 558 778 q 711 524 711 644 l 711 0 l 576 0 l 576 140 l 574 140 q 503 28 564 69 q 346 -14 443 -14 m 382 101 q 522 144 469 101 q 574 260 574 186 l 574 361 l 363 361 q 266 326 303 361 q 229 232 229 290 q 269 137 229 172 q 382 101 310 101 m 424 888 q 258 943 321 888 q 196 1090 196 999 l 304 1090 q 337 1007 304 1039 q 422 975 369 975 q 510 1007 476 975 q 543 1090 543 1039 l 651 1090 q 589 943 651 999 q 424 888 526 888 z "},"ắ":{"ha":833,"x_min":90,"x_max":711,"o":"m 346 -14 q 159 52 228 -14 q 90 225 90 118 q 162 397 90 332 q 350 463 233 463 l 574 463 l 574 521 q 418 661 574 661 q 306 635 349 661 q 261 564 264 610 l 125 564 q 210 717 132 657 q 418 778 288 778 q 635 711 558 778 q 711 524 711 644 l 711 0 l 576 0 l 576 140 l 574 140 q 503 28 564 69 q 346 -14 443 -14 m 382 101 q 522 144 469 101 q 574 260 574 186 l 574 361 l 363 361 q 266 326 303 361 q 229 232 229 290 q 269 137 229 172 q 382 101 310 101 m 336 1063 l 496 1244 l 636 1244 l 468 1063 l 336 1063 m 424 889 q 251 939 317 889 q 185 1072 185 989 l 290 1072 q 326 1004 290 1029 q 424 979 363 979 q 521 1004 485 979 q 557 1072 557 1029 l 663 1072 q 597 939 663 989 q 424 889 531 889 z "},"ặ":{"ha":833,"x_min":90,"x_max":711,"o":"m 346 -14 q 159 52 228 -14 q 90 225 90 118 q 162 397 90 332 q 350 463 233 463 l 574 463 l 574 521 q 418 661 574 661 q 306 635 349 661 q 261 564 264 610 l 125 564 q 210 717 132 657 q 418 778 288 778 q 635 711 558 778 q 711 524 711 644 l 711 0 l 576 0 l 576 140 l 574 140 q 503 28 564 69 q 346 -14 443 -14 m 382 101 q 522 144 469 101 q 574 260 574 186 l 574 361 l 363 361 q 266 326 303 361 q 229 232 229 290 q 269 137 229 172 q 382 101 310 101 m 424 -300 q 349 -276 376 -300 q 321 -210 321 -251 q 349 -142 321 -167 q 424 -117 376 -117 q 499 -142 471 -117 q 526 -210 526 -167 q 499 -276 526 -251 q 424 -300 471 -300 m 424 888 q 258 943 321 888 q 196 1090 196 999 l 304 1090 q 337 1007 304 1039 q 422 975 369 975 q 510 1007 476 975 q 543 1090 543 1039 l 651 1090 q 589 943 651 999 q 424 888 526 888 z "},"ằ":{"ha":833,"x_min":90,"x_max":711,"o":"m 346 -14 q 159 52 228 -14 q 90 225 90 118 q 162 397 90 332 q 350 463 233 463 l 574 463 l 574 521 q 418 661 574 661 q 306 635 349 661 q 261 564 264 610 l 125 564 q 210 717 132 657 q 418 778 288 778 q 635 711 558 778 q 711 524 711 644 l 711 0 l 576 0 l 576 140 l 574 140 q 503 28 564 69 q 346 -14 443 -14 m 382 101 q 522 144 469 101 q 574 260 574 186 l 574 361 l 363 361 q 266 326 303 361 q 229 232 229 290 q 269 137 229 172 q 382 101 310 101 m 379 1063 l 211 1244 l 351 1244 l 511 1063 l 379 1063 m 424 889 q 251 939 317 889 q 185 1072 185 989 l 290 1072 q 326 1004 290 1029 q 424 979 363 979 q 521 1004 485 979 q 557 1072 557 1029 l 663 1072 q 597 939 663 989 q 424 889 531 889 z "},"ẳ":{"ha":833,"x_min":90,"x_max":711,"o":"m 346 -14 q 159 52 228 -14 q 90 225 90 118 q 162 397 90 332 q 350 463 233 463 l 574 463 l 574 521 q 418 661 574 661 q 306 635 349 661 q 261 564 264 610 l 125 564 q 210 717 132 657 q 418 778 288 778 q 635 711 558 778 q 711 524 711 644 l 711 0 l 576 0 l 576 140 l 574 140 q 503 28 564 69 q 346 -14 443 -14 m 382 101 q 522 144 469 101 q 574 260 574 186 l 574 361 l 363 361 q 266 326 303 361 q 229 232 229 290 q 269 137 229 172 q 382 101 310 101 m 356 1063 l 418 1144 q 432 1181 432 1163 q 394 1213 432 1213 l 314 1213 l 314 1301 l 411 1301 q 508 1273 472 1301 q 544 1200 544 1244 q 538 1163 544 1181 q 519 1129 531 1144 l 472 1063 l 356 1063 m 424 889 q 251 939 317 889 q 185 1072 185 989 l 290 1072 q 326 1004 290 1029 q 424 979 363 979 q 521 1004 485 979 q 557 1072 557 1029 l 663 1072 q 597 939 663 989 q 424 889 531 889 z "},"ẵ":{"ha":833,"x_min":90,"x_max":711,"o":"m 346 -14 q 159 52 228 -14 q 90 225 90 118 q 162 397 90 332 q 350 463 233 463 l 574 463 l 574 521 q 418 661 574 661 q 306 635 349 661 q 261 564 264 610 l 125 564 q 210 717 132 657 q 418 778 288 778 q 635 711 558 778 q 711 524 711 644 l 711 0 l 576 0 l 576 140 l 574 140 q 503 28 564 69 q 346 -14 443 -14 m 382 101 q 522 144 469 101 q 574 260 574 186 l 574 361 l 363 361 q 266 326 303 361 q 229 232 229 290 q 269 137 229 172 q 382 101 310 101 m 517 1126 q 447 1140 472 1126 q 404 1171 421 1153 q 372 1202 388 1189 q 333 1215 357 1215 q 292 1174 292 1215 l 292 1138 l 197 1138 l 197 1168 q 234 1260 197 1225 q 331 1296 271 1296 q 401 1282 375 1296 q 444 1251 428 1268 q 475 1220 460 1233 q 514 1207 490 1207 q 556 1247 556 1207 l 556 1285 l 650 1285 l 650 1254 q 613 1161 650 1196 q 517 1126 576 1126 m 424 894 q 259 945 322 894 q 196 1078 196 996 l 296 1078 q 331 1009 296 1035 q 422 983 365 983 q 516 1009 481 983 q 551 1078 551 1035 l 651 1078 q 588 945 651 996 q 424 894 525 894 z "},"ǎ":{"ha":833,"x_min":90,"x_max":711,"o":"m 346 -14 q 159 52 228 -14 q 90 225 90 118 q 162 397 90 332 q 350 463 233 463 l 574 463 l 574 521 q 418 661 574 661 q 306 635 349 661 q 261 564 264 610 l 125 564 q 210 717 132 657 q 418 778 288 778 q 635 711 558 778 q 711 524 711 644 l 711 0 l 576 0 l 576 140 l 574 140 q 503 28 564 69 q 346 -14 443 -14 m 382 101 q 522 144 469 101 q 574 260 574 186 l 574 361 l 363 361 q 266 326 303 361 q 229 232 229 290 q 269 137 229 172 q 382 101 310 101 m 361 896 l 167 1090 l 313 1090 l 424 983 l 532 1090 l 681 1090 l 488 896 l 361 896 z "},"â":{"ha":833,"x_min":90,"x_max":711,"o":"m 346 -14 q 159 52 228 -14 q 90 225 90 118 q 162 397 90 332 q 350 463 233 463 l 574 463 l 574 521 q 418 661 574 661 q 306 635 349 661 q 261 564 264 610 l 125 564 q 210 717 132 657 q 418 778 288 778 q 635 711 558 778 q 711 524 711 644 l 711 0 l 576 0 l 576 140 l 574 140 q 503 28 564 69 q 346 -14 443 -14 m 382 101 q 522 144 469 101 q 574 260 574 186 l 574 361 l 363 361 q 266 326 303 361 q 229 232 229 290 q 269 137 229 172 q 382 101 310 101 m 167 896 l 360 1090 l 486 1090 l 681 896 l 535 896 l 424 1003 l 315 896 l 167 896 z "},"ấ":{"ha":833,"x_min":90,"x_max":888,"o":"m 346 -14 q 159 52 228 -14 q 90 225 90 118 q 162 397 90 332 q 350 463 233 463 l 574 463 l 574 521 q 418 661 574 661 q 306 635 349 661 q 261 564 264 610 l 125 564 q 210 717 132 657 q 418 778 288 778 q 635 711 558 778 q 711 524 711 644 l 711 0 l 576 0 l 576 140 l 574 140 q 503 28 564 69 q 346 -14 443 -14 m 382 101 q 522 144 469 101 q 574 260 574 186 l 574 361 l 363 361 q 266 326 303 361 q 229 232 229 290 q 269 137 229 172 q 382 101 310 101 m 579 1056 l 739 1250 l 888 1250 l 719 1056 l 579 1056 m 168 896 l 360 1090 l 488 1090 l 681 896 l 532 896 l 424 1003 l 314 896 l 168 896 z "},"ậ":{"ha":833,"x_min":90,"x_max":711,"o":"m 346 -14 q 159 52 228 -14 q 90 225 90 118 q 162 397 90 332 q 350 463 233 463 l 574 463 l 574 521 q 418 661 574 661 q 306 635 349 661 q 261 564 264 610 l 125 564 q 210 717 132 657 q 418 778 288 778 q 635 711 558 778 q 711 524 711 644 l 711 0 l 576 0 l 576 140 l 574 140 q 503 28 564 69 q 346 -14 443 -14 m 382 101 q 522 144 469 101 q 574 260 574 186 l 574 361 l 363 361 q 266 326 303 361 q 229 232 229 290 q 269 137 229 172 q 382 101 310 101 m 424 -300 q 349 -276 376 -300 q 321 -210 321 -251 q 349 -142 321 -167 q 424 -117 376 -117 q 499 -142 471 -117 q 526 -210 526 -167 q 499 -276 526 -251 q 424 -300 471 -300 m 167 896 l 360 1090 l 486 1090 l 681 896 l 535 896 l 424 1003 l 315 896 l 167 896 z "},"ầ":{"ha":833,"x_min":90,"x_max":778,"o":"m 346 -14 q 159 52 228 -14 q 90 225 90 118 q 162 397 90 332 q 350 463 233 463 l 574 463 l 574 521 q 418 661 574 661 q 306 635 349 661 q 261 564 264 610 l 125 564 q 210 717 132 657 q 418 778 288 778 q 635 711 558 778 q 711 524 711 644 l 711 0 l 576 0 l 576 140 l 574 140 q 503 28 564 69 q 346 -14 443 -14 m 382 101 q 522 144 469 101 q 574 260 574 186 l 574 361 l 363 361 q 266 326 303 361 q 229 232 229 290 q 269 137 229 172 q 382 101 310 101 m 638 1056 l 457 1250 l 606 1250 l 778 1056 l 638 1056 m 168 896 l 360 1090 l 488 1090 l 681 896 l 532 896 l 424 1003 l 314 896 l 168 896 z "},"ẩ":{"ha":833,"x_min":90,"x_max":779,"o":"m 346 -14 q 159 52 228 -14 q 90 225 90 118 q 162 397 90 332 q 350 463 233 463 l 574 463 l 574 521 q 418 661 574 661 q 306 635 349 661 q 261 564 264 610 l 125 564 q 210 717 132 657 q 418 778 288 778 q 635 711 558 778 q 711 524 711 644 l 711 0 l 576 0 l 576 140 l 574 140 q 503 28 564 69 q 346 -14 443 -14 m 382 101 q 522 144 469 101 q 574 260 574 186 l 574 361 l 363 361 q 266 326 303 361 q 229 232 229 290 q 269 137 229 172 q 382 101 310 101 m 594 1056 l 658 1140 q 672 1174 672 1160 q 628 1207 672 1207 l 553 1207 l 553 1296 l 639 1296 q 741 1267 703 1296 q 779 1189 779 1238 q 754 1124 779 1157 l 706 1056 l 594 1056 m 168 896 l 360 1090 l 488 1090 l 681 896 l 532 896 l 424 1003 l 314 896 l 168 896 z "},"ẫ":{"ha":833,"x_min":90,"x_max":711,"o":"m 346 -14 q 159 52 228 -14 q 90 225 90 118 q 162 397 90 332 q 350 463 233 463 l 574 463 l 574 521 q 418 661 574 661 q 306 635 349 661 q 261 564 264 610 l 125 564 q 210 717 132 657 q 418 778 288 778 q 635 711 558 778 q 711 524 711 644 l 711 0 l 576 0 l 576 140 l 574 140 q 503 28 564 69 q 346 -14 443 -14 m 382 101 q 522 144 469 101 q 574 260 574 186 l 574 361 l 363 361 q 266 326 303 361 q 229 232 229 290 q 269 137 229 172 q 382 101 310 101 m 517 1131 q 447 1144 472 1131 q 404 1174 421 1157 q 372 1205 388 1192 q 333 1218 357 1218 q 292 1175 292 1218 l 292 1142 l 197 1142 l 197 1169 q 234 1263 197 1228 q 331 1297 271 1297 q 401 1284 375 1297 q 444 1254 428 1271 q 475 1224 460 1238 q 514 1211 490 1211 q 556 1253 556 1211 l 556 1288 l 650 1288 l 650 1258 q 613 1166 650 1201 q 517 1131 576 1131 m 168 896 l 360 1090 l 488 1090 l 681 896 l 532 896 l 424 1003 l 314 896 l 168 896 z "},"ä":{"ha":833,"x_min":90,"x_max":711,"o":"m 346 -14 q 159 52 228 -14 q 90 225 90 118 q 162 397 90 332 q 350 463 233 463 l 574 463 l 574 521 q 418 661 574 661 q 306 635 349 661 q 261 564 264 610 l 125 564 q 210 717 132 657 q 418 778 288 778 q 635 711 558 778 q 711 524 711 644 l 711 0 l 576 0 l 576 140 l 574 140 q 503 28 564 69 q 346 -14 443 -14 m 382 101 q 522 144 469 101 q 574 260 574 186 l 574 361 l 363 361 q 266 326 303 361 q 229 232 229 290 q 269 137 229 172 q 382 101 310 101 m 581 899 q 513 923 538 899 q 488 989 488 947 q 513 1057 488 1032 q 581 1082 538 1082 q 647 1057 622 1082 q 672 989 672 1032 q 647 923 672 947 q 581 899 622 899 m 267 899 q 200 923 225 899 q 175 989 175 947 q 200 1057 175 1032 q 267 1082 225 1082 q 335 1057 310 1082 q 360 989 360 1032 q 335 923 360 947 q 267 899 310 899 z "},"ạ":{"ha":833,"x_min":90,"x_max":711,"o":"m 346 -14 q 159 52 228 -14 q 90 225 90 118 q 162 397 90 332 q 350 463 233 463 l 574 463 l 574 521 q 418 661 574 661 q 306 635 349 661 q 261 564 264 610 l 125 564 q 210 717 132 657 q 418 778 288 778 q 635 711 558 778 q 711 524 711 644 l 711 0 l 576 0 l 576 140 l 574 140 q 503 28 564 69 q 346 -14 443 -14 m 382 101 q 522 144 469 101 q 574 260 574 186 l 574 361 l 363 361 q 266 326 303 361 q 229 232 229 290 q 269 137 229 172 q 382 101 310 101 m 424 -300 q 349 -276 376 -300 q 321 -210 321 -251 q 349 -142 321 -167 q 424 -117 376 -117 q 499 -142 471 -117 q 526 -210 526 -167 q 499 -276 526 -251 q 424 -300 471 -300 z "},"à":{"ha":833,"x_min":90,"x_max":711,"o":"m 346 -14 q 159 52 228 -14 q 90 225 90 118 q 162 397 90 332 q 350 463 233 463 l 574 463 l 574 521 q 418 661 574 661 q 306 635 349 661 q 261 564 264 610 l 125 564 q 210 717 132 657 q 418 778 288 778 q 635 711 558 778 q 711 524 711 644 l 711 0 l 576 0 l 576 140 l 574 140 q 503 28 564 69 q 346 -14 443 -14 m 382 101 q 522 144 469 101 q 574 260 574 186 l 574 361 l 363 361 q 266 326 303 361 q 229 232 229 290 q 269 137 229 172 q 382 101 310 101 m 372 896 l 211 1090 l 364 1090 l 515 896 l 372 896 z "},"ả":{"ha":833,"x_min":90,"x_max":711,"o":"m 346 -14 q 159 52 228 -14 q 90 225 90 118 q 162 397 90 332 q 350 463 233 463 l 574 463 l 574 521 q 418 661 574 661 q 306 635 349 661 q 261 564 264 610 l 125 564 q 210 717 132 657 q 418 778 288 778 q 635 711 558 778 q 711 524 711 644 l 711 0 l 576 0 l 576 140 l 574 140 q 503 28 564 69 q 346 -14 443 -14 m 382 101 q 522 144 469 101 q 574 260 574 186 l 574 361 l 363 361 q 266 326 303 361 q 229 232 229 290 q 269 137 229 172 q 382 101 310 101 m 363 896 l 432 982 q 451 1026 451 1008 q 408 1053 451 1053 l 297 1053 l 297 1147 l 443 1147 q 531 1119 497 1147 q 565 1043 565 1092 q 540 967 565 997 l 486 896 l 363 896 z "},"ā":{"ha":833,"x_min":90,"x_max":711,"o":"m 346 -14 q 159 52 228 -14 q 90 225 90 118 q 162 397 90 332 q 350 463 233 463 l 574 463 l 574 521 q 418 661 574 661 q 306 635 349 661 q 261 564 264 610 l 125 564 q 210 717 132 657 q 418 778 288 778 q 635 711 558 778 q 711 524 711 644 l 711 0 l 576 0 l 576 140 l 574 140 q 503 28 564 69 q 346 -14 443 -14 m 382 101 q 522 144 469 101 q 574 260 574 186 l 574 361 l 363 361 q 266 326 303 361 q 229 232 229 290 q 269 137 229 172 q 382 101 310 101 m 197 928 l 197 1039 l 650 1039 l 650 928 l 197 928 z "},"ą":{"ha":833,"x_min":90,"x_max":785,"o":"m 346 -14 q 159 52 228 -14 q 90 225 90 118 q 162 397 90 332 q 350 463 233 463 l 574 463 l 574 521 q 418 661 574 661 q 306 635 349 661 q 261 564 264 610 l 125 564 q 210 717 132 657 q 418 778 288 778 q 635 711 558 778 q 711 524 711 644 l 711 0 l 714 0 q 646 -69 667 -39 q 625 -126 625 -100 q 645 -175 625 -156 q 700 -194 665 -194 l 785 -194 l 785 -286 l 671 -286 q 547 -249 593 -286 q 500 -154 500 -211 q 524 -78 500 -117 q 603 0 547 -40 l 576 0 l 576 140 l 574 140 q 503 28 564 69 q 346 -14 443 -14 m 382 101 q 522 144 469 101 q 574 260 574 186 l 574 361 l 363 361 q 266 326 303 361 q 229 232 229 290 q 269 137 229 172 q 382 101 310 101 z "},"å":{"ha":833,"x_min":90,"x_max":711,"o":"m 346 -14 q 159 52 228 -14 q 90 225 90 118 q 162 397 90 332 q 350 463 233 463 l 574 463 l 574 521 q 418 661 574 661 q 306 635 349 661 q 261 564 264 610 l 125 564 q 210 717 132 657 q 418 778 288 778 q 635 711 558 778 q 711 524 711 644 l 711 0 l 576 0 l 576 140 l 574 140 q 503 28 564 69 q 346 -14 443 -14 m 382 101 q 522 144 469 101 q 574 260 574 186 l 574 361 l 363 361 q 266 326 303 361 q 229 232 229 290 q 269 137 229 172 q 382 101 310 101 m 424 843 q 300 888 347 843 q 253 1004 253 932 q 300 1121 253 1076 q 424 1165 347 1165 q 547 1121 500 1165 q 594 1004 594 1076 q 547 888 594 932 q 424 843 500 843 m 424 919 q 484 942 461 919 q 507 1004 507 965 q 484 1065 507 1042 q 424 1089 461 1089 q 363 1065 386 1089 q 340 1004 340 1042 q 363 942 340 965 q 424 919 386 919 z "},"ã":{"ha":833,"x_min":90,"x_max":711,"o":"m 346 -14 q 159 52 228 -14 q 90 225 90 118 q 162 397 90 332 q 350 463 233 463 l 574 463 l 574 521 q 418 661 574 661 q 306 635 349 661 q 261 564 264 610 l 125 564 q 210 717 132 657 q 418 778 288 778 q 635 711 558 778 q 711 524 711 644 l 711 0 l 576 0 l 576 140 l 574 140 q 503 28 564 69 q 346 -14 443 -14 m 382 101 q 522 144 469 101 q 574 260 574 186 l 574 361 l 363 361 q 266 326 303 361 q 229 232 229 290 q 269 137 229 172 q 382 101 310 101 m 521 900 q 453 914 479 900 q 408 947 426 928 q 374 981 390 967 q 333 994 357 994 q 292 947 292 994 l 292 907 l 197 907 l 197 950 q 233 1050 197 1014 q 326 1086 268 1086 q 394 1072 368 1086 q 439 1039 421 1058 q 474 1006 457 1019 q 514 992 490 992 q 556 1039 556 992 l 556 1079 l 650 1079 l 650 1038 q 615 936 650 972 q 521 900 579 900 z "},"æ":{"ha":833,"x_min":43,"x_max":786,"o":"m 247 -14 q 100 51 157 -14 q 43 221 43 117 q 102 388 43 324 q 256 451 161 451 l 361 451 l 361 554 q 338 640 361 610 q 271 669 314 669 q 206 642 231 669 q 181 572 181 615 l 63 572 q 115 721 63 664 q 253 778 168 778 q 367 744 319 778 q 422 654 414 710 q 474 744 429 710 q 583 778 519 778 q 730 716 674 778 q 786 556 786 654 l 786 354 l 481 354 l 481 208 q 505 124 481 154 q 571 94 529 94 q 638 122 613 94 q 663 193 663 149 l 786 193 q 730 44 786 101 q 585 -14 674 -14 q 478 21 524 -14 q 422 111 432 56 q 363 21 411 56 q 247 -14 314 -14 m 481 451 l 663 451 l 663 556 q 638 639 663 608 q 571 669 613 669 q 505 639 529 669 q 481 556 481 608 l 481 451 m 267 94 q 335 125 310 94 q 361 208 361 156 l 361 354 l 258 354 q 192 319 217 354 q 167 224 167 283 q 193 130 167 165 q 267 94 219 94 z "},"ǽ":{"ha":833,"x_min":43,"x_max":786,"o":"m 247 -14 q 100 51 157 -14 q 43 221 43 117 q 102 388 43 324 q 256 451 161 451 l 361 451 l 361 554 q 338 640 361 610 q 271 669 314 669 q 206 642 231 669 q 181 572 181 615 l 63 572 q 115 721 63 664 q 253 778 168 778 q 367 744 319 778 q 422 654 414 710 q 474 744 429 710 q 583 778 519 778 q 730 716 674 778 q 786 556 786 654 l 786 354 l 481 354 l 481 208 q 505 124 481 154 q 571 94 529 94 q 638 122 613 94 q 663 193 663 149 l 786 193 q 730 44 786 101 q 585 -14 674 -14 q 478 21 524 -14 q 422 111 432 56 q 363 21 411 56 q 247 -14 314 -14 m 481 451 l 663 451 l 663 556 q 638 639 663 608 q 571 669 613 669 q 505 639 529 669 q 481 556 481 608 l 481 451 m 267 94 q 335 125 310 94 q 361 208 361 156 l 361 354 l 258 354 q 192 319 217 354 q 167 224 167 283 q 193 130 167 165 q 267 94 219 94 m 331 896 l 476 1090 l 625 1090 l 469 896 l 331 896 z "},"b":{"ha":833,"x_min":122,"x_max":718,"o":"m 468 -14 q 326 29 382 -14 q 258 149 271 72 l 258 149 l 258 0 l 122 0 l 122 1014 l 260 1014 l 260 794 l 257 617 l 257 617 q 326 735 269 692 q 468 778 382 778 q 650 701 582 778 q 718 492 718 624 l 718 272 q 650 63 718 140 q 468 -14 582 -14 m 419 106 q 538 145 496 106 q 581 274 581 185 l 581 490 q 538 619 581 579 q 419 658 496 658 q 303 613 346 658 q 260 483 260 567 l 260 281 q 303 151 260 197 q 419 106 346 106 z "},"c":{"ha":833,"x_min":118,"x_max":732,"o":"m 428 -14 q 203 65 288 -14 q 118 281 118 143 l 118 485 q 203 699 118 621 q 428 778 288 778 q 645 706 563 778 q 732 511 728 635 l 596 511 q 547 619 592 581 q 428 657 501 657 q 302 612 349 657 q 256 485 256 567 l 256 281 q 302 153 256 197 q 428 108 349 108 q 547 146 503 108 q 596 253 592 183 l 732 253 q 645 58 728 129 q 428 -14 563 -14 z "},"ć":{"ha":833,"x_min":118,"x_max":732,"o":"m 428 -14 q 203 65 288 -14 q 118 281 118 143 l 118 485 q 203 699 118 621 q 428 778 288 778 q 645 706 563 778 q 732 511 728 635 l 596 511 q 547 619 592 581 q 428 657 501 657 q 302 612 349 657 q 256 485 256 567 l 256 281 q 302 153 256 197 q 428 108 349 108 q 547 146 503 108 q 596 253 592 183 l 732 253 q 645 58 728 129 q 428 -14 563 -14 m 342 896 l 488 1090 l 636 1090 l 481 896 l 342 896 z "},"č":{"ha":833,"x_min":118,"x_max":732,"o":"m 428 -14 q 203 65 288 -14 q 118 281 118 143 l 118 485 q 203 699 118 621 q 428 778 288 778 q 645 706 563 778 q 732 511 728 635 l 596 511 q 547 619 592 581 q 428 657 501 657 q 302 612 349 657 q 256 485 256 567 l 256 281 q 302 153 256 197 q 428 108 349 108 q 547 146 503 108 q 596 253 592 183 l 732 253 q 645 58 728 129 q 428 -14 563 -14 m 365 896 l 171 1090 l 317 1090 l 428 983 l 536 1090 l 685 1090 l 492 896 l 365 896 z "},"ç":{"ha":833,"x_min":118,"x_max":732,"o":"m 288 -286 l 288 -207 l 386 -207 q 436 -191 417 -207 q 456 -157 456 -175 q 417 -114 456 -132 q 307 -96 378 -96 l 342 -6 q 178 91 238 17 q 118 281 118 165 l 118 485 q 203 699 118 621 q 428 778 288 778 q 645 706 563 778 q 732 511 728 635 l 596 511 q 547 619 592 581 q 428 657 501 657 q 302 612 349 657 q 256 485 256 567 l 256 281 q 302 153 256 197 q 428 108 349 108 q 547 146 503 108 q 596 253 592 183 l 732 253 q 645 58 728 129 q 428 -14 563 -14 q 422 -14 425 -14 l 410 -50 q 487 -67 447 -53 q 553 -107 526 -82 q 581 -169 581 -132 q 534 -252 581 -218 q 410 -286 488 -286 l 288 -286 z "},"ĉ":{"ha":833,"x_min":118,"x_max":732,"o":"m 428 -14 q 203 65 288 -14 q 118 281 118 143 l 118 485 q 203 699 118 621 q 428 778 288 778 q 645 706 563 778 q 732 511 728 635 l 596 511 q 547 619 592 581 q 428 657 501 657 q 302 612 349 657 q 256 485 256 567 l 256 281 q 302 153 256 197 q 428 108 349 108 q 547 146 503 108 q 596 253 592 183 l 732 253 q 645 58 728 129 q 428 -14 563 -14 m 171 896 l 364 1090 l 490 1090 l 685 896 l 539 896 l 428 1003 l 319 896 l 171 896 z "},"ċ":{"ha":833,"x_min":118,"x_max":732,"o":"m 428 -14 q 203 65 288 -14 q 118 281 118 143 l 118 485 q 203 699 118 621 q 428 778 288 778 q 645 706 563 778 q 732 511 728 635 l 596 511 q 547 619 592 581 q 428 657 501 657 q 302 612 349 657 q 256 485 256 567 l 256 281 q 302 153 256 197 q 428 108 349 108 q 547 146 503 108 q 596 253 592 183 l 732 253 q 645 58 728 129 q 428 -14 563 -14 m 428 899 q 353 923 381 899 q 325 989 325 947 q 353 1057 325 1032 q 428 1082 381 1082 q 503 1057 475 1082 q 531 989 531 1032 q 503 923 531 947 q 428 899 475 899 z "},"d":{"ha":833,"x_min":115,"x_max":711,"o":"m 367 -14 q 183 63 251 -14 q 115 272 115 140 l 115 492 q 183 701 115 624 q 367 778 251 778 q 508 735 451 778 q 576 617 564 692 l 576 617 l 574 794 l 574 1014 l 711 1014 l 711 0 l 575 0 l 575 149 l 575 149 q 507 29 563 72 q 367 -14 451 -14 m 414 106 q 531 151 488 106 q 574 281 574 197 l 574 483 q 531 613 574 567 q 414 658 488 658 q 295 619 338 658 q 253 490 253 579 l 253 274 q 295 145 253 185 q 414 106 338 106 z "},"ð":{"ha":833,"x_min":92,"x_max":743,"o":"m 415 -11 q 245 28 318 -11 q 132 138 172 67 q 92 303 92 208 q 128 465 92 396 q 229 572 164 533 q 382 610 294 610 q 488 581 444 610 q 547 526 531 553 l 564 526 q 537 576 560 539 q 472 668 514 613 l 385 790 l 160 689 l 160 806 l 321 878 l 222 1014 l 379 1014 l 438 929 l 647 1024 l 647 907 l 501 842 l 604 694 q 706 503 669 601 q 743 315 743 404 q 702 143 743 217 q 588 29 661 69 q 415 -11 514 -11 m 415 108 q 553 162 501 108 q 606 303 606 215 q 553 444 606 390 q 415 497 501 497 q 281 444 332 497 q 229 303 229 390 q 281 162 229 215 q 415 108 332 108 z "},"ď":{"ha":833,"x_min":83,"x_max":843,"o":"m 311 -14 q 145 61 207 -14 q 83 265 83 136 l 83 499 q 145 702 83 626 q 311 778 207 778 q 438 735 389 778 q 496 618 486 692 l 500 618 l 496 794 l 496 1014 l 632 1014 l 632 0 l 497 0 l 497 146 l 496 146 q 438 29 486 72 q 311 -14 389 -14 m 697 764 l 718 1014 l 843 1014 l 810 764 l 697 764 m 358 103 q 460 148 424 103 q 496 274 496 193 l 496 492 q 460 616 496 571 q 358 661 424 661 q 255 616 292 661 q 218 492 218 571 l 218 274 q 255 148 218 193 q 358 103 292 103 z "},"đ":{"ha":833,"x_min":119,"x_max":833,"o":"m 367 -14 q 186 63 253 -14 q 119 272 119 139 l 119 408 q 185 617 119 540 q 367 694 251 694 q 506 651 451 694 q 569 535 560 608 l 575 535 l 571 711 l 571 789 l 346 789 l 346 896 l 571 896 l 571 1014 l 708 1014 l 708 896 l 833 896 l 833 789 l 708 789 l 708 0 l 572 0 l 572 146 l 569 146 q 506 28 560 71 q 367 -14 453 -14 m 414 106 q 529 151 488 106 q 571 281 571 197 l 571 401 q 529 529 571 483 q 414 575 488 575 q 297 530 338 575 q 257 401 257 485 l 257 281 q 297 151 257 196 q 414 106 338 106 z "},"e":{"ha":833,"x_min":111,"x_max":722,"o":"m 417 -14 q 195 68 279 -14 q 111 292 111 150 l 111 472 q 195 696 111 614 q 417 778 279 778 q 577 741 508 778 q 684 638 646 704 q 722 485 722 572 l 722 347 l 246 347 l 246 281 q 292 150 246 197 q 417 103 338 103 q 526 128 483 103 q 578 197 569 153 l 715 197 q 619 43 701 100 q 417 -14 538 -14 m 246 485 l 246 449 l 588 449 l 588 485 q 543 619 588 572 q 417 667 499 667 q 290 619 335 667 q 246 485 246 572 z "},"é":{"ha":833,"x_min":111,"x_max":722,"o":"m 417 -14 q 195 68 279 -14 q 111 292 111 150 l 111 472 q 195 696 111 614 q 417 778 279 778 q 577 741 508 778 q 684 638 646 704 q 722 485 722 572 l 722 347 l 246 347 l 246 281 q 292 150 246 197 q 417 103 338 103 q 526 128 483 103 q 578 197 569 153 l 715 197 q 619 43 701 100 q 417 -14 538 -14 m 246 485 l 246 449 l 588 449 l 588 485 q 543 619 588 572 q 417 667 499 667 q 290 619 335 667 q 246 485 246 572 m 331 896 l 476 1090 l 625 1090 l 469 896 l 331 896 z "},"ĕ":{"ha":833,"x_min":111,"x_max":722,"o":"m 417 -14 q 195 68 279 -14 q 111 292 111 150 l 111 472 q 195 696 111 614 q 417 778 279 778 q 577 741 508 778 q 684 638 646 704 q 722 485 722 572 l 722 347 l 246 347 l 246 281 q 292 150 246 197 q 417 103 338 103 q 526 128 483 103 q 578 197 569 153 l 715 197 q 619 43 701 100 q 417 -14 538 -14 m 246 485 l 246 449 l 588 449 l 588 485 q 543 619 588 572 q 417 667 499 667 q 290 619 335 667 q 246 485 246 572 m 417 888 q 251 943 314 888 q 189 1090 189 999 l 297 1090 q 330 1007 297 1039 q 415 975 363 975 q 503 1007 469 975 q 536 1090 536 1039 l 644 1090 q 582 943 644 999 q 417 888 519 888 z "},"ě":{"ha":833,"x_min":111,"x_max":722,"o":"m 417 -14 q 195 68 279 -14 q 111 292 111 150 l 111 472 q 195 696 111 614 q 417 778 279 778 q 577 741 508 778 q 684 638 646 704 q 722 485 722 572 l 722 347 l 246 347 l 246 281 q 292 150 246 197 q 417 103 338 103 q 526 128 483 103 q 578 197 569 153 l 715 197 q 619 43 701 100 q 417 -14 538 -14 m 246 485 l 246 449 l 588 449 l 588 485 q 543 619 588 572 q 417 667 499 667 q 290 619 335 667 q 246 485 246 572 m 354 896 l 160 1090 l 306 1090 l 417 983 l 525 1090 l 674 1090 l 481 896 l 354 896 z "},"ê":{"ha":833,"x_min":111,"x_max":722,"o":"m 417 -14 q 195 68 279 -14 q 111 292 111 150 l 111 472 q 195 696 111 614 q 417 778 279 778 q 577 741 508 778 q 684 638 646 704 q 722 485 722 572 l 722 347 l 246 347 l 246 281 q 292 150 246 197 q 417 103 338 103 q 526 128 483 103 q 578 197 569 153 l 715 197 q 619 43 701 100 q 417 -14 538 -14 m 246 485 l 246 449 l 588 449 l 588 485 q 543 619 588 572 q 417 667 499 667 q 290 619 335 667 q 246 485 246 572 m 160 896 l 353 1090 l 479 1090 l 674 896 l 528 896 l 417 1003 l 308 896 l 160 896 z "},"ế":{"ha":833,"x_min":111,"x_max":881,"o":"m 417 -14 q 195 68 279 -14 q 111 292 111 150 l 111 472 q 195 696 111 614 q 417 778 279 778 q 577 741 508 778 q 684 638 646 704 q 722 485 722 572 l 722 347 l 246 347 l 246 281 q 292 150 246 197 q 417 103 338 103 q 526 128 483 103 q 578 197 569 153 l 715 197 q 619 43 701 100 q 417 -14 538 -14 m 246 485 l 246 449 l 588 449 l 588 485 q 543 619 588 572 q 417 667 499 667 q 290 619 335 667 q 246 485 246 572 m 572 1056 l 732 1250 l 881 1250 l 713 1056 l 572 1056 m 161 896 l 353 1090 l 481 1090 l 674 896 l 525 896 l 417 1003 l 307 896 l 161 896 z "},"ệ":{"ha":833,"x_min":111,"x_max":722,"o":"m 417 -14 q 195 68 279 -14 q 111 292 111 150 l 111 472 q 195 696 111 614 q 417 778 279 778 q 577 741 508 778 q 684 638 646 704 q 722 485 722 572 l 722 347 l 246 347 l 246 281 q 292 150 246 197 q 417 103 338 103 q 526 128 483 103 q 578 197 569 153 l 715 197 q 619 43 701 100 q 417 -14 538 -14 m 246 485 l 246 449 l 588 449 l 588 485 q 543 619 588 572 q 417 667 499 667 q 290 619 335 667 q 246 485 246 572 m 417 -300 q 342 -276 369 -300 q 314 -210 314 -251 q 342 -142 314 -167 q 417 -117 369 -117 q 492 -142 464 -117 q 519 -210 519 -167 q 492 -276 519 -251 q 417 -300 464 -300 m 160 896 l 353 1090 l 479 1090 l 674 896 l 528 896 l 417 1003 l 308 896 l 160 896 z "},"ề":{"ha":833,"x_min":111,"x_max":771,"o":"m 417 -14 q 195 68 279 -14 q 111 292 111 150 l 111 472 q 195 696 111 614 q 417 778 279 778 q 577 741 508 778 q 684 638 646 704 q 722 485 722 572 l 722 347 l 246 347 l 246 281 q 292 150 246 197 q 417 103 338 103 q 526 128 483 103 q 578 197 569 153 l 715 197 q 619 43 701 100 q 417 -14 538 -14 m 246 485 l 246 449 l 588 449 l 588 485 q 543 619 588 572 q 417 667 499 667 q 290 619 335 667 q 246 485 246 572 m 631 1056 l 450 1250 l 599 1250 l 771 1056 l 631 1056 m 161 896 l 353 1090 l 481 1090 l 674 896 l 525 896 l 417 1003 l 307 896 l 161 896 z "},"ể":{"ha":833,"x_min":111,"x_max":772,"o":"m 417 -14 q 195 68 279 -14 q 111 292 111 150 l 111 472 q 195 696 111 614 q 417 778 279 778 q 577 741 508 778 q 684 638 646 704 q 722 485 722 572 l 722 347 l 246 347 l 246 281 q 292 150 246 197 q 417 103 338 103 q 526 128 483 103 q 578 197 569 153 l 715 197 q 619 43 701 100 q 417 -14 538 -14 m 246 485 l 246 449 l 588 449 l 588 485 q 543 619 588 572 q 417 667 499 667 q 290 619 335 667 q 246 485 246 572 m 588 1056 l 651 1140 q 665 1174 665 1160 q 621 1207 665 1207 l 546 1207 l 546 1296 l 632 1296 q 734 1267 696 1296 q 772 1189 772 1238 q 747 1124 772 1157 l 699 1056 l 588 1056 m 161 896 l 353 1090 l 481 1090 l 674 896 l 525 896 l 417 1003 l 307 896 l 161 896 z "},"ễ":{"ha":833,"x_min":111,"x_max":722,"o":"m 417 -14 q 195 68 279 -14 q 111 292 111 150 l 111 472 q 195 696 111 614 q 417 778 279 778 q 577 741 508 778 q 684 638 646 704 q 722 485 722 572 l 722 347 l 246 347 l 246 281 q 292 150 246 197 q 417 103 338 103 q 526 128 483 103 q 578 197 569 153 l 715 197 q 619 43 701 100 q 417 -14 538 -14 m 246 485 l 246 449 l 588 449 l 588 485 q 543 619 588 572 q 417 667 499 667 q 290 619 335 667 q 246 485 246 572 m 510 1131 q 440 1144 465 1131 q 397 1174 414 1157 q 365 1205 381 1192 q 326 1218 350 1218 q 285 1175 285 1218 l 285 1142 l 190 1142 l 190 1169 q 227 1263 190 1228 q 324 1297 264 1297 q 394 1284 368 1297 q 437 1254 421 1271 q 468 1224 453 1238 q 507 1211 483 1211 q 549 1253 549 1211 l 549 1288 l 643 1288 l 643 1258 q 606 1166 643 1201 q 510 1131 569 1131 m 161 896 l 353 1090 l 481 1090 l 674 896 l 525 896 l 417 1003 l 307 896 l 161 896 z "},"ë":{"ha":833,"x_min":111,"x_max":722,"o":"m 417 -14 q 195 68 279 -14 q 111 292 111 150 l 111 472 q 195 696 111 614 q 417 778 279 778 q 577 741 508 778 q 684 638 646 704 q 722 485 722 572 l 722 347 l 246 347 l 246 281 q 292 150 246 197 q 417 103 338 103 q 526 128 483 103 q 578 197 569 153 l 715 197 q 619 43 701 100 q 417 -14 538 -14 m 246 485 l 246 449 l 588 449 l 588 485 q 543 619 588 572 q 417 667 499 667 q 290 619 335 667 q 246 485 246 572 m 574 899 q 506 923 531 899 q 481 989 481 947 q 506 1057 481 1032 q 574 1082 531 1082 q 640 1057 615 1082 q 665 989 665 1032 q 640 923 665 947 q 574 899 615 899 m 260 899 q 193 923 218 899 q 168 989 168 947 q 193 1057 168 1032 q 260 1082 218 1082 q 328 1057 303 1082 q 353 989 353 1032 q 328 923 353 947 q 260 899 303 899 z "},"ė":{"ha":833,"x_min":111,"x_max":722,"o":"m 417 -14 q 195 68 279 -14 q 111 292 111 150 l 111 472 q 195 696 111 614 q 417 778 279 778 q 577 741 508 778 q 684 638 646 704 q 722 485 722 572 l 722 347 l 246 347 l 246 281 q 292 150 246 197 q 417 103 338 103 q 526 128 483 103 q 578 197 569 153 l 715 197 q 619 43 701 100 q 417 -14 538 -14 m 246 485 l 246 449 l 588 449 l 588 485 q 543 619 588 572 q 417 667 499 667 q 290 619 335 667 q 246 485 246 572 m 417 899 q 342 923 369 899 q 314 989 314 947 q 342 1057 314 1032 q 417 1082 369 1082 q 492 1057 464 1082 q 519 989 519 1032 q 492 923 519 947 q 417 899 464 899 z "},"ẹ":{"ha":833,"x_min":111,"x_max":722,"o":"m 417 -14 q 195 68 279 -14 q 111 292 111 150 l 111 472 q 195 696 111 614 q 417 778 279 778 q 577 741 508 778 q 684 638 646 704 q 722 485 722 572 l 722 347 l 246 347 l 246 281 q 292 150 246 197 q 417 103 338 103 q 526 128 483 103 q 578 197 569 153 l 715 197 q 619 43 701 100 q 417 -14 538 -14 m 246 485 l 246 449 l 588 449 l 588 485 q 543 619 588 572 q 417 667 499 667 q 290 619 335 667 q 246 485 246 572 m 417 -300 q 342 -276 369 -300 q 314 -210 314 -251 q 342 -142 314 -167 q 417 -117 369 -117 q 492 -142 464 -117 q 519 -210 519 -167 q 492 -276 519 -251 q 417 -300 464 -300 z "},"è":{"ha":833,"x_min":111,"x_max":722,"o":"m 417 -14 q 195 68 279 -14 q 111 292 111 150 l 111 472 q 195 696 111 614 q 417 778 279 778 q 577 741 508 778 q 684 638 646 704 q 722 485 722 572 l 722 347 l 246 347 l 246 281 q 292 150 246 197 q 417 103 338 103 q 526 128 483 103 q 578 197 569 153 l 715 197 q 619 43 701 100 q 417 -14 538 -14 m 246 485 l 246 449 l 588 449 l 588 485 q 543 619 588 572 q 417 667 499 667 q 290 619 335 667 q 246 485 246 572 m 365 896 l 204 1090 l 357 1090 l 508 896 l 365 896 z "},"ẻ":{"ha":833,"x_min":111,"x_max":722,"o":"m 417 -14 q 195 68 279 -14 q 111 292 111 150 l 111 472 q 195 696 111 614 q 417 778 279 778 q 577 741 508 778 q 684 638 646 704 q 722 485 722 572 l 722 347 l 246 347 l 246 281 q 292 150 246 197 q 417 103 338 103 q 526 128 483 103 q 578 197 569 153 l 715 197 q 619 43 701 100 q 417 -14 538 -14 m 246 485 l 246 449 l 588 449 l 588 485 q 543 619 588 572 q 417 667 499 667 q 290 619 335 667 q 246 485 246 572 m 356 896 l 425 982 q 444 1026 444 1008 q 401 1053 444 1053 l 290 1053 l 290 1147 l 436 1147 q 524 1119 490 1147 q 558 1043 558 1092 q 533 967 558 997 l 479 896 l 356 896 z "},"ē":{"ha":833,"x_min":111,"x_max":722,"o":"m 417 -14 q 195 68 279 -14 q 111 292 111 150 l 111 472 q 195 696 111 614 q 417 778 279 778 q 577 741 508 778 q 684 638 646 704 q 722 485 722 572 l 722 347 l 246 347 l 246 281 q 292 150 246 197 q 417 103 338 103 q 526 128 483 103 q 578 197 569 153 l 715 197 q 619 43 701 100 q 417 -14 538 -14 m 246 485 l 246 449 l 588 449 l 588 485 q 543 619 588 572 q 417 667 499 667 q 290 619 335 667 q 246 485 246 572 m 190 928 l 190 1039 l 643 1039 l 643 928 l 190 928 z "},"ę":{"ha":833,"x_min":117,"x_max":717,"o":"m 515 -286 q 391 -249 438 -286 q 344 -154 344 -211 q 438 -8 344 -83 q 417 -14 429 -14 q 198 67 279 -14 q 117 281 117 147 l 117 485 q 198 697 117 617 q 417 778 279 778 q 635 697 554 778 q 717 485 717 617 l 717 349 l 250 349 l 250 281 q 417 100 250 100 q 576 197 556 100 l 714 197 q 671 93 706 138 q 583 22 636 49 l 554 -3 q 490 -69 510 -39 q 471 -126 471 -100 q 490 -175 471 -156 q 544 -194 510 -194 l 631 -194 l 631 -286 l 515 -286 m 250 485 l 250 447 l 583 447 l 583 485 q 542 619 583 572 q 417 665 500 665 q 292 619 333 665 q 250 485 250 572 z "},"ẽ":{"ha":833,"x_min":111,"x_max":722,"o":"m 417 -14 q 195 68 279 -14 q 111 292 111 150 l 111 472 q 195 696 111 614 q 417 778 279 778 q 577 741 508 778 q 684 638 646 704 q 722 485 722 572 l 722 347 l 246 347 l 246 281 q 292 150 246 197 q 417 103 338 103 q 526 128 483 103 q 578 197 569 153 l 715 197 q 619 43 701 100 q 417 -14 538 -14 m 246 485 l 246 449 l 588 449 l 588 485 q 543 619 588 572 q 417 667 499 667 q 290 619 335 667 q 246 485 246 572 m 514 900 q 446 914 472 900 q 401 947 419 928 q 367 981 383 967 q 326 994 350 994 q 285 947 285 994 l 285 907 l 190 907 l 190 950 q 226 1050 190 1014 q 319 1086 261 1086 q 388 1072 361 1086 q 432 1039 414 1058 q 467 1006 450 1019 q 507 992 483 992 q 549 1039 549 992 l 549 1079 l 643 1079 l 643 1038 q 608 936 643 972 q 514 900 572 900 z "},"ə":{"ha":833,"x_min":119,"x_max":715,"o":"m 417 -14 q 199 67 279 -14 q 119 281 119 147 l 119 415 l 581 415 l 581 485 q 417 664 581 664 q 260 568 279 664 l 122 568 q 216 721 136 664 q 417 778 296 778 q 635 697 554 778 q 715 485 715 617 l 715 281 q 635 67 715 147 q 417 -14 554 -14 m 417 99 q 540 145 500 99 q 581 281 581 192 l 581 317 l 253 317 l 253 281 q 293 145 253 192 q 417 99 333 99 z "},"f":{"ha":833,"x_min":74,"x_max":739,"o":"m 293 0 l 293 535 l 74 535 l 74 660 l 293 660 l 293 814 q 353 960 293 906 q 515 1014 413 1014 l 739 1014 l 739 890 l 515 890 q 431 813 431 890 l 431 660 l 739 660 l 739 535 l 431 535 l 431 0 l 293 0 z "},"g":{"ha":833,"x_min":117,"x_max":710,"o":"m 221 -250 l 221 -128 l 436 -128 q 536 -92 499 -128 q 574 4 574 -57 l 574 68 l 576 200 l 575 200 q 508 90 561 129 q 371 51 454 51 q 185 127 253 51 q 117 335 117 203 l 117 492 q 185 701 117 624 q 371 778 253 778 q 505 739 451 778 q 574 632 558 700 l 575 632 l 575 764 l 710 764 l 710 3 q 636 -182 710 -114 q 436 -250 563 -250 l 221 -250 m 414 167 q 531 213 488 167 q 574 342 574 258 l 574 485 q 531 613 574 567 q 414 658 488 658 q 296 615 338 658 q 254 496 254 571 l 254 329 q 296 210 254 254 q 414 167 338 167 z "},"ǵ":{"ha":833,"x_min":117,"x_max":710,"o":"m 221 -250 l 221 -128 l 436 -128 q 536 -92 499 -128 q 574 4 574 -57 l 574 68 l 576 200 l 575 200 q 508 90 561 129 q 371 51 454 51 q 185 127 253 51 q 117 335 117 203 l 117 492 q 185 701 117 624 q 371 778 253 778 q 505 739 451 778 q 574 632 558 700 l 575 632 l 575 764 l 710 764 l 710 3 q 636 -182 710 -114 q 436 -250 563 -250 l 221 -250 m 414 167 q 531 213 488 167 q 574 342 574 258 l 574 485 q 531 613 574 567 q 414 658 488 658 q 296 615 338 658 q 254 496 254 571 l 254 329 q 296 210 254 254 q 414 167 338 167 m 326 896 l 472 1090 l 621 1090 l 465 896 l 326 896 z "},"ğ":{"ha":833,"x_min":117,"x_max":710,"o":"m 221 -250 l 221 -128 l 436 -128 q 536 -92 499 -128 q 574 4 574 -57 l 574 68 l 576 200 l 575 200 q 508 90 561 129 q 371 51 454 51 q 185 127 253 51 q 117 335 117 203 l 117 492 q 185 701 117 624 q 371 778 253 778 q 505 739 451 778 q 574 632 558 700 l 575 632 l 575 764 l 710 764 l 710 3 q 636 -182 710 -114 q 436 -250 563 -250 l 221 -250 m 414 167 q 531 213 488 167 q 574 342 574 258 l 574 485 q 531 613 574 567 q 414 658 488 658 q 296 615 338 658 q 254 496 254 571 l 254 329 q 296 210 254 254 q 414 167 338 167 m 413 888 q 247 943 310 888 q 185 1090 185 999 l 293 1090 q 326 1007 293 1039 q 411 975 358 975 q 499 1007 465 975 q 532 1090 532 1039 l 640 1090 q 578 943 640 999 q 413 888 515 888 z "},"ǧ":{"ha":833,"x_min":117,"x_max":710,"o":"m 221 -250 l 221 -128 l 436 -128 q 536 -92 499 -128 q 574 4 574 -57 l 574 68 l 576 200 l 575 200 q 508 90 561 129 q 371 51 454 51 q 185 127 253 51 q 117 335 117 203 l 117 492 q 185 701 117 624 q 371 778 253 778 q 505 739 451 778 q 574 632 558 700 l 575 632 l 575 764 l 710 764 l 710 3 q 636 -182 710 -114 q 436 -250 563 -250 l 221 -250 m 414 167 q 531 213 488 167 q 574 342 574 258 l 574 485 q 531 613 574 567 q 414 658 488 658 q 296 615 338 658 q 254 496 254 571 l 254 329 q 296 210 254 254 q 414 167 338 167 m 350 896 l 156 1090 l 301 1090 l 413 983 l 521 1090 l 669 1090 l 476 896 l 350 896 z "},"ĝ":{"ha":833,"x_min":117,"x_max":710,"o":"m 221 -250 l 221 -128 l 436 -128 q 536 -92 499 -128 q 574 4 574 -57 l 574 68 l 576 200 l 575 200 q 508 90 561 129 q 371 51 454 51 q 185 127 253 51 q 117 335 117 203 l 117 492 q 185 701 117 624 q 371 778 253 778 q 505 739 451 778 q 574 632 558 700 l 575 632 l 575 764 l 710 764 l 710 3 q 636 -182 710 -114 q 436 -250 563 -250 l 221 -250 m 414 167 q 531 213 488 167 q 574 342 574 258 l 574 485 q 531 613 574 567 q 414 658 488 658 q 296 615 338 658 q 254 496 254 571 l 254 329 q 296 210 254 254 q 414 167 338 167 m 156 896 l 349 1090 l 475 1090 l 669 896 l 524 896 l 413 1003 l 304 896 l 156 896 z "},"ģ":{"ha":833,"x_min":117,"x_max":710,"o":"m 221 -250 l 221 -128 l 436 -128 q 536 -92 499 -128 q 574 4 574 -57 l 574 68 l 576 200 l 575 200 q 508 90 561 129 q 371 51 454 51 q 185 127 253 51 q 117 335 117 203 l 117 492 q 185 701 117 624 q 371 778 253 778 q 505 739 451 778 q 574 632 558 700 l 575 632 l 575 764 l 710 764 l 710 3 q 636 -182 710 -114 q 436 -250 563 -250 l 221 -250 m 414 167 q 531 213 488 167 q 574 342 574 258 l 574 485 q 531 613 574 567 q 414 658 488 658 q 296 615 338 658 q 254 496 254 571 l 254 329 q 296 210 254 254 q 414 167 338 167 m 578 1222 l 467 896 l 283 896 l 464 1222 l 578 1222 z "},"ġ":{"ha":833,"x_min":117,"x_max":710,"o":"m 221 -250 l 221 -128 l 436 -128 q 536 -92 499 -128 q 574 4 574 -57 l 574 68 l 576 200 l 575 200 q 508 90 561 129 q 371 51 454 51 q 185 127 253 51 q 117 335 117 203 l 117 492 q 185 701 117 624 q 371 778 253 778 q 505 739 451 778 q 574 632 558 700 l 575 632 l 575 764 l 710 764 l 710 3 q 636 -182 710 -114 q 436 -250 563 -250 l 221 -250 m 414 167 q 531 213 488 167 q 574 342 574 258 l 574 485 q 531 613 574 567 q 414 658 488 658 q 296 615 338 658 q 254 496 254 571 l 254 329 q 296 210 254 254 q 414 167 338 167 m 413 899 q 338 923 365 899 q 310 989 310 947 q 338 1057 310 1032 q 413 1082 365 1082 q 488 1057 460 1082 q 515 989 515 1032 q 488 923 515 947 q 413 899 460 899 z "},"h":{"ha":833,"x_min":122,"x_max":714,"o":"m 122 0 l 122 1014 l 260 1014 l 260 764 l 258 618 l 260 618 q 323 735 269 693 q 464 778 376 778 q 646 706 578 778 q 714 511 714 633 l 714 0 l 576 0 l 576 490 q 535 617 576 572 q 421 661 493 661 q 303 615 346 661 q 260 485 260 568 l 260 0 l 122 0 z "},"ħ":{"ha":833,"x_min":0,"x_max":714,"o":"m 0 789 l 0 896 l 122 896 l 122 1014 l 260 1014 l 260 896 l 489 896 l 489 789 l 260 789 l 260 681 l 258 535 l 261 535 q 324 653 271 611 q 464 694 376 694 q 646 622 578 694 q 714 428 714 550 l 714 0 l 576 0 l 576 413 q 535 534 576 490 q 421 578 493 578 q 303 531 346 578 q 260 401 260 485 l 260 0 l 122 0 l 122 789 l 0 789 z "},"ĥ":{"ha":833,"x_min":-65,"x_max":714,"o":"m 122 0 l 122 1014 l 260 1014 l 260 764 l 258 618 l 260 618 q 323 735 269 693 q 464 778 376 778 q 646 706 578 778 q 714 511 714 633 l 714 0 l 576 0 l 576 490 q 535 617 576 572 q 421 661 493 661 q 303 615 346 661 q 260 485 260 568 l 260 0 l 122 0 m -65 1146 l 128 1340 l 254 1340 l 449 1146 l 303 1146 l 192 1253 l 83 1146 l -65 1146 z "},"i":{"ha":833,"x_min":115,"x_max":772,"o":"m 115 0 l 115 125 l 383 125 l 383 639 l 143 639 l 143 764 l 521 764 l 521 125 l 772 125 l 772 0 l 115 0 m 439 899 q 364 923 392 899 q 336 989 336 947 q 364 1057 336 1032 q 439 1082 392 1082 q 514 1057 486 1082 q 542 989 542 1032 q 514 923 542 947 q 439 899 486 899 z "},"ı":{"ha":833,"x_min":115,"x_max":772,"o":"m 115 0 l 115 125 l 383 125 l 383 639 l 143 639 l 143 764 l 521 764 l 521 125 l 772 125 l 772 0 l 115 0 z "},"í":{"ha":833,"x_min":115,"x_max":772,"o":"m 115 0 l 115 125 l 383 125 l 383 639 l 143 639 l 143 764 l 521 764 l 521 125 l 772 125 l 772 0 l 115 0 m 353 896 l 499 1090 l 647 1090 l 492 896 l 353 896 z "},"ĭ":{"ha":833,"x_min":115,"x_max":772,"o":"m 115 0 l 115 125 l 383 125 l 383 639 l 143 639 l 143 764 l 521 764 l 521 125 l 772 125 l 772 0 l 115 0 m 439 888 q 274 943 336 888 q 211 1090 211 999 l 319 1090 q 352 1007 319 1039 q 438 975 385 975 q 525 1007 492 975 q 558 1090 558 1039 l 667 1090 q 604 943 667 999 q 439 888 542 888 z "},"ǐ":{"ha":833,"x_min":115,"x_max":772,"o":"m 115 0 l 115 125 l 383 125 l 383 639 l 143 639 l 143 764 l 521 764 l 521 125 l 772 125 l 772 0 l 115 0 m 376 896 l 182 1090 l 328 1090 l 439 983 l 547 1090 l 696 1090 l 503 896 l 376 896 z "},"î":{"ha":833,"x_min":115,"x_max":772,"o":"m 115 0 l 115 125 l 383 125 l 383 639 l 143 639 l 143 764 l 521 764 l 521 125 l 772 125 l 772 0 l 115 0 m 182 896 l 375 1090 l 501 1090 l 696 896 l 550 896 l 439 1003 l 331 896 l 182 896 z "},"ï":{"ha":833,"x_min":115,"x_max":772,"o":"m 115 0 l 115 125 l 383 125 l 383 639 l 143 639 l 143 764 l 521 764 l 521 125 l 772 125 l 772 0 l 115 0 m 596 899 q 528 923 553 899 q 503 989 503 947 q 528 1057 503 1032 q 596 1082 553 1082 q 663 1057 638 1082 q 688 989 688 1032 q 663 923 688 947 q 596 899 638 899 m 282 899 q 215 923 240 899 q 190 989 190 947 q 215 1057 190 1032 q 282 1082 240 1082 q 350 1057 325 1082 q 375 989 375 1032 q 350 923 375 947 q 282 899 325 899 z "},"ị":{"ha":833,"x_min":115,"x_max":772,"o":"m 115 0 l 115 125 l 383 125 l 383 639 l 143 639 l 143 764 l 521 764 l 521 125 l 772 125 l 772 0 l 115 0 m 439 899 q 364 923 392 899 q 336 989 336 947 q 364 1057 336 1032 q 439 1082 392 1082 q 514 1057 486 1082 q 542 989 542 1032 q 514 923 542 947 q 439 899 486 899 m 439 -300 q 364 -276 392 -300 q 336 -210 336 -251 q 364 -142 336 -167 q 439 -117 392 -117 q 514 -142 486 -117 q 542 -210 542 -167 q 514 -276 542 -251 q 439 -300 486 -300 z "},"ì":{"ha":833,"x_min":115,"x_max":772,"o":"m 115 0 l 115 125 l 383 125 l 383 639 l 143 639 l 143 764 l 521 764 l 521 125 l 772 125 l 772 0 l 115 0 m 388 896 l 226 1090 l 379 1090 l 531 896 l 388 896 z "},"ỉ":{"ha":833,"x_min":115,"x_max":772,"o":"m 115 0 l 115 125 l 383 125 l 383 639 l 143 639 l 143 764 l 521 764 l 521 125 l 772 125 l 772 0 l 115 0 m 378 896 l 447 982 q 467 1026 467 1008 q 424 1053 467 1053 l 313 1053 l 313 1147 l 458 1147 q 547 1119 513 1147 q 581 1043 581 1092 q 556 967 581 997 l 501 896 l 378 896 z "},"ī":{"ha":833,"x_min":115,"x_max":772,"o":"m 115 0 l 115 125 l 383 125 l 383 639 l 143 639 l 143 764 l 521 764 l 521 125 l 772 125 l 772 0 l 115 0 m 213 928 l 213 1039 l 665 1039 l 665 928 l 213 928 z "},"į":{"ha":833,"x_min":115,"x_max":772,"o":"m 439 899 q 364 923 392 899 q 336 989 336 947 q 364 1057 336 1032 q 439 1082 392 1082 q 514 1057 486 1082 q 542 989 542 1032 q 514 923 542 947 q 439 899 486 899 m 115 0 l 115 125 l 383 125 l 383 639 l 143 639 l 143 764 l 521 764 l 521 125 l 772 125 l 772 0 l 488 0 l 485 -3 q 422 -69 442 -39 q 401 -126 401 -100 q 421 -175 401 -156 q 475 -194 440 -194 l 561 -194 l 561 -286 l 446 -286 q 322 -249 368 -286 q 275 -154 275 -211 q 299 -78 275 -117 q 378 0 322 -40 l 115 0 z "},"ĩ":{"ha":833,"x_min":115,"x_max":772,"o":"m 115 0 l 115 125 l 383 125 l 383 639 l 143 639 l 143 764 l 521 764 l 521 125 l 772 125 l 772 0 l 115 0 m 536 900 q 468 914 494 900 q 424 947 442 928 q 389 981 406 967 q 349 994 372 994 q 307 947 307 994 l 307 907 l 213 907 l 213 950 q 248 1050 213 1014 q 342 1086 283 1086 q 410 1072 383 1086 q 454 1039 436 1058 q 489 1006 472 1019 q 529 992 506 992 q 571 1039 571 992 l 571 1079 l 665 1079 l 665 1038 q 630 936 665 972 q 536 900 594 900 z "},"j":{"ha":833,"x_min":115,"x_max":633,"o":"m 122 -250 l 122 -125 l 301 -125 q 428 -80 383 -125 q 474 46 474 -35 l 474 639 l 115 639 l 115 764 l 611 764 l 611 44 q 528 -170 611 -90 q 304 -250 444 -250 l 122 -250 m 531 899 q 456 923 483 899 q 428 989 428 947 q 456 1057 428 1032 q 531 1082 483 1082 q 606 1057 578 1082 q 633 989 633 1032 q 606 923 633 947 q 531 899 578 899 z "},"ȷ":{"ha":833,"x_min":115,"x_max":611,"o":"m 122 -250 l 122 -125 l 301 -125 q 428 -80 383 -125 q 474 46 474 -35 l 474 639 l 115 639 l 115 764 l 611 764 l 611 44 q 528 -170 611 -90 q 304 -250 444 -250 l 122 -250 z "},"ĵ":{"ha":833,"x_min":115,"x_max":788,"o":"m 122 -250 l 122 -125 l 301 -125 q 428 -80 383 -125 q 474 46 474 -35 l 474 639 l 115 639 l 115 764 l 611 764 l 611 44 q 528 -170 611 -90 q 304 -250 444 -250 l 122 -250 m 274 896 l 467 1090 l 593 1090 l 788 896 l 642 896 l 531 1003 l 422 896 l 274 896 z "},"k":{"ha":833,"x_min":129,"x_max":781,"o":"m 129 0 l 129 1014 l 267 1014 l 267 453 l 407 453 l 613 764 l 768 764 l 528 399 l 781 0 l 622 0 l 408 335 l 267 335 l 267 0 l 129 0 z "},"ķ":{"ha":833,"x_min":129,"x_max":781,"o":"m 129 0 l 129 1014 l 267 1014 l 267 453 l 407 453 l 613 764 l 768 764 l 528 399 l 781 0 l 622 0 l 408 335 l 267 335 l 267 0 l 129 0 m 261 -333 l 393 -132 l 549 -132 l 400 -333 l 261 -333 z "},"ĸ":{"ha":833,"x_min":138,"x_max":789,"o":"m 138 0 l 138 764 l 275 764 l 275 454 l 417 454 l 618 764 l 775 764 l 535 397 l 789 0 l 629 0 l 418 329 l 275 329 l 275 0 l 138 0 z "},"l":{"ha":833,"x_min":40,"x_max":767,"o":"m 531 0 q 364 61 426 0 q 301 224 301 122 l 301 889 l 40 889 l 40 1014 l 439 1014 l 439 225 q 465 152 439 179 q 535 125 490 125 l 767 125 l 767 0 l 531 0 z "},"ĺ":{"ha":833,"x_min":40,"x_max":767,"o":"m 531 0 q 364 61 426 0 q 301 224 301 122 l 301 889 l 40 889 l 40 1014 l 439 1014 l 439 225 q 465 152 439 179 q 535 125 490 125 l 767 125 l 767 0 l 531 0 m 254 1125 l 400 1319 l 549 1319 l 393 1125 l 254 1125 z "},"ƛ":{"ha":833,"x_min":64,"x_max":769,"o":"m 64 0 l 349 753 l 347 758 l 125 647 l 125 764 l 308 856 l 246 1014 l 392 1014 l 429 915 l 653 1028 l 653 911 l 465 818 l 769 0 l 624 0 l 450 483 q 424 568 433 529 q 410 628 415 607 q 403 568 410 607 q 382 483 397 529 l 213 0 l 64 0 z "},"ľ":{"ha":833,"x_min":40,"x_max":767,"o":"m 531 0 q 364 61 426 0 q 301 224 301 122 l 301 889 l 40 889 l 40 1014 l 439 1014 l 439 225 q 465 152 439 179 q 535 125 490 125 l 767 125 l 767 0 l 531 0 m 572 764 l 593 1014 l 718 1014 l 685 764 l 572 764 z "},"ļ":{"ha":833,"x_min":40,"x_max":767,"o":"m 531 0 q 364 61 426 0 q 301 224 301 122 l 301 889 l 40 889 l 40 1014 l 439 1014 l 439 225 q 465 152 439 179 q 535 125 490 125 l 767 125 l 767 0 l 531 0 m 289 -333 l 421 -132 l 576 -132 l 428 -333 l 289 -333 z "},"ŀ":{"ha":833,"x_min":13,"x_max":882,"o":"m 503 0 q 336 61 399 0 q 274 224 274 122 l 274 889 l 13 889 l 13 1014 l 411 1014 l 411 225 q 437 152 411 179 q 507 125 463 125 l 739 125 l 739 0 l 503 0 m 764 368 q 678 400 711 368 q 646 482 646 432 q 678 568 646 535 q 764 601 711 601 q 849 568 817 601 q 882 482 882 535 q 849 400 882 432 q 764 368 817 368 z "},"ł":{"ha":833,"x_min":40,"x_max":767,"o":"m 139 319 l 139 443 l 301 549 l 301 889 l 40 889 l 40 1014 l 439 1014 l 439 638 l 656 778 l 656 654 l 439 514 l 439 225 q 465 152 439 179 q 535 125 490 125 l 767 125 l 767 0 l 531 0 q 364 61 426 0 q 301 224 301 122 l 301 425 l 139 319 z "},"m":{"ha":833,"x_min":79,"x_max":754,"o":"m 79 0 l 79 764 l 196 764 l 196 660 l 200 660 q 240 745 206 713 q 326 778 274 778 q 413 747 378 778 q 463 665 447 717 l 463 665 q 506 748 471 718 q 593 778 540 778 q 710 723 665 778 q 754 581 754 668 l 754 0 l 629 0 l 629 579 q 608 648 629 622 q 550 674 586 674 q 493 649 514 674 q 472 579 472 624 l 472 0 l 361 0 l 361 579 q 340 648 361 622 q 283 674 319 674 q 226 649 247 674 q 204 579 204 624 l 204 0 l 79 0 z "},"n":{"ha":833,"x_min":122,"x_max":714,"o":"m 122 0 l 122 764 l 258 764 l 258 618 l 260 618 q 323 735 269 693 q 464 778 376 778 q 646 706 578 778 q 714 511 714 633 l 714 0 l 576 0 l 576 489 q 535 617 576 572 q 421 661 493 661 q 303 615 346 661 q 260 485 260 568 l 260 0 l 122 0 z "},"ń":{"ha":833,"x_min":122,"x_max":714,"o":"m 122 0 l 122 764 l 258 764 l 258 618 l 260 618 q 323 735 269 693 q 464 778 376 778 q 646 706 578 778 q 714 511 714 633 l 714 0 l 576 0 l 576 489 q 535 617 576 572 q 421 661 493 661 q 303 615 346 661 q 260 485 260 568 l 260 0 l 122 0 m 338 896 l 483 1090 l 632 1090 l 476 896 l 338 896 z "},"ŉ":{"ha":833,"x_min":-17,"x_max":714,"o":"m 122 0 l 122 764 l 258 764 l 258 618 l 260 618 q 323 735 269 693 q 464 778 376 778 q 646 706 578 778 q 714 511 714 633 l 714 0 l 576 0 l 576 489 q 535 617 576 572 q 421 661 493 661 q 303 615 346 661 q 260 485 260 568 l 260 0 l 122 0 m -17 896 l 115 1097 l 271 1097 l 122 896 l -17 896 z "},"ň":{"ha":833,"x_min":122,"x_max":714,"o":"m 122 0 l 122 764 l 258 764 l 258 618 l 260 618 q 323 735 269 693 q 464 778 376 778 q 646 706 578 778 q 714 511 714 633 l 714 0 l 576 0 l 576 489 q 535 617 576 572 q 421 661 493 661 q 303 615 346 661 q 260 485 260 568 l 260 0 l 122 0 m 361 896 l 167 1090 l 313 1090 l 424 983 l 532 1090 l 681 1090 l 488 896 l 361 896 z "},"ņ":{"ha":833,"x_min":122,"x_max":714,"o":"m 122 0 l 122 764 l 258 764 l 258 618 l 260 618 q 323 735 269 693 q 464 778 376 778 q 646 706 578 778 q 714 511 714 633 l 714 0 l 576 0 l 576 489 q 535 617 576 572 q 421 661 493 661 q 303 615 346 661 q 260 485 260 568 l 260 0 l 122 0 m 261 -333 l 393 -132 l 549 -132 l 400 -333 l 261 -333 z "},"ŋ":{"ha":833,"x_min":125,"x_max":711,"o":"m 335 -250 l 335 -124 l 421 -124 q 533 -83 492 -124 q 574 26 574 -43 l 574 496 q 533 617 574 574 q 421 661 493 661 q 304 615 346 661 q 263 485 263 568 l 263 0 l 125 0 l 125 764 l 261 764 l 261 618 l 263 618 q 324 736 272 694 q 464 778 376 778 q 644 706 578 778 q 711 511 711 633 l 711 24 q 675 -121 711 -60 q 573 -216 639 -182 q 419 -250 507 -250 l 335 -250 z "},"ñ":{"ha":833,"x_min":122,"x_max":714,"o":"m 122 0 l 122 764 l 258 764 l 258 618 l 260 618 q 323 735 269 693 q 464 778 376 778 q 646 706 578 778 q 714 511 714 633 l 714 0 l 576 0 l 576 489 q 535 617 576 572 q 421 661 493 661 q 303 615 346 661 q 260 485 260 568 l 260 0 l 122 0 m 521 900 q 453 914 479 900 q 408 947 426 928 q 374 981 390 967 q 333 994 357 994 q 292 947 292 994 l 292 907 l 197 907 l 197 950 q 233 1050 197 1014 q 326 1086 268 1086 q 394 1072 368 1086 q 439 1039 421 1058 q 474 1006 457 1019 q 514 992 490 992 q 556 1039 556 992 l 556 1079 l 650 1079 l 650 1038 q 615 936 650 972 q 521 900 579 900 z "},"o":{"ha":833,"x_min":111,"x_max":722,"o":"m 417 -11 q 194 69 276 -11 q 111 294 111 150 l 111 469 q 194 694 111 614 q 417 775 276 775 q 640 694 557 775 q 722 469 722 614 l 722 294 q 640 69 722 150 q 417 -11 557 -11 m 417 110 q 540 153 494 110 q 585 282 585 197 l 585 482 q 540 610 585 567 q 417 654 494 654 q 294 610 339 654 q 249 482 249 567 l 249 282 q 294 153 249 197 q 417 110 339 110 z "},"ó":{"ha":833,"x_min":111,"x_max":722,"o":"m 417 -11 q 194 69 276 -11 q 111 294 111 150 l 111 469 q 194 694 111 614 q 417 775 276 775 q 640 694 557 775 q 722 469 722 614 l 722 294 q 640 69 722 150 q 417 -11 557 -11 m 417 110 q 540 153 494 110 q 585 282 585 197 l 585 482 q 540 610 585 567 q 417 654 494 654 q 294 610 339 654 q 249 482 249 567 l 249 282 q 294 153 249 197 q 417 110 339 110 m 331 896 l 476 1090 l 625 1090 l 469 896 l 331 896 z "},"ŏ":{"ha":833,"x_min":111,"x_max":722,"o":"m 417 -11 q 194 69 276 -11 q 111 294 111 150 l 111 469 q 194 694 111 614 q 417 775 276 775 q 640 694 557 775 q 722 469 722 614 l 722 294 q 640 69 722 150 q 417 -11 557 -11 m 417 110 q 540 153 494 110 q 585 282 585 197 l 585 482 q 540 610 585 567 q 417 654 494 654 q 294 610 339 654 q 249 482 249 567 l 249 282 q 294 153 249 197 q 417 110 339 110 m 417 888 q 251 943 314 888 q 189 1090 189 999 l 297 1090 q 330 1007 297 1039 q 415 975 363 975 q 503 1007 469 975 q 536 1090 536 1039 l 644 1090 q 582 943 644 999 q 417 888 519 888 z "},"ǒ":{"ha":833,"x_min":111,"x_max":722,"o":"m 417 -11 q 194 69 276 -11 q 111 294 111 150 l 111 469 q 194 694 111 614 q 417 775 276 775 q 640 694 557 775 q 722 469 722 614 l 722 294 q 640 69 722 150 q 417 -11 557 -11 m 417 110 q 540 153 494 110 q 585 282 585 197 l 585 482 q 540 610 585 567 q 417 654 494 654 q 294 610 339 654 q 249 482 249 567 l 249 282 q 294 153 249 197 q 417 110 339 110 m 354 896 l 160 1090 l 306 1090 l 417 983 l 525 1090 l 674 1090 l 481 896 l 354 896 z "},"ô":{"ha":833,"x_min":111,"x_max":722,"o":"m 417 -11 q 194 69 276 -11 q 111 294 111 150 l 111 469 q 194 694 111 614 q 417 775 276 775 q 640 694 557 775 q 722 469 722 614 l 722 294 q 640 69 722 150 q 417 -11 557 -11 m 417 110 q 540 153 494 110 q 585 282 585 197 l 585 482 q 540 610 585 567 q 417 654 494 654 q 294 610 339 654 q 249 482 249 567 l 249 282 q 294 153 249 197 q 417 110 339 110 m 160 896 l 353 1090 l 479 1090 l 674 896 l 528 896 l 417 1003 l 308 896 l 160 896 z "},"ố":{"ha":833,"x_min":111,"x_max":881,"o":"m 417 -11 q 194 69 276 -11 q 111 294 111 150 l 111 469 q 194 694 111 614 q 417 775 276 775 q 640 694 557 775 q 722 469 722 614 l 722 294 q 640 69 722 150 q 417 -11 557 -11 m 417 110 q 540 153 494 110 q 585 282 585 197 l 585 482 q 540 610 585 567 q 417 654 494 654 q 294 610 339 654 q 249 482 249 567 l 249 282 q 294 153 249 197 q 417 110 339 110 m 572 1056 l 732 1250 l 881 1250 l 713 1056 l 572 1056 m 161 896 l 353 1090 l 481 1090 l 674 896 l 525 896 l 417 1003 l 307 896 l 161 896 z "},"ộ":{"ha":833,"x_min":111,"x_max":722,"o":"m 417 -11 q 194 69 276 -11 q 111 294 111 150 l 111 469 q 194 694 111 614 q 417 775 276 775 q 640 694 557 775 q 722 469 722 614 l 722 294 q 640 69 722 150 q 417 -11 557 -11 m 417 110 q 540 153 494 110 q 585 282 585 197 l 585 482 q 540 610 585 567 q 417 654 494 654 q 294 610 339 654 q 249 482 249 567 l 249 282 q 294 153 249 197 q 417 110 339 110 m 417 -300 q 342 -276 369 -300 q 314 -210 314 -251 q 342 -142 314 -167 q 417 -117 369 -117 q 492 -142 464 -117 q 519 -210 519 -167 q 492 -276 519 -251 q 417 -300 464 -300 m 160 896 l 353 1090 l 479 1090 l 674 896 l 528 896 l 417 1003 l 308 896 l 160 896 z "},"ồ":{"ha":833,"x_min":111,"x_max":771,"o":"m 417 -11 q 194 69 276 -11 q 111 294 111 150 l 111 469 q 194 694 111 614 q 417 775 276 775 q 640 694 557 775 q 722 469 722 614 l 722 294 q 640 69 722 150 q 417 -11 557 -11 m 417 110 q 540 153 494 110 q 585 282 585 197 l 585 482 q 540 610 585 567 q 417 654 494 654 q 294 610 339 654 q 249 482 249 567 l 249 282 q 294 153 249 197 q 417 110 339 110 m 631 1056 l 450 1250 l 599 1250 l 771 1056 l 631 1056 m 161 896 l 353 1090 l 481 1090 l 674 896 l 525 896 l 417 1003 l 307 896 l 161 896 z "},"ổ":{"ha":833,"x_min":111,"x_max":772,"o":"m 417 -11 q 194 69 276 -11 q 111 294 111 150 l 111 469 q 194 694 111 614 q 417 775 276 775 q 640 694 557 775 q 722 469 722 614 l 722 294 q 640 69 722 150 q 417 -11 557 -11 m 417 110 q 540 153 494 110 q 585 282 585 197 l 585 482 q 540 610 585 567 q 417 654 494 654 q 294 610 339 654 q 249 482 249 567 l 249 282 q 294 153 249 197 q 417 110 339 110 m 588 1056 l 651 1140 q 665 1174 665 1160 q 621 1207 665 1207 l 546 1207 l 546 1296 l 632 1296 q 734 1267 696 1296 q 772 1189 772 1238 q 747 1124 772 1157 l 699 1056 l 588 1056 m 161 896 l 353 1090 l 481 1090 l 674 896 l 525 896 l 417 1003 l 307 896 l 161 896 z "},"ỗ":{"ha":833,"x_min":111,"x_max":722,"o":"m 417 -11 q 194 69 276 -11 q 111 294 111 150 l 111 469 q 194 694 111 614 q 417 775 276 775 q 640 694 557 775 q 722 469 722 614 l 722 294 q 640 69 722 150 q 417 -11 557 -11 m 417 110 q 540 153 494 110 q 585 282 585 197 l 585 482 q 540 610 585 567 q 417 654 494 654 q 294 610 339 654 q 249 482 249 567 l 249 282 q 294 153 249 197 q 417 110 339 110 m 510 1131 q 440 1144 465 1131 q 397 1174 414 1157 q 365 1205 381 1192 q 326 1218 350 1218 q 285 1175 285 1218 l 285 1142 l 190 1142 l 190 1169 q 227 1263 190 1228 q 324 1297 264 1297 q 394 1284 368 1297 q 437 1254 421 1271 q 468 1224 453 1238 q 507 1211 483 1211 q 549 1253 549 1211 l 549 1288 l 643 1288 l 643 1258 q 606 1166 643 1201 q 510 1131 569 1131 m 161 896 l 353 1090 l 481 1090 l 674 896 l 525 896 l 417 1003 l 307 896 l 161 896 z "},"ö":{"ha":833,"x_min":111,"x_max":722,"o":"m 417 -11 q 194 69 276 -11 q 111 294 111 150 l 111 469 q 194 694 111 614 q 417 775 276 775 q 640 694 557 775 q 722 469 722 614 l 722 294 q 640 69 722 150 q 417 -11 557 -11 m 417 110 q 540 153 494 110 q 585 282 585 197 l 585 482 q 540 610 585 567 q 417 654 494 654 q 294 610 339 654 q 249 482 249 567 l 249 282 q 294 153 249 197 q 417 110 339 110 m 574 899 q 506 923 531 899 q 481 989 481 947 q 506 1057 481 1032 q 574 1082 531 1082 q 640 1057 615 1082 q 665 989 665 1032 q 640 923 665 947 q 574 899 615 899 m 260 899 q 193 923 218 899 q 168 989 168 947 q 193 1057 168 1032 q 260 1082 218 1082 q 328 1057 303 1082 q 353 989 353 1032 q 328 923 353 947 q 260 899 303 899 z "},"ọ":{"ha":833,"x_min":111,"x_max":722,"o":"m 417 -11 q 194 69 276 -11 q 111 294 111 150 l 111 469 q 194 694 111 614 q 417 775 276 775 q 640 694 557 775 q 722 469 722 614 l 722 294 q 640 69 722 150 q 417 -11 557 -11 m 417 110 q 540 153 494 110 q 585 282 585 197 l 585 482 q 540 610 585 567 q 417 654 494 654 q 294 610 339 654 q 249 482 249 567 l 249 282 q 294 153 249 197 q 417 110 339 110 m 417 -300 q 342 -276 369 -300 q 314 -210 314 -251 q 342 -142 314 -167 q 417 -117 369 -117 q 492 -142 464 -117 q 519 -210 519 -167 q 492 -276 519 -251 q 417 -300 464 -300 z "},"ò":{"ha":833,"x_min":111,"x_max":722,"o":"m 417 -11 q 194 69 276 -11 q 111 294 111 150 l 111 469 q 194 694 111 614 q 417 775 276 775 q 640 694 557 775 q 722 469 722 614 l 722 294 q 640 69 722 150 q 417 -11 557 -11 m 417 110 q 540 153 494 110 q 585 282 585 197 l 585 482 q 540 610 585 567 q 417 654 494 654 q 294 610 339 654 q 249 482 249 567 l 249 282 q 294 153 249 197 q 417 110 339 110 m 365 896 l 204 1090 l 357 1090 l 508 896 l 365 896 z "},"ỏ":{"ha":833,"x_min":111,"x_max":722,"o":"m 417 -11 q 194 69 276 -11 q 111 294 111 150 l 111 469 q 194 694 111 614 q 417 775 276 775 q 640 694 557 775 q 722 469 722 614 l 722 294 q 640 69 722 150 q 417 -11 557 -11 m 417 110 q 540 153 494 110 q 585 282 585 197 l 585 482 q 540 610 585 567 q 417 654 494 654 q 294 610 339 654 q 249 482 249 567 l 249 282 q 294 153 249 197 q 417 110 339 110 m 356 896 l 425 982 q 444 1026 444 1008 q 401 1053 444 1053 l 290 1053 l 290 1147 l 436 1147 q 524 1119 490 1147 q 558 1043 558 1092 q 533 967 558 997 l 479 896 l 356 896 z "},"ơ":{"ha":833,"x_min":111,"x_max":758,"o":"m 417 -11 q 194 69 276 -11 q 111 294 111 150 l 111 469 q 194 694 111 614 q 417 775 276 775 q 585 736 514 775 l 596 736 q 644 785 644 736 l 644 889 l 758 889 l 758 779 q 736 700 758 733 q 675 651 714 667 q 722 469 722 578 l 722 294 q 640 69 722 150 q 417 -11 557 -11 m 417 110 q 540 153 494 110 q 585 282 585 197 l 585 482 q 540 610 585 567 q 417 654 494 654 q 294 610 339 654 q 249 482 249 567 l 249 282 q 294 153 249 197 q 417 110 339 110 z "},"ớ":{"ha":833,"x_min":111,"x_max":758,"o":"m 417 -11 q 194 69 276 -11 q 111 294 111 150 l 111 469 q 194 694 111 614 q 417 775 276 775 q 585 736 514 775 l 596 736 q 644 785 644 736 l 644 889 l 758 889 l 758 779 q 736 700 758 733 q 675 651 714 667 q 722 469 722 578 l 722 294 q 640 69 722 150 q 417 -11 557 -11 m 417 110 q 540 153 494 110 q 585 282 585 197 l 585 482 q 540 610 585 567 q 417 654 494 654 q 294 610 339 654 q 249 482 249 567 l 249 282 q 294 153 249 197 q 417 110 339 110 m 317 896 l 463 1090 l 611 1090 l 456 896 l 317 896 z "},"ợ":{"ha":833,"x_min":111,"x_max":758,"o":"m 417 -11 q 194 69 276 -11 q 111 294 111 150 l 111 469 q 194 694 111 614 q 417 775 276 775 q 585 736 514 775 l 596 736 q 644 785 644 736 l 644 889 l 758 889 l 758 779 q 736 700 758 733 q 675 651 714 667 q 722 469 722 578 l 722 294 q 640 69 722 150 q 417 -11 557 -11 m 417 110 q 540 153 494 110 q 585 282 585 197 l 585 482 q 540 610 585 567 q 417 654 494 654 q 294 610 339 654 q 249 482 249 567 l 249 282 q 294 153 249 197 q 417 110 339 110 m 417 -300 q 342 -276 369 -300 q 314 -210 314 -251 q 342 -142 314 -167 q 417 -117 369 -117 q 492 -142 464 -117 q 519 -210 519 -167 q 492 -276 519 -251 q 417 -300 464 -300 z "},"ờ":{"ha":833,"x_min":111,"x_max":758,"o":"m 417 -11 q 194 69 276 -11 q 111 294 111 150 l 111 469 q 194 694 111 614 q 417 775 276 775 q 585 736 514 775 l 596 736 q 644 785 644 736 l 644 889 l 758 889 l 758 779 q 736 700 758 733 q 675 651 714 667 q 722 469 722 578 l 722 294 q 640 69 722 150 q 417 -11 557 -11 m 417 110 q 540 153 494 110 q 585 282 585 197 l 585 482 q 540 610 585 567 q 417 654 494 654 q 294 610 339 654 q 249 482 249 567 l 249 282 q 294 153 249 197 q 417 110 339 110 m 351 896 l 190 1090 l 343 1090 l 494 896 l 351 896 z "},"ở":{"ha":833,"x_min":111,"x_max":758,"o":"m 417 -11 q 194 69 276 -11 q 111 294 111 150 l 111 469 q 194 694 111 614 q 417 775 276 775 q 585 736 514 775 l 596 736 q 644 785 644 736 l 644 889 l 758 889 l 758 779 q 736 700 758 733 q 675 651 714 667 q 722 469 722 578 l 722 294 q 640 69 722 150 q 417 -11 557 -11 m 417 110 q 540 153 494 110 q 585 282 585 197 l 585 482 q 540 610 585 567 q 417 654 494 654 q 294 610 339 654 q 249 482 249 567 l 249 282 q 294 153 249 197 q 417 110 339 110 m 342 896 l 411 982 q 431 1026 431 1008 q 388 1053 431 1053 l 276 1053 l 276 1147 l 422 1147 q 510 1119 476 1147 q 544 1043 544 1092 q 519 967 544 997 l 465 896 l 342 896 z "},"ỡ":{"ha":833,"x_min":111,"x_max":758,"o":"m 417 -11 q 194 69 276 -11 q 111 294 111 150 l 111 469 q 194 694 111 614 q 417 775 276 775 q 585 736 514 775 l 596 736 q 644 785 644 736 l 644 889 l 758 889 l 758 779 q 736 700 758 733 q 675 651 714 667 q 722 469 722 578 l 722 294 q 640 69 722 150 q 417 -11 557 -11 m 417 110 q 540 153 494 110 q 585 282 585 197 l 585 482 q 540 610 585 567 q 417 654 494 654 q 294 610 339 654 q 249 482 249 567 l 249 282 q 294 153 249 197 q 417 110 339 110 m 500 900 q 432 914 458 900 q 388 947 406 928 q 353 981 369 967 q 313 994 336 994 q 271 947 271 994 l 271 907 l 176 907 l 176 950 q 212 1050 176 1014 q 306 1086 247 1086 q 374 1072 347 1086 q 418 1039 400 1058 q 453 1006 436 1019 q 493 992 469 992 q 535 1039 535 992 l 535 1079 l 629 1079 l 629 1038 q 594 936 629 972 q 500 900 558 900 z "},"ő":{"ha":833,"x_min":111,"x_max":742,"o":"m 417 -11 q 194 69 276 -11 q 111 294 111 150 l 111 469 q 194 694 111 614 q 417 775 276 775 q 640 694 557 775 q 722 469 722 614 l 722 294 q 640 69 722 150 q 417 -11 557 -11 m 417 110 q 540 153 494 110 q 585 282 585 197 l 585 482 q 540 610 585 567 q 417 654 494 654 q 294 610 339 654 q 249 482 249 567 l 249 282 q 294 153 249 197 q 417 110 339 110 m 451 896 l 604 1090 l 742 1090 l 582 896 l 451 896 m 196 896 l 347 1090 l 486 1090 l 326 896 l 196 896 z "},"ō":{"ha":833,"x_min":111,"x_max":722,"o":"m 417 -11 q 194 69 276 -11 q 111 294 111 150 l 111 469 q 194 694 111 614 q 417 775 276 775 q 640 694 557 775 q 722 469 722 614 l 722 294 q 640 69 722 150 q 417 -11 557 -11 m 417 110 q 540 153 494 110 q 585 282 585 197 l 585 482 q 540 610 585 567 q 417 654 494 654 q 294 610 339 654 q 249 482 249 567 l 249 282 q 294 153 249 197 q 417 110 339 110 m 190 928 l 190 1039 l 643 1039 l 643 928 l 190 928 z "},"ǫ":{"ha":833,"x_min":117,"x_max":717,"o":"m 514 -286 q 390 -249 436 -286 q 343 -154 343 -211 q 364 -85 343 -121 q 438 -7 385 -50 q 417 -14 428 -14 q 197 65 278 -14 q 117 281 117 143 l 117 485 q 197 699 117 621 q 417 778 278 778 q 636 699 556 778 q 717 485 717 621 l 717 281 q 684 131 717 194 q 593 32 651 68 l 553 -3 q 489 -69 508 -39 q 469 -126 469 -100 q 489 -175 469 -156 q 543 -194 508 -194 l 629 -194 l 629 -286 l 514 -286 m 417 108 q 537 152 494 108 q 579 281 579 196 l 579 485 q 537 613 579 568 q 417 657 494 657 q 297 613 339 657 q 254 485 254 568 l 254 281 q 297 152 254 196 q 417 108 339 108 z "},"ø":{"ha":833,"x_min":47,"x_max":788,"o":"m 47 -42 l 157 115 q 117 281 117 185 l 117 485 q 197 699 117 621 q 417 778 278 778 q 594 732 521 778 l 656 819 l 788 819 l 671 657 q 717 485 717 586 l 717 281 q 636 65 717 143 q 417 -14 556 -14 q 232 36 307 -14 l 176 -42 l 47 -42 m 246 281 q 249 244 246 261 l 521 629 q 417 657 479 657 q 291 611 336 657 q 246 485 246 565 l 246 281 m 417 108 q 542 153 497 108 q 588 281 588 199 l 588 483 q 583 532 588 510 l 306 140 q 417 108 349 108 z "},"ǿ":{"ha":833,"x_min":47,"x_max":788,"o":"m 47 -42 l 157 115 q 117 281 117 185 l 117 485 q 197 699 117 621 q 417 778 278 778 q 594 732 521 778 l 656 819 l 788 819 l 671 657 q 717 485 717 586 l 717 281 q 636 65 717 143 q 417 -14 556 -14 q 232 36 307 -14 l 176 -42 l 47 -42 m 246 281 q 249 244 246 261 l 521 629 q 417 657 479 657 q 291 611 336 657 q 246 485 246 565 l 246 281 m 417 108 q 542 153 497 108 q 588 281 588 199 l 588 483 q 583 532 588 510 l 306 140 q 417 108 349 108 m 331 896 l 476 1090 l 625 1090 l 469 896 l 331 896 z "},"õ":{"ha":833,"x_min":111,"x_max":722,"o":"m 417 -11 q 194 69 276 -11 q 111 294 111 150 l 111 469 q 194 694 111 614 q 417 775 276 775 q 640 694 557 775 q 722 469 722 614 l 722 294 q 640 69 722 150 q 417 -11 557 -11 m 417 110 q 540 153 494 110 q 585 282 585 197 l 585 482 q 540 610 585 567 q 417 654 494 654 q 294 610 339 654 q 249 482 249 567 l 249 282 q 294 153 249 197 q 417 110 339 110 m 514 900 q 446 914 472 900 q 401 947 419 928 q 367 981 383 967 q 326 994 350 994 q 285 947 285 994 l 285 907 l 190 907 l 190 950 q 226 1050 190 1014 q 319 1086 261 1086 q 388 1072 361 1086 q 432 1039 414 1058 q 467 1006 450 1019 q 507 992 483 992 q 549 1039 549 992 l 549 1079 l 643 1079 l 643 1038 q 608 936 643 972 q 514 900 572 900 z "},"œ":{"ha":833,"x_min":49,"x_max":785,"o":"m 250 -14 q 103 46 157 -14 q 49 207 49 106 l 49 558 q 103 718 49 658 q 250 778 157 778 q 340 760 306 778 q 393 717 375 742 q 414 668 411 692 l 419 668 q 440 717 422 692 q 492 760 457 742 q 583 778 528 778 q 731 718 676 778 q 785 558 785 658 l 785 347 l 479 347 l 479 207 q 503 126 479 156 q 568 97 528 97 q 627 119 603 97 q 657 176 651 140 l 781 176 q 716 38 769 89 q 583 -14 663 -14 q 492 4 528 -14 q 440 47 457 22 q 419 96 422 72 l 414 96 q 393 47 411 72 q 340 4 375 22 q 250 -14 306 -14 m 265 97 q 330 126 306 97 q 354 207 354 156 l 354 558 q 330 638 354 608 q 265 667 306 667 q 198 638 222 667 q 174 558 174 608 l 174 207 q 198 126 174 156 q 265 97 222 97 m 479 450 l 661 450 l 661 558 q 636 638 661 608 q 568 667 611 667 q 503 638 528 667 q 479 558 479 608 l 479 450 z "},"p":{"ha":833,"x_min":122,"x_max":718,"o":"m 122 -250 l 122 764 l 258 764 l 258 617 l 260 617 q 326 735 271 692 q 468 778 382 778 q 650 701 582 778 q 718 492 718 624 l 718 274 q 650 63 718 140 q 468 -14 582 -14 q 328 29 383 -14 q 260 147 272 72 l 257 147 l 260 -29 l 260 -250 l 122 -250 m 419 106 q 538 145 496 106 q 581 274 581 185 l 581 490 q 538 619 581 579 q 419 658 496 658 q 303 613 346 658 q 260 483 260 567 l 260 281 q 303 151 260 197 q 419 106 346 106 z "},"þ":{"ha":833,"x_min":117,"x_max":713,"o":"m 117 -236 l 117 1014 l 254 1014 l 254 794 l 250 617 l 251 617 q 320 735 264 692 q 461 778 376 778 q 644 701 576 778 q 713 492 713 624 l 713 272 q 644 63 713 140 q 461 -14 575 -14 q 321 29 376 -14 q 253 149 265 72 l 253 149 l 253 -236 l 117 -236 m 414 106 q 533 145 490 106 q 575 274 575 185 l 575 490 q 533 619 575 579 q 414 658 490 658 q 297 613 339 658 q 254 483 254 567 l 254 281 q 297 151 254 197 q 414 106 339 106 z "},"q":{"ha":833,"x_min":115,"x_max":711,"o":"m 574 -250 l 574 -29 l 576 144 l 574 144 q 505 28 560 71 q 367 -14 450 -14 q 183 63 251 -14 q 115 274 115 140 l 115 492 q 183 701 115 624 q 367 778 251 778 q 507 735 451 778 q 575 617 563 692 l 575 617 l 575 764 l 711 764 l 711 -250 l 574 -250 m 414 106 q 531 151 488 106 q 574 281 574 197 l 574 483 q 531 613 574 567 q 414 658 488 658 q 295 619 338 658 q 253 496 253 581 l 253 268 q 295 144 253 183 q 414 106 338 106 z "},"r":{"ha":833,"x_min":150,"x_max":743,"o":"m 150 0 l 150 764 l 286 764 l 286 617 l 288 617 q 352 735 299 692 q 494 778 406 778 q 678 705 613 778 q 743 500 743 632 l 743 433 l 606 433 l 606 499 q 449 658 606 658 q 328 613 369 658 q 288 482 288 567 l 288 0 l 150 0 z "},"ŕ":{"ha":833,"x_min":150,"x_max":743,"o":"m 150 0 l 150 764 l 286 764 l 286 617 l 288 617 q 352 735 299 692 q 494 778 406 778 q 678 705 613 778 q 743 500 743 632 l 743 433 l 606 433 l 606 499 q 449 658 606 658 q 328 613 369 658 q 288 482 288 567 l 288 0 l 150 0 m 358 896 l 504 1090 l 653 1090 l 497 896 l 358 896 z "},"ř":{"ha":833,"x_min":150,"x_max":743,"o":"m 150 0 l 150 764 l 286 764 l 286 617 l 288 617 q 352 735 299 692 q 494 778 406 778 q 678 705 613 778 q 743 500 743 632 l 743 433 l 606 433 l 606 499 q 449 658 606 658 q 328 613 369 658 q 288 482 288 567 l 288 0 l 150 0 m 382 896 l 188 1090 l 333 1090 l 444 983 l 553 1090 l 701 1090 l 508 896 l 382 896 z "},"ŗ":{"ha":833,"x_min":46,"x_max":743,"o":"m 150 0 l 150 764 l 286 764 l 286 617 l 288 617 q 352 735 299 692 q 494 778 406 778 q 678 705 613 778 q 743 500 743 632 l 743 433 l 606 433 l 606 499 q 449 658 606 658 q 328 613 369 658 q 288 482 288 567 l 288 0 l 150 0 m 46 -333 l 178 -132 l 333 -132 l 185 -333 l 46 -333 z "},"s":{"ha":833,"x_min":111,"x_max":722,"o":"m 386 -11 q 183 47 256 -11 q 111 211 111 106 l 247 211 q 284 133 247 161 q 386 104 321 104 l 447 104 q 552 133 515 104 q 589 215 589 163 q 497 319 589 308 l 292 349 q 165 416 210 361 q 121 558 121 471 q 190 718 121 661 q 385 775 260 775 l 446 775 q 635 719 563 775 q 711 572 707 664 l 572 572 q 536 637 569 611 q 446 663 503 663 l 385 663 q 288 635 322 663 q 254 560 254 607 q 331 474 254 483 l 524 446 q 722 215 722 419 q 651 48 722 107 q 447 -11 579 -11 l 386 -11 z "},"ś":{"ha":833,"x_min":111,"x_max":722,"o":"m 386 -11 q 183 47 256 -11 q 111 211 111 106 l 247 211 q 284 133 247 161 q 386 104 321 104 l 447 104 q 552 133 515 104 q 589 215 589 163 q 497 319 589 308 l 292 349 q 165 416 210 361 q 121 558 121 471 q 190 718 121 661 q 385 775 260 775 l 446 775 q 635 719 563 775 q 711 572 707 664 l 572 572 q 536 637 569 611 q 446 663 503 663 l 385 663 q 288 635 322 663 q 254 560 254 607 q 331 474 254 483 l 524 446 q 722 215 722 419 q 651 48 722 107 q 447 -11 579 -11 l 386 -11 m 331 896 l 476 1090 l 625 1090 l 469 896 l 331 896 z "},"š":{"ha":833,"x_min":111,"x_max":722,"o":"m 386 -11 q 183 47 256 -11 q 111 211 111 106 l 247 211 q 284 133 247 161 q 386 104 321 104 l 447 104 q 552 133 515 104 q 589 215 589 163 q 497 319 589 308 l 292 349 q 165 416 210 361 q 121 558 121 471 q 190 718 121 661 q 385 775 260 775 l 446 775 q 635 719 563 775 q 711 572 707 664 l 572 572 q 536 637 569 611 q 446 663 503 663 l 385 663 q 288 635 322 663 q 254 560 254 607 q 331 474 254 483 l 524 446 q 722 215 722 419 q 651 48 722 107 q 447 -11 579 -11 l 386 -11 m 354 896 l 160 1090 l 306 1090 l 417 983 l 525 1090 l 674 1090 l 481 896 l 354 896 z "},"ş":{"ha":833,"x_min":111,"x_max":722,"o":"m 296 -286 l 296 -207 l 394 -207 q 444 -191 425 -207 q 464 -157 464 -175 q 425 -114 464 -132 q 317 -96 386 -96 l 349 -10 q 173 56 235 -1 q 111 211 111 114 l 247 211 q 284 133 247 161 q 386 104 321 104 l 447 104 q 552 133 515 104 q 589 215 589 163 q 497 319 589 308 l 292 349 q 165 416 210 361 q 121 558 121 471 q 190 718 121 661 q 385 775 260 775 l 446 775 q 635 719 563 775 q 711 572 707 664 l 572 572 q 536 637 569 611 q 446 663 503 663 l 385 663 q 288 635 322 663 q 254 560 254 607 q 331 474 254 483 l 524 446 q 722 215 722 419 q 651 48 722 107 q 447 -11 579 -11 l 432 -11 l 418 -50 q 495 -67 456 -53 q 563 -107 535 -82 q 590 -169 590 -132 q 543 -252 590 -218 q 419 -286 496 -286 l 296 -286 z "},"ŝ":{"ha":833,"x_min":111,"x_max":722,"o":"m 386 -11 q 183 47 256 -11 q 111 211 111 106 l 247 211 q 284 133 247 161 q 386 104 321 104 l 447 104 q 552 133 515 104 q 589 215 589 163 q 497 319 589 308 l 292 349 q 165 416 210 361 q 121 558 121 471 q 190 718 121 661 q 385 775 260 775 l 446 775 q 635 719 563 775 q 711 572 707 664 l 572 572 q 536 637 569 611 q 446 663 503 663 l 385 663 q 288 635 322 663 q 254 560 254 607 q 331 474 254 483 l 524 446 q 722 215 722 419 q 651 48 722 107 q 447 -11 579 -11 l 386 -11 m 160 896 l 353 1090 l 479 1090 l 674 896 l 528 896 l 417 1003 l 308 896 l 160 896 z "},"ș":{"ha":833,"x_min":111,"x_max":722,"o":"m 386 -11 q 183 47 256 -11 q 111 211 111 106 l 247 211 q 284 133 247 161 q 386 104 321 104 l 447 104 q 552 133 515 104 q 589 215 589 163 q 497 319 589 308 l 292 349 q 165 416 210 361 q 121 558 121 471 q 190 718 121 661 q 385 775 260 775 l 446 775 q 635 719 563 775 q 711 572 707 664 l 572 572 q 536 637 569 611 q 446 663 503 663 l 385 663 q 288 635 322 663 q 254 560 254 607 q 331 474 254 483 l 524 446 q 722 215 722 419 q 651 48 722 107 q 447 -11 579 -11 l 386 -11 m 261 -333 l 393 -132 l 549 -132 l 400 -333 l 261 -333 z "},"ß":{"ha":833,"x_min":121,"x_max":750,"o":"m 121 0 l 121 738 q 159 889 121 824 q 265 991 197 954 q 421 1028 332 1028 q 576 995 510 1028 q 681 904 643 963 q 719 769 719 846 q 674 625 719 688 q 557 546 629 563 l 557 542 q 697 455 643 526 q 750 283 750 383 q 710 136 750 200 q 601 36 671 72 q 439 0 531 0 l 360 0 l 360 124 l 425 124 q 558 172 507 124 q 610 297 610 221 q 562 423 610 375 q 436 471 514 471 l 360 471 l 360 589 l 421 589 q 537 633 492 589 q 582 749 582 676 q 537 863 582 819 q 421 907 492 907 q 303 860 349 907 q 258 738 258 813 l 258 0 l 121 0 z "},"ſ":{"ha":833,"x_min":224,"x_max":714,"o":"m 224 0 l 224 783 q 290 951 224 888 q 467 1014 357 1014 l 714 1014 l 714 893 l 469 893 q 391 863 421 893 q 361 782 361 832 l 361 0 l 224 0 z "},"t":{"ha":833,"x_min":61,"x_max":726,"o":"m 493 0 q 337 57 394 0 q 279 208 279 114 l 279 639 l 61 639 l 61 764 l 279 764 l 279 979 l 417 979 l 417 764 l 726 764 l 726 639 l 417 639 l 417 210 q 438 149 417 172 q 496 125 460 125 l 719 125 l 719 0 l 493 0 z "},"ŧ":{"ha":833,"x_min":61,"x_max":726,"o":"m 115 328 l 115 440 l 279 440 l 279 639 l 61 639 l 61 764 l 279 764 l 279 979 l 417 979 l 417 764 l 726 764 l 726 639 l 417 639 l 417 440 l 663 440 l 663 328 l 417 328 l 417 210 q 438 149 417 172 q 496 125 460 125 l 719 125 l 719 0 l 493 0 q 337 57 394 0 q 279 208 279 114 l 279 328 l 115 328 z "},"ť":{"ha":833,"x_min":61,"x_max":726,"o":"m 493 0 q 337 57 394 0 q 279 208 279 114 l 279 639 l 61 639 l 61 764 l 279 764 l 279 979 l 417 979 l 417 764 l 726 764 l 726 639 l 417 639 l 417 210 q 438 149 417 172 q 496 125 460 125 l 719 125 l 719 0 l 493 0 m 518 863 l 539 1113 l 664 1113 l 631 863 l 518 863 z "},"ţ":{"ha":833,"x_min":61,"x_max":726,"o":"m 365 -286 l 365 -207 l 464 -207 q 514 -191 494 -207 q 533 -157 533 -175 q 494 -114 533 -132 q 386 -96 456 -96 l 425 8 q 318 78 357 26 q 279 208 279 131 l 279 639 l 61 639 l 61 764 l 279 764 l 279 979 l 417 979 l 417 764 l 726 764 l 726 639 l 417 639 l 417 210 q 438 149 417 172 q 496 125 460 125 l 719 125 l 719 0 l 504 0 l 488 -50 q 565 -67 525 -53 q 632 -107 604 -82 q 660 -169 660 -132 q 613 -252 660 -218 q 489 -286 565 -286 l 365 -286 z "},"ț":{"ha":833,"x_min":61,"x_max":726,"o":"m 493 0 q 337 57 394 0 q 279 208 279 114 l 279 639 l 61 639 l 61 764 l 279 764 l 279 979 l 417 979 l 417 764 l 726 764 l 726 639 l 417 639 l 417 210 q 438 149 417 172 q 496 125 460 125 l 719 125 l 719 0 l 493 0 m 344 -333 l 476 -132 l 632 -132 l 483 -333 l 344 -333 z "},"u":{"ha":833,"x_min":119,"x_max":714,"o":"m 415 -14 q 200 65 281 -14 q 119 281 119 144 l 119 764 l 257 764 l 257 281 q 299 153 257 200 q 415 107 342 107 q 533 153 490 107 q 576 281 576 200 l 576 764 l 714 764 l 714 281 q 633 65 714 144 q 415 -14 551 -14 z "},"ú":{"ha":833,"x_min":119,"x_max":714,"o":"m 415 -14 q 200 65 281 -14 q 119 281 119 144 l 119 764 l 257 764 l 257 281 q 299 153 257 200 q 415 107 342 107 q 533 153 490 107 q 576 281 576 200 l 576 764 l 714 764 l 714 281 q 633 65 714 144 q 415 -14 551 -14 m 331 896 l 476 1090 l 625 1090 l 469 896 l 331 896 z "},"ŭ":{"ha":833,"x_min":119,"x_max":714,"o":"m 415 -14 q 200 65 281 -14 q 119 281 119 144 l 119 764 l 257 764 l 257 281 q 299 153 257 200 q 415 107 342 107 q 533 153 490 107 q 576 281 576 200 l 576 764 l 714 764 l 714 281 q 633 65 714 144 q 415 -14 551 -14 m 417 888 q 251 943 314 888 q 189 1090 189 999 l 297 1090 q 330 1007 297 1039 q 415 975 363 975 q 503 1007 469 975 q 536 1090 536 1039 l 644 1090 q 582 943 644 999 q 417 888 519 888 z "},"ǔ":{"ha":833,"x_min":119,"x_max":714,"o":"m 415 -14 q 200 65 281 -14 q 119 281 119 144 l 119 764 l 257 764 l 257 281 q 299 153 257 200 q 415 107 342 107 q 533 153 490 107 q 576 281 576 200 l 576 764 l 714 764 l 714 281 q 633 65 714 144 q 415 -14 551 -14 m 354 896 l 160 1090 l 306 1090 l 417 983 l 525 1090 l 674 1090 l 481 896 l 354 896 z "},"û":{"ha":833,"x_min":119,"x_max":714,"o":"m 415 -14 q 200 65 281 -14 q 119 281 119 144 l 119 764 l 257 764 l 257 281 q 299 153 257 200 q 415 107 342 107 q 533 153 490 107 q 576 281 576 200 l 576 764 l 714 764 l 714 281 q 633 65 714 144 q 415 -14 551 -14 m 160 896 l 353 1090 l 479 1090 l 674 896 l 528 896 l 417 1003 l 308 896 l 160 896 z "},"ü":{"ha":833,"x_min":119,"x_max":714,"o":"m 415 -14 q 200 65 281 -14 q 119 281 119 144 l 119 764 l 257 764 l 257 281 q 299 153 257 200 q 415 107 342 107 q 533 153 490 107 q 576 281 576 200 l 576 764 l 714 764 l 714 281 q 633 65 714 144 q 415 -14 551 -14 m 574 899 q 506 923 531 899 q 481 989 481 947 q 506 1057 481 1032 q 574 1082 531 1082 q 640 1057 615 1082 q 665 989 665 1032 q 640 923 665 947 q 574 899 615 899 m 260 899 q 193 923 218 899 q 168 989 168 947 q 193 1057 168 1032 q 260 1082 218 1082 q 328 1057 303 1082 q 353 989 353 1032 q 328 923 353 947 q 260 899 303 899 z "},"ǘ":{"ha":833,"x_min":119,"x_max":714,"o":"m 415 -14 q 200 65 281 -14 q 119 281 119 144 l 119 764 l 257 764 l 257 281 q 299 153 257 200 q 415 107 342 107 q 533 153 490 107 q 576 281 576 200 l 576 764 l 714 764 l 714 281 q 633 65 714 144 q 415 -14 551 -14 m 574 899 q 506 923 531 899 q 481 989 481 947 q 506 1057 481 1032 q 574 1082 531 1082 q 640 1057 615 1082 q 665 989 665 1032 q 640 923 665 947 q 574 899 615 899 m 260 899 q 193 923 218 899 q 168 989 168 947 q 193 1057 168 1032 q 260 1082 218 1082 q 328 1057 303 1082 q 353 989 353 1032 q 328 923 353 947 q 260 899 303 899 m 331 1214 l 476 1408 l 625 1408 l 469 1214 l 331 1214 z "},"ǚ":{"ha":833,"x_min":119,"x_max":714,"o":"m 415 -14 q 200 65 281 -14 q 119 281 119 144 l 119 764 l 257 764 l 257 281 q 299 153 257 200 q 415 107 342 107 q 533 153 490 107 q 576 281 576 200 l 576 764 l 714 764 l 714 281 q 633 65 714 144 q 415 -14 551 -14 m 574 899 q 506 923 531 899 q 481 989 481 947 q 506 1057 481 1032 q 574 1082 531 1082 q 640 1057 615 1082 q 665 989 665 1032 q 640 923 665 947 q 574 899 615 899 m 260 899 q 193 923 218 899 q 168 989 168 947 q 193 1057 168 1032 q 260 1082 218 1082 q 328 1057 303 1082 q 353 989 353 1032 q 328 923 353 947 q 260 899 303 899 m 354 1214 l 160 1408 l 306 1408 l 417 1301 l 525 1408 l 674 1408 l 481 1214 l 354 1214 z "},"ǜ":{"ha":833,"x_min":119,"x_max":714,"o":"m 415 -14 q 200 65 281 -14 q 119 281 119 144 l 119 764 l 257 764 l 257 281 q 299 153 257 200 q 415 107 342 107 q 533 153 490 107 q 576 281 576 200 l 576 764 l 714 764 l 714 281 q 633 65 714 144 q 415 -14 551 -14 m 574 899 q 506 923 531 899 q 481 989 481 947 q 506 1057 481 1032 q 574 1082 531 1082 q 640 1057 615 1082 q 665 989 665 1032 q 640 923 665 947 q 574 899 615 899 m 260 899 q 193 923 218 899 q 168 989 168 947 q 193 1057 168 1032 q 260 1082 218 1082 q 328 1057 303 1082 q 353 989 353 1032 q 328 923 353 947 q 260 899 303 899 m 365 1214 l 204 1408 l 357 1408 l 508 1214 l 365 1214 z "},"ǖ":{"ha":833,"x_min":119,"x_max":714,"o":"m 415 -14 q 200 65 281 -14 q 119 281 119 144 l 119 764 l 257 764 l 257 281 q 299 153 257 200 q 415 107 342 107 q 533 153 490 107 q 576 281 576 200 l 576 764 l 714 764 l 714 281 q 633 65 714 144 q 415 -14 551 -14 m 574 899 q 506 923 531 899 q 481 989 481 947 q 506 1057 481 1032 q 574 1082 531 1082 q 640 1057 615 1082 q 665 989 665 1032 q 640 923 665 947 q 574 899 615 899 m 260 899 q 193 923 218 899 q 168 989 168 947 q 193 1057 168 1032 q 260 1082 218 1082 q 328 1057 303 1082 q 353 989 353 1032 q 328 923 353 947 q 260 899 303 899 m 190 1246 l 190 1357 l 643 1357 l 643 1246 l 190 1246 z "},"ụ":{"ha":833,"x_min":119,"x_max":714,"o":"m 415 -14 q 200 65 281 -14 q 119 281 119 144 l 119 764 l 257 764 l 257 281 q 299 153 257 200 q 415 107 342 107 q 533 153 490 107 q 576 281 576 200 l 576 764 l 714 764 l 714 281 q 633 65 714 144 q 415 -14 551 -14 m 417 -300 q 342 -276 369 -300 q 314 -210 314 -251 q 342 -142 314 -167 q 417 -117 369 -117 q 492 -142 464 -117 q 519 -210 519 -167 q 492 -276 519 -251 q 417 -300 464 -300 z "},"ù":{"ha":833,"x_min":119,"x_max":714,"o":"m 415 -14 q 200 65 281 -14 q 119 281 119 144 l 119 764 l 257 764 l 257 281 q 299 153 257 200 q 415 107 342 107 q 533 153 490 107 q 576 281 576 200 l 576 764 l 714 764 l 714 281 q 633 65 714 144 q 415 -14 551 -14 m 365 896 l 204 1090 l 357 1090 l 508 896 l 365 896 z "},"ủ":{"ha":833,"x_min":119,"x_max":714,"o":"m 415 -14 q 200 65 281 -14 q 119 281 119 144 l 119 764 l 257 764 l 257 281 q 299 153 257 200 q 415 107 342 107 q 533 153 490 107 q 576 281 576 200 l 576 764 l 714 764 l 714 281 q 633 65 714 144 q 415 -14 551 -14 m 356 896 l 425 982 q 444 1026 444 1008 q 401 1053 444 1053 l 290 1053 l 290 1147 l 436 1147 q 524 1119 490 1147 q 558 1043 558 1092 q 533 967 558 997 l 479 896 l 356 896 z "},"ư":{"ha":833,"x_min":119,"x_max":840,"o":"m 119 279 l 119 764 l 257 764 l 257 279 q 298 152 257 197 q 411 107 339 107 q 526 152 485 107 q 568 279 568 197 l 568 764 l 679 764 q 728 813 728 764 l 728 917 l 840 917 l 840 807 q 808 705 840 743 q 706 667 775 667 l 706 279 q 625 65 706 144 q 411 -14 544 -14 q 199 65 278 -14 q 119 279 119 144 z "},"ứ":{"ha":833,"x_min":119,"x_max":840,"o":"m 119 279 l 119 764 l 257 764 l 257 279 q 298 152 257 197 q 411 107 339 107 q 526 152 485 107 q 568 279 568 197 l 568 764 l 679 764 q 728 813 728 764 l 728 917 l 840 917 l 840 807 q 808 705 840 743 q 706 667 775 667 l 706 279 q 625 65 706 144 q 411 -14 544 -14 q 199 65 278 -14 q 119 279 119 144 m 326 896 l 472 1090 l 621 1090 l 465 896 l 326 896 z "},"ự":{"ha":833,"x_min":119,"x_max":840,"o":"m 119 279 l 119 764 l 257 764 l 257 279 q 298 152 257 197 q 411 107 339 107 q 526 152 485 107 q 568 279 568 197 l 568 764 l 679 764 q 728 813 728 764 l 728 917 l 840 917 l 840 807 q 808 705 840 743 q 706 667 775 667 l 706 279 q 625 65 706 144 q 411 -14 544 -14 q 199 65 278 -14 q 119 279 119 144 m 411 -300 q 336 -276 364 -300 q 308 -210 308 -251 q 336 -142 308 -167 q 411 -117 364 -117 q 486 -142 458 -117 q 514 -210 514 -167 q 486 -276 514 -251 q 411 -300 458 -300 z "},"ừ":{"ha":833,"x_min":119,"x_max":840,"o":"m 119 279 l 119 764 l 257 764 l 257 279 q 298 152 257 197 q 411 107 339 107 q 526 152 485 107 q 568 279 568 197 l 568 764 l 679 764 q 728 813 728 764 l 728 917 l 840 917 l 840 807 q 808 705 840 743 q 706 667 775 667 l 706 279 q 625 65 706 144 q 411 -14 544 -14 q 199 65 278 -14 q 119 279 119 144 m 361 896 l 200 1090 l 353 1090 l 504 896 l 361 896 z "},"ử":{"ha":833,"x_min":119,"x_max":840,"o":"m 119 279 l 119 764 l 257 764 l 257 279 q 298 152 257 197 q 411 107 339 107 q 526 152 485 107 q 568 279 568 197 l 568 764 l 679 764 q 728 813 728 764 l 728 917 l 840 917 l 840 807 q 808 705 840 743 q 706 667 775 667 l 706 279 q 625 65 706 144 q 411 -14 544 -14 q 199 65 278 -14 q 119 279 119 144 m 351 896 l 421 982 q 440 1026 440 1008 q 397 1053 440 1053 l 286 1053 l 286 1147 l 432 1147 q 520 1119 486 1147 q 554 1043 554 1092 q 529 967 554 997 l 475 896 l 351 896 z "},"ữ":{"ha":833,"x_min":119,"x_max":840,"o":"m 119 279 l 119 764 l 257 764 l 257 279 q 298 152 257 197 q 411 107 339 107 q 526 152 485 107 q 568 279 568 197 l 568 764 l 679 764 q 728 813 728 764 l 728 917 l 840 917 l 840 807 q 808 705 840 743 q 706 667 775 667 l 706 279 q 625 65 706 144 q 411 -14 544 -14 q 199 65 278 -14 q 119 279 119 144 m 510 900 q 442 914 468 900 q 397 947 415 928 q 363 981 379 967 q 322 994 346 994 q 281 947 281 994 l 281 907 l 186 907 l 186 950 q 222 1050 186 1014 q 315 1086 257 1086 q 383 1072 357 1086 q 428 1039 410 1058 q 463 1006 446 1019 q 503 992 479 992 q 544 1039 544 992 l 544 1079 l 639 1079 l 639 1038 q 603 936 639 972 q 510 900 568 900 z "},"ű":{"ha":833,"x_min":119,"x_max":742,"o":"m 415 -14 q 200 65 281 -14 q 119 281 119 144 l 119 764 l 257 764 l 257 281 q 299 153 257 200 q 415 107 342 107 q 533 153 490 107 q 576 281 576 200 l 576 764 l 714 764 l 714 281 q 633 65 714 144 q 415 -14 551 -14 m 451 896 l 604 1090 l 742 1090 l 582 896 l 451 896 m 196 896 l 347 1090 l 486 1090 l 326 896 l 196 896 z "},"ū":{"ha":833,"x_min":119,"x_max":714,"o":"m 415 -14 q 200 65 281 -14 q 119 281 119 144 l 119 764 l 257 764 l 257 281 q 299 153 257 200 q 415 107 342 107 q 533 153 490 107 q 576 281 576 200 l 576 764 l 714 764 l 714 281 q 633 65 714 144 q 415 -14 551 -14 m 190 928 l 190 1039 l 643 1039 l 643 928 l 190 928 z "},"ų":{"ha":833,"x_min":119,"x_max":714,"o":"m 514 -286 q 390 -249 436 -286 q 343 -154 343 -211 q 364 -85 343 -121 q 438 -7 385 -50 q 417 -14 428 -14 q 199 65 278 -14 q 119 281 119 143 l 119 764 l 257 764 l 257 281 q 417 108 257 108 q 576 281 576 108 l 576 764 l 714 764 l 714 281 q 593 32 714 106 l 553 -3 q 489 -69 508 -39 q 469 -126 469 -100 q 489 -175 469 -156 q 543 -194 508 -194 l 629 -194 l 629 -286 l 514 -286 z "},"ů":{"ha":833,"x_min":119,"x_max":714,"o":"m 415 -14 q 200 65 281 -14 q 119 281 119 144 l 119 764 l 257 764 l 257 281 q 299 153 257 200 q 415 107 342 107 q 533 153 490 107 q 576 281 576 200 l 576 764 l 714 764 l 714 281 q 633 65 714 144 q 415 -14 551 -14 m 417 843 q 293 888 340 843 q 246 1004 246 932 q 293 1121 246 1076 q 417 1165 340 1165 q 540 1121 493 1165 q 588 1004 588 1076 q 540 888 588 932 q 417 843 493 843 m 417 919 q 477 942 454 919 q 500 1004 500 965 q 477 1065 500 1042 q 417 1089 454 1089 q 356 1065 379 1089 q 333 1004 333 1042 q 356 942 333 965 q 417 919 379 919 z "},"ũ":{"ha":833,"x_min":119,"x_max":714,"o":"m 415 -14 q 200 65 281 -14 q 119 281 119 144 l 119 764 l 257 764 l 257 281 q 299 153 257 200 q 415 107 342 107 q 533 153 490 107 q 576 281 576 200 l 576 764 l 714 764 l 714 281 q 633 65 714 144 q 415 -14 551 -14 m 514 900 q 446 914 472 900 q 401 947 419 928 q 367 981 383 967 q 326 994 350 994 q 285 947 285 994 l 285 907 l 190 907 l 190 950 q 226 1050 190 1014 q 319 1086 261 1086 q 388 1072 361 1086 q 432 1039 414 1058 q 467 1006 450 1019 q 507 992 483 992 q 549 1039 549 992 l 549 1079 l 643 1079 l 643 1038 q 608 936 643 972 q 514 900 572 900 z "},"v":{"ha":833,"x_min":69,"x_max":765,"o":"m 328 0 l 69 764 l 215 764 l 378 263 q 403 176 392 218 q 419 108 414 133 q 435 176 425 133 q 458 263 444 218 l 619 764 l 765 764 l 506 0 l 328 0 z "},"w":{"ha":833,"x_min":38,"x_max":796,"o":"m 161 0 l 38 764 l 154 764 l 229 243 q 238 168 233 208 q 243 103 242 128 q 250 168 246 128 q 260 243 254 208 l 351 764 l 482 764 l 574 243 q 584 169 579 208 q 592 103 589 129 q 599 169 594 129 q 607 243 603 208 l 685 764 l 796 764 l 667 0 l 519 0 l 435 514 q 424 597 429 551 q 417 669 419 643 q 409 597 415 643 q 397 514 403 551 l 310 0 l 161 0 z "},"ẃ":{"ha":833,"x_min":38,"x_max":796,"o":"m 161 0 l 38 764 l 154 764 l 229 243 q 238 168 233 208 q 243 103 242 128 q 250 168 246 128 q 260 243 254 208 l 351 764 l 482 764 l 574 243 q 584 169 579 208 q 592 103 589 129 q 599 169 594 129 q 607 243 603 208 l 685 764 l 796 764 l 667 0 l 519 0 l 435 514 q 424 597 429 551 q 417 669 419 643 q 409 597 415 643 q 397 514 403 551 l 310 0 l 161 0 m 331 896 l 476 1090 l 625 1090 l 469 896 l 331 896 z "},"ŵ":{"ha":833,"x_min":38,"x_max":796,"o":"m 161 0 l 38 764 l 154 764 l 229 243 q 238 168 233 208 q 243 103 242 128 q 250 168 246 128 q 260 243 254 208 l 351 764 l 482 764 l 574 243 q 584 169 579 208 q 592 103 589 129 q 599 169 594 129 q 607 243 603 208 l 685 764 l 796 764 l 667 0 l 519 0 l 435 514 q 424 597 429 551 q 417 669 419 643 q 409 597 415 643 q 397 514 403 551 l 310 0 l 161 0 m 160 896 l 353 1090 l 479 1090 l 674 896 l 528 896 l 417 1003 l 308 896 l 160 896 z "},"ẅ":{"ha":833,"x_min":38,"x_max":796,"o":"m 161 0 l 38 764 l 154 764 l 229 243 q 238 168 233 208 q 243 103 242 128 q 250 168 246 128 q 260 243 254 208 l 351 764 l 482 764 l 574 243 q 584 169 579 208 q 592 103 589 129 q 599 169 594 129 q 607 243 603 208 l 685 764 l 796 764 l 667 0 l 519 0 l 435 514 q 424 597 429 551 q 417 669 419 643 q 409 597 415 643 q 397 514 403 551 l 310 0 l 161 0 m 574 899 q 506 923 531 899 q 481 989 481 947 q 506 1057 481 1032 q 574 1082 531 1082 q 640 1057 615 1082 q 665 989 665 1032 q 640 923 665 947 q 574 899 615 899 m 260 899 q 193 923 218 899 q 168 989 168 947 q 193 1057 168 1032 q 260 1082 218 1082 q 328 1057 303 1082 q 353 989 353 1032 q 328 923 353 947 q 260 899 303 899 z "},"ẁ":{"ha":833,"x_min":38,"x_max":796,"o":"m 161 0 l 38 764 l 154 764 l 229 243 q 238 168 233 208 q 243 103 242 128 q 250 168 246 128 q 260 243 254 208 l 351 764 l 482 764 l 574 243 q 584 169 579 208 q 592 103 589 129 q 599 169 594 129 q 607 243 603 208 l 685 764 l 796 764 l 667 0 l 519 0 l 435 514 q 424 597 429 551 q 417 669 419 643 q 409 597 415 643 q 397 514 403 551 l 310 0 l 161 0 m 365 896 l 204 1090 l 357 1090 l 508 896 l 365 896 z "},"x":{"ha":833,"x_min":64,"x_max":769,"o":"m 64 0 l 335 393 l 82 764 l 242 764 l 385 540 q 403 506 394 524 q 418 476 413 488 q 431 506 422 488 q 450 540 440 524 l 593 764 l 753 764 l 500 392 l 769 0 l 608 0 l 453 240 q 433 276 443 256 q 418 308 424 296 q 401 276 411 296 q 381 240 392 256 l 225 0 l 64 0 z "},"y":{"ha":833,"x_min":69,"x_max":765,"o":"m 243 -250 l 354 46 l 69 764 l 215 764 l 388 313 q 410 250 399 283 q 425 192 421 217 q 439 250 429 217 q 460 313 449 283 l 619 764 l 765 764 l 386 -250 l 243 -250 z "},"ý":{"ha":833,"x_min":69,"x_max":765,"o":"m 243 -250 l 354 46 l 69 764 l 215 764 l 388 313 q 410 250 399 283 q 425 192 421 217 q 439 250 429 217 q 460 313 449 283 l 619 764 l 765 764 l 386 -250 l 243 -250 m 331 896 l 476 1090 l 625 1090 l 469 896 l 331 896 z "},"ŷ":{"ha":833,"x_min":69,"x_max":765,"o":"m 243 -250 l 354 46 l 69 764 l 215 764 l 388 313 q 410 250 399 283 q 425 192 421 217 q 439 250 429 217 q 460 313 449 283 l 619 764 l 765 764 l 386 -250 l 243 -250 m 160 896 l 353 1090 l 479 1090 l 674 896 l 528 896 l 417 1003 l 308 896 l 160 896 z "},"ÿ":{"ha":833,"x_min":69,"x_max":765,"o":"m 243 -250 l 354 46 l 69 764 l 215 764 l 388 313 q 410 250 399 283 q 425 192 421 217 q 439 250 429 217 q 460 313 449 283 l 619 764 l 765 764 l 386 -250 l 243 -250 m 574 899 q 506 923 531 899 q 481 989 481 947 q 506 1057 481 1032 q 574 1082 531 1082 q 640 1057 615 1082 q 665 989 665 1032 q 640 923 665 947 q 574 899 615 899 m 260 899 q 193 923 218 899 q 168 989 168 947 q 193 1057 168 1032 q 260 1082 218 1082 q 328 1057 303 1082 q 353 989 353 1032 q 328 923 353 947 q 260 899 303 899 z "},"ỵ":{"ha":833,"x_min":69,"x_max":765,"o":"m 243 -250 l 354 46 l 69 764 l 215 764 l 388 313 q 410 250 399 283 q 425 192 421 217 q 439 250 429 217 q 460 313 449 283 l 619 764 l 765 764 l 386 -250 l 243 -250 m 647 -300 q 572 -276 600 -300 q 544 -210 544 -251 q 572 -142 544 -167 q 647 -117 600 -117 q 722 -142 694 -117 q 750 -210 750 -167 q 722 -276 750 -251 q 647 -300 694 -300 z "},"ỳ":{"ha":833,"x_min":69,"x_max":765,"o":"m 243 -250 l 354 46 l 69 764 l 215 764 l 388 313 q 410 250 399 283 q 425 192 421 217 q 439 250 429 217 q 460 313 449 283 l 619 764 l 765 764 l 386 -250 l 243 -250 m 365 896 l 204 1090 l 357 1090 l 508 896 l 365 896 z "},"ỷ":{"ha":833,"x_min":69,"x_max":765,"o":"m 243 -250 l 354 46 l 69 764 l 215 764 l 388 313 q 410 250 399 283 q 425 192 421 217 q 439 250 429 217 q 460 313 449 283 l 619 764 l 765 764 l 386 -250 l 243 -250 m 356 896 l 425 982 q 444 1026 444 1008 q 401 1053 444 1053 l 290 1053 l 290 1147 l 436 1147 q 524 1119 490 1147 q 558 1043 558 1092 q 533 967 558 997 l 479 896 l 356 896 z "},"ȳ":{"ha":833,"x_min":69,"x_max":765,"o":"m 243 -250 l 354 46 l 69 764 l 215 764 l 388 313 q 410 250 399 283 q 425 192 421 217 q 439 250 429 217 q 460 313 449 283 l 619 764 l 765 764 l 386 -250 l 243 -250 m 190 928 l 190 1039 l 643 1039 l 643 928 l 190 928 z "},"ỹ":{"ha":833,"x_min":69,"x_max":765,"o":"m 243 -250 l 354 46 l 69 764 l 215 764 l 388 313 q 410 250 399 283 q 425 192 421 217 q 439 250 429 217 q 460 313 449 283 l 619 764 l 765 764 l 386 -250 l 243 -250 m 514 900 q 446 914 472 900 q 401 947 419 928 q 367 981 383 967 q 326 994 350 994 q 285 947 285 994 l 285 907 l 190 907 l 190 950 q 226 1050 190 1014 q 319 1086 261 1086 q 388 1072 361 1086 q 432 1039 414 1058 q 467 1006 450 1019 q 507 992 483 992 q 549 1039 549 992 l 549 1079 l 643 1079 l 643 1038 q 608 936 643 972 q 514 900 572 900 z "},"z":{"ha":833,"x_min":121,"x_max":713,"o":"m 121 0 l 121 133 l 542 640 l 132 640 l 132 764 l 697 764 l 697 631 l 269 124 l 713 124 l 713 0 l 121 0 z "},"ź":{"ha":833,"x_min":121,"x_max":713,"o":"m 121 0 l 121 133 l 542 640 l 132 640 l 132 764 l 697 764 l 697 631 l 269 124 l 713 124 l 713 0 l 121 0 m 331 896 l 476 1090 l 625 1090 l 469 896 l 331 896 z "},"ž":{"ha":833,"x_min":121,"x_max":713,"o":"m 121 0 l 121 133 l 542 640 l 132 640 l 132 764 l 697 764 l 697 631 l 269 124 l 713 124 l 713 0 l 121 0 m 354 896 l 160 1090 l 306 1090 l 417 983 l 525 1090 l 674 1090 l 481 896 l 354 896 z "},"ż":{"ha":833,"x_min":121,"x_max":713,"o":"m 121 0 l 121 133 l 542 640 l 132 640 l 132 764 l 697 764 l 697 631 l 269 124 l 713 124 l 713 0 l 121 0 m 417 899 q 342 923 369 899 q 314 989 314 947 q 342 1057 314 1032 q 417 1082 369 1082 q 492 1057 464 1082 q 519 989 519 1032 q 492 923 519 947 q 417 899 464 899 z "},"ª":{"ha":833,"x_min":242,"x_max":586,"o":"m 379 625 q 279 658 317 625 q 242 744 242 690 q 281 831 242 799 q 389 864 321 864 l 510 864 l 510 903 q 487 951 510 933 q 424 968 464 968 q 365 953 389 968 q 338 915 342 939 l 263 915 q 313 999 269 969 q 424 1028 356 1028 q 542 994 499 1028 q 586 903 586 961 l 586 632 l 514 632 l 514 708 l 510 708 q 460 647 494 669 q 379 625 425 625 m 399 682 q 480 706 450 682 q 510 771 510 729 l 510 806 l 389 806 q 317 746 317 806 q 339 699 317 715 q 399 682 361 682 z "},"º":{"ha":833,"x_min":253,"x_max":581,"o":"m 417 619 q 298 660 343 619 q 253 768 253 701 l 253 874 q 298 981 253 940 q 417 1022 343 1022 q 535 981 490 1022 q 581 874 581 940 l 581 768 q 535 660 581 701 q 417 619 490 619 m 417 681 q 481 705 457 681 q 506 768 506 729 l 506 874 q 481 936 506 913 q 417 960 457 960 q 353 936 376 960 q 329 874 329 913 l 329 768 q 353 705 329 729 q 417 681 376 681 z "},"А":{"ha":833,"x_min":64,"x_max":769,"o":"m 64 0 l 326 1014 l 508 1014 l 769 0 l 629 0 l 565 264 l 268 264 l 204 0 l 64 0 m 296 378 l 538 378 l 465 681 q 432 822 444 764 q 417 901 419 881 q 401 822 414 881 q 369 682 389 764 l 296 378 z "},"Б":{"ha":833,"x_min":125,"x_max":743,"o":"m 125 0 l 125 1014 l 700 1014 l 700 889 l 261 889 l 261 604 l 425 604 q 594 567 522 604 q 704 461 665 529 q 743 303 743 393 q 704 144 743 213 q 594 38 665 76 q 425 0 522 0 l 125 0 m 261 124 l 425 124 q 554 172 507 124 q 601 303 601 221 q 554 433 601 385 q 425 481 507 481 l 261 481 l 261 124 z "},"В":{"ha":833,"x_min":124,"x_max":743,"o":"m 124 0 l 124 1014 l 417 1014 q 638 944 557 1014 q 719 751 719 874 q 670 610 719 672 q 543 535 621 549 l 543 531 q 647 489 601 524 q 717 401 692 454 q 743 283 743 347 q 660 76 743 153 q 436 0 578 0 l 124 0 m 258 586 l 415 586 q 538 627 493 586 q 582 739 582 668 q 538 852 582 811 q 417 893 493 893 l 258 893 l 258 586 m 258 121 l 424 121 q 557 166 508 121 q 606 289 606 211 q 557 419 606 369 q 424 469 508 469 l 258 469 l 258 121 z "},"Г":{"ha":833,"x_min":178,"x_max":772,"o":"m 178 0 l 178 1014 l 772 1014 l 772 889 l 315 889 l 315 0 l 178 0 z "},"Ѓ":{"ha":833,"x_min":178,"x_max":772,"o":"m 178 0 l 178 1014 l 772 1014 l 772 889 l 315 889 l 315 0 l 178 0 m 358 1125 l 504 1319 l 653 1319 l 497 1125 l 358 1125 z "},"Ґ":{"ha":833,"x_min":178,"x_max":772,"o":"m 178 0 l 178 1014 l 642 1014 l 642 1146 l 772 1146 l 772 888 l 315 888 l 315 0 l 178 0 z "},"Д":{"ha":833,"x_min":35,"x_max":799,"o":"m 35 -194 l 35 117 l 93 117 q 142 242 117 158 q 168 422 167 325 l 178 1014 l 704 1014 l 704 117 l 799 117 l 799 -194 l 675 -194 l 675 0 l 158 0 l 158 -194 l 35 -194 m 235 117 l 568 117 l 568 893 l 308 893 l 301 422 q 278 235 301 317 q 235 117 256 153 z "},"Е":{"ha":833,"x_min":135,"x_max":725,"o":"m 135 0 l 135 1014 l 725 1014 l 725 890 l 271 890 l 271 589 l 676 589 l 676 469 l 271 469 l 271 124 l 725 124 l 725 0 l 135 0 z "},"Ё":{"ha":833,"x_min":135,"x_max":725,"o":"m 135 0 l 135 1014 l 725 1014 l 725 890 l 271 890 l 271 589 l 676 589 l 676 469 l 271 469 l 271 124 l 725 124 l 725 0 l 135 0 m 586 1132 q 518 1156 543 1132 q 493 1222 493 1181 q 518 1290 493 1265 q 586 1315 543 1315 q 653 1290 628 1315 q 678 1222 678 1265 q 653 1156 678 1181 q 586 1132 628 1132 m 272 1132 q 206 1156 231 1132 q 181 1222 181 1181 q 206 1290 181 1265 q 272 1315 231 1315 q 340 1290 315 1315 q 365 1222 365 1265 q 340 1156 365 1181 q 272 1132 315 1132 z "},"Ж":{"ha":833,"x_min":6,"x_max":828,"o":"m 6 0 l 186 526 l 19 1014 l 156 1014 l 299 575 l 361 575 l 361 1014 l 472 1014 l 472 575 l 536 575 l 678 1014 l 814 1014 l 644 525 l 828 0 l 693 0 l 533 472 l 472 472 l 472 0 l 363 0 l 361 472 l 296 472 l 140 0 l 6 0 z "},"З":{"ha":833,"x_min":68,"x_max":746,"o":"m 404 -14 q 230 23 306 -14 q 112 126 154 60 q 68 281 69 193 l 204 281 q 263 155 207 203 q 406 107 318 107 q 550 157 494 107 q 606 288 606 207 q 550 417 606 367 q 406 467 494 467 l 286 467 l 286 588 l 407 588 q 531 633 483 588 q 578 750 578 678 q 531 864 578 821 q 410 907 485 907 q 281 859 331 907 q 232 735 232 811 l 96 735 q 135 888 96 821 q 246 991 175 954 q 410 1028 317 1028 q 569 994 500 1028 q 676 901 638 961 q 715 764 715 842 q 670 617 715 681 q 553 538 625 554 l 553 533 q 692 447 639 518 q 746 278 746 376 q 703 126 746 192 q 583 23 660 60 q 404 -14 506 -14 z "},"И":{"ha":833,"x_min":119,"x_max":715,"o":"m 119 0 l 119 1014 l 249 1014 l 249 464 q 247 356 249 413 q 242 247 244 299 q 236 158 239 194 l 536 1014 l 715 1014 l 715 0 l 585 0 l 585 547 q 587 655 585 597 q 592 766 589 713 q 600 856 596 819 l 297 0 l 119 0 z "},"Й":{"ha":833,"x_min":119,"x_max":715,"o":"m 119 0 l 119 1014 l 249 1014 l 249 464 q 247 356 249 413 q 242 247 244 299 q 236 158 239 194 l 536 1014 l 715 1014 l 715 0 l 585 0 l 585 547 q 587 655 585 597 q 592 766 589 713 q 600 856 596 819 l 297 0 l 119 0 m 417 1117 q 251 1172 314 1117 q 189 1319 189 1228 l 297 1319 q 330 1236 297 1268 q 415 1204 363 1204 q 503 1236 469 1204 q 536 1319 536 1268 l 644 1319 q 582 1172 644 1228 q 417 1117 519 1117 z "},"К":{"ha":833,"x_min":122,"x_max":781,"o":"m 122 0 l 122 1014 l 260 1014 l 260 583 l 401 583 l 618 1014 l 768 1014 l 522 526 l 781 0 l 625 0 l 399 463 l 260 463 l 260 0 l 122 0 z "},"Ќ":{"ha":833,"x_min":122,"x_max":781,"o":"m 122 0 l 122 1014 l 260 1014 l 260 583 l 401 583 l 618 1014 l 768 1014 l 522 526 l 781 0 l 625 0 l 399 463 l 260 463 l 260 0 l 122 0 m 331 1125 l 476 1319 l 625 1319 l 469 1125 l 331 1125 z "},"Л":{"ha":833,"x_min":26,"x_max":708,"o":"m 26 -7 l 26 121 l 54 121 q 138 173 113 121 q 167 347 164 225 l 178 1014 l 708 1014 l 708 0 l 571 0 l 571 889 l 313 889 l 303 347 q 242 80 300 167 q 63 -7 183 -7 l 26 -7 z "},"М":{"ha":833,"x_min":94,"x_max":740,"o":"m 94 0 l 94 1014 l 289 1014 l 414 576 l 544 1014 l 740 1014 l 740 0 l 608 0 l 608 465 q 611 628 608 539 q 619 808 614 718 q 629 969 624 897 l 471 450 l 354 450 l 201 957 q 219 731 214 856 q 225 465 225 607 l 225 0 l 94 0 z "},"Н":{"ha":833,"x_min":124,"x_max":710,"o":"m 124 0 l 124 1014 l 261 1014 l 261 586 l 572 586 l 572 1014 l 710 1014 l 710 0 l 572 0 l 572 461 l 261 461 l 261 0 l 124 0 z "},"О":{"ha":833,"x_min":117,"x_max":717,"o":"m 417 -14 q 197 67 278 -14 q 117 294 117 147 l 117 721 q 197 947 117 867 q 417 1028 278 1028 q 636 948 556 1028 q 717 721 717 868 l 717 294 q 636 67 717 147 q 417 -14 556 -14 m 417 108 q 537 153 494 108 q 579 281 579 197 l 579 735 q 538 861 579 817 q 417 906 496 906 q 296 861 338 906 q 254 735 254 817 l 254 281 q 297 153 254 197 q 417 108 339 108 z "},"П":{"ha":833,"x_min":125,"x_max":708,"o":"m 125 0 l 125 1014 l 708 1014 l 708 0 l 571 0 l 571 889 l 263 889 l 263 0 l 125 0 z "},"Р":{"ha":833,"x_min":122,"x_max":768,"o":"m 122 0 l 122 1014 l 451 1014 q 619 976 549 1014 q 729 872 690 939 q 768 711 768 804 q 729 552 768 619 q 619 447 690 485 q 451 410 547 410 l 260 410 l 260 0 l 122 0 m 260 532 l 451 532 q 579 581 532 532 q 626 711 626 631 q 579 842 626 793 q 451 892 532 892 l 260 892 l 260 532 z "},"С":{"ha":833,"x_min":122,"x_max":732,"o":"m 428 -14 q 205 65 288 -14 q 122 281 122 143 l 122 735 q 205 949 122 871 q 428 1028 288 1028 q 649 949 567 1028 q 732 735 732 869 l 594 735 q 550 861 594 817 q 428 906 506 906 q 304 861 349 906 q 260 735 260 817 l 260 281 q 304 153 260 197 q 428 108 349 108 q 550 153 506 108 q 594 281 594 197 l 732 281 q 649 65 732 144 q 428 -14 567 -14 z "},"Т":{"ha":833,"x_min":74,"x_max":760,"o":"m 349 0 l 349 889 l 74 889 l 74 1014 l 760 1014 l 760 889 l 486 889 l 486 0 l 349 0 z "},"У":{"ha":833,"x_min":64,"x_max":769,"o":"m 260 0 l 363 261 l 64 1014 l 214 1014 l 389 531 q 416 442 406 485 q 431 379 426 400 q 442 442 433 400 q 467 531 451 485 l 621 1014 l 769 1014 l 406 0 l 260 0 z "},"Ў":{"ha":833,"x_min":64,"x_max":769,"o":"m 260 0 l 363 261 l 64 1014 l 214 1014 l 389 531 q 416 442 406 485 q 431 379 426 400 q 442 442 433 400 q 467 531 451 485 l 621 1014 l 769 1014 l 406 0 l 260 0 m 417 1117 q 251 1172 314 1117 q 189 1319 189 1228 l 297 1319 q 330 1236 297 1268 q 415 1204 363 1204 q 503 1236 469 1204 q 536 1319 536 1268 l 644 1319 q 582 1172 644 1228 q 417 1117 519 1117 z "},"Ф":{"ha":833,"x_min":60,"x_max":774,"o":"m 349 -35 l 349 76 q 200 113 265 76 q 97 214 135 149 q 60 368 60 279 l 60 668 q 97 825 60 758 q 199 928 133 892 q 349 965 264 965 l 349 1069 l 486 1069 l 486 965 q 635 928 569 965 q 737 825 700 892 q 774 668 774 758 l 774 368 q 736 214 774 279 q 634 113 699 149 q 486 76 569 76 l 486 -35 l 349 -35 m 357 190 l 357 851 q 233 802 281 851 q 185 668 185 753 l 185 368 q 233 238 185 285 q 357 190 281 190 m 476 190 q 601 238 553 190 q 649 368 649 285 l 649 668 q 601 802 649 753 q 476 851 553 851 l 476 190 z "},"Х":{"ha":833,"x_min":51,"x_max":782,"o":"m 51 0 l 340 515 l 67 1014 l 224 1014 l 374 725 q 399 674 386 700 q 419 633 413 647 q 439 674 426 647 q 464 725 451 700 l 615 1014 l 767 1014 l 493 522 l 782 0 l 626 0 l 460 311 q 435 363 447 336 q 415 407 422 390 q 396 363 408 390 q 369 313 383 336 l 203 0 l 51 0 z "},"Ч":{"ha":833,"x_min":99,"x_max":707,"o":"m 569 0 l 569 372 l 381 372 q 174 440 249 372 q 99 626 99 507 l 99 1014 l 236 1014 l 236 628 q 278 529 236 564 q 397 494 321 494 l 569 494 l 569 1014 l 707 1014 l 707 0 l 569 0 z "},"Ц":{"ha":833,"x_min":125,"x_max":788,"o":"m 664 -194 l 664 0 l 125 0 l 125 1014 l 263 1014 l 263 122 l 546 122 l 546 1014 l 683 1014 l 683 122 l 788 122 l 788 -194 l 664 -194 z "},"Ш":{"ha":833,"x_min":79,"x_max":754,"o":"m 81 0 l 79 1014 l 206 1014 l 206 117 l 363 117 l 363 1014 l 474 1014 l 474 117 l 629 117 l 629 1014 l 754 1014 l 754 0 l 81 0 z "},"Щ":{"ha":833,"x_min":79,"x_max":828,"o":"m 706 -194 l 706 0 l 79 0 l 79 1014 l 200 1014 l 200 117 l 357 117 l 357 1014 l 460 1014 l 460 117 l 618 117 l 618 1014 l 738 1014 l 738 117 l 828 117 l 828 -194 l 706 -194 z "},"Џ":{"ha":833,"x_min":125,"x_max":708,"o":"m 349 -174 l 349 0 l 125 0 l 125 1014 l 263 1014 l 263 126 l 571 126 l 571 1014 l 708 1014 l 708 0 l 486 0 l 486 -174 l 349 -174 z "},"Ь":{"ha":833,"x_min":125,"x_max":768,"o":"m 125 0 l 125 1014 l 263 1014 l 263 603 l 454 603 q 619 565 549 603 q 728 459 689 526 q 768 301 768 392 q 728 144 768 211 q 619 38 689 76 q 454 0 549 0 l 125 0 m 263 124 l 449 124 q 578 172 529 124 q 626 301 626 221 q 578 430 626 381 q 449 479 529 479 l 263 479 l 263 124 z "},"Ъ":{"ha":833,"x_min":-7,"x_max":768,"o":"m 182 0 l 182 892 l -7 892 l -7 1014 l 319 1014 l 319 600 l 454 600 q 619 563 549 600 q 728 458 689 525 q 768 300 768 390 q 728 143 768 211 q 619 38 689 75 q 454 0 549 0 l 182 0 m 319 124 l 449 124 q 578 172 529 124 q 626 300 626 221 q 578 428 626 379 q 449 476 529 476 l 319 476 l 319 124 z "},"Ы":{"ha":833,"x_min":79,"x_max":754,"o":"m 79 0 l 79 1014 l 204 1014 l 204 600 l 265 600 q 463 529 390 600 q 536 336 536 458 l 536 263 q 463 71 536 142 q 265 0 390 0 l 79 0 m 629 0 l 629 1014 l 754 1014 l 754 0 l 629 0 m 204 117 l 265 117 q 372 156 332 117 q 413 264 413 196 l 413 336 q 372 444 413 404 q 265 483 332 483 l 204 483 l 204 117 z "},"Љ":{"ha":833,"x_min":-8,"x_max":808,"o":"m -8 -7 l -8 111 l 18 111 q 76 150 57 111 q 96 272 94 189 l 103 1014 l 506 1014 l 506 600 l 578 600 q 744 540 681 600 q 808 379 808 479 l 808 222 q 744 60 808 121 q 578 0 681 0 l 386 0 l 386 903 l 228 903 l 222 272 q 169 61 221 129 q 17 -7 117 -7 l -8 -7 m 506 111 l 578 111 q 654 142 626 111 q 682 222 682 172 l 682 378 q 654 459 682 429 q 578 489 626 489 l 506 489 l 506 111 z "},"Њ":{"ha":833,"x_min":71,"x_max":808,"o":"m 71 0 l 71 1014 l 192 1014 l 192 603 l 386 603 l 386 1014 l 506 1014 l 506 603 l 578 603 q 745 543 682 603 q 808 381 808 483 l 808 222 q 745 60 808 119 q 578 0 682 0 l 386 0 l 386 492 l 192 492 l 192 0 l 71 0 m 506 111 l 578 111 q 658 140 629 111 q 686 222 686 169 l 686 381 q 657 462 686 432 q 578 492 628 492 l 506 492 l 506 111 z "},"Ѕ":{"ha":833,"x_min":94,"x_max":739,"o":"m 422 -14 q 183 65 272 -14 q 94 281 94 143 l 232 281 q 283 154 232 200 q 422 108 335 108 q 555 155 506 108 q 604 279 604 201 q 572 381 604 338 q 482 440 540 425 l 332 481 q 176 581 233 508 q 118 754 118 654 q 155 898 118 836 q 258 994 192 960 q 413 1028 325 1028 q 569 994 501 1028 q 674 899 636 960 q 711 757 711 838 l 575 757 q 530 865 575 824 q 413 907 485 907 q 297 865 340 907 q 253 757 253 824 q 282 666 253 703 q 364 614 311 629 l 518 572 q 681 466 622 544 q 739 279 739 388 q 700 124 739 190 q 590 22 661 58 q 422 -14 518 -14 z "},"Є":{"ha":833,"x_min":122,"x_max":732,"o":"m 428 -14 q 205 65 288 -14 q 122 281 122 143 l 122 735 q 205 949 122 871 q 428 1028 288 1028 q 649 949 567 1028 q 732 735 732 869 l 594 735 q 550 861 594 817 q 428 906 506 906 q 304 861 349 906 q 260 735 260 817 l 260 588 l 565 588 l 565 463 l 260 463 l 260 281 q 304 153 260 197 q 428 108 349 108 q 550 153 506 108 q 594 281 594 197 l 732 281 q 649 65 732 144 q 428 -14 567 -14 z "},"Э":{"ha":833,"x_min":103,"x_max":711,"o":"m 103 281 l 240 281 q 284 153 240 197 q 406 108 328 108 q 529 153 485 108 q 574 281 574 197 l 574 463 l 269 463 l 269 588 l 574 588 l 574 735 q 529 861 574 817 q 406 906 485 906 q 284 861 328 906 q 240 735 240 817 l 103 735 q 185 949 103 869 q 406 1028 267 1028 q 628 949 546 1028 q 711 735 711 871 l 711 281 q 628 65 711 143 q 406 -14 546 -14 q 185 65 267 -14 q 103 281 103 144 z "},"І":{"ha":833,"x_min":140,"x_max":693,"o":"m 140 0 l 140 125 l 347 125 l 347 889 l 140 889 l 140 1014 l 693 1014 l 693 889 l 486 889 l 486 125 l 693 125 l 693 0 l 140 0 z "},"Ї":{"ha":833,"x_min":140,"x_max":693,"o":"m 140 0 l 140 125 l 347 125 l 347 889 l 140 889 l 140 1014 l 693 1014 l 693 889 l 486 889 l 486 125 l 693 125 l 693 0 l 140 0 m 574 1132 q 506 1156 531 1132 q 481 1222 481 1181 q 506 1290 481 1265 q 574 1315 531 1315 q 640 1290 615 1315 q 665 1222 665 1265 q 640 1156 665 1181 q 574 1132 615 1132 m 260 1132 q 193 1156 218 1132 q 168 1222 168 1181 q 193 1290 168 1265 q 260 1315 218 1315 q 328 1290 303 1315 q 353 1222 353 1265 q 328 1156 353 1181 q 260 1132 303 1132 z "},"Ј":{"ha":833,"x_min":57,"x_max":693,"o":"m 375 -14 q 142 69 226 -14 q 57 294 57 151 l 194 294 q 242 157 194 206 q 375 108 290 108 q 508 157 460 108 q 556 293 556 206 l 556 1014 l 693 1014 l 693 293 q 608 69 693 151 q 375 -14 522 -14 z "},"Ћ":{"ha":833,"x_min":0,"x_max":751,"o":"m 151 0 l 151 892 l 0 892 l 0 1014 l 453 1014 l 453 892 l 289 892 l 289 563 l 310 585 q 531 694 413 694 q 691 626 631 694 q 751 440 751 557 l 751 0 l 614 0 l 614 415 q 499 574 614 574 q 356 492 432 574 l 289 422 l 289 0 l 151 0 z "},"Ю":{"ha":833,"x_min":79,"x_max":793,"o":"m 557 -14 q 392 56 453 -14 q 331 242 331 125 l 331 465 l 204 465 l 204 0 l 79 0 l 79 1014 l 204 1014 l 204 583 l 331 583 l 331 772 q 392 959 331 890 q 557 1028 453 1028 q 729 959 665 1028 q 793 772 793 890 l 793 242 q 729 56 793 125 q 557 -14 665 -14 m 556 96 q 639 133 610 96 q 668 240 668 171 l 668 774 q 639 881 668 843 q 556 918 610 918 q 474 881 503 918 q 444 774 444 843 l 444 240 q 474 133 444 171 q 556 96 503 96 z "},"Я":{"ha":833,"x_min":74,"x_max":707,"o":"m 74 0 l 279 440 q 137 543 189 469 q 85 719 85 617 q 124 874 85 808 q 232 977 163 940 q 394 1014 301 1014 l 707 1014 l 707 0 l 571 0 l 571 424 l 418 424 l 231 0 l 74 0 m 394 544 l 571 544 l 571 893 l 394 893 q 272 845 318 893 q 226 718 226 797 q 272 592 226 640 q 394 544 318 544 z "},"Ђ":{"ha":833,"x_min":0,"x_max":751,"o":"m 367 -250 l 367 -124 l 461 -124 q 573 -83 532 -124 q 614 26 614 -43 l 614 415 q 499 574 614 574 q 356 492 432 574 l 289 422 l 289 0 l 151 0 l 151 892 l 0 892 l 0 1014 l 453 1014 l 453 892 l 289 892 l 289 563 l 310 585 q 531 694 413 694 q 691 626 631 694 q 751 440 751 557 l 751 24 q 715 -121 751 -60 q 613 -216 679 -182 q 460 -250 547 -250 l 367 -250 z "},"Ғ":{"ha":833,"x_min":42,"x_max":772,"o":"m 178 0 l 178 449 l 42 449 l 42 569 l 178 569 l 178 1014 l 772 1014 l 772 889 l 315 889 l 315 569 l 531 569 l 531 449 l 315 449 l 315 0 l 178 0 z "},"Қ":{"ha":833,"x_min":106,"x_max":815,"o":"m 106 0 l 106 1014 l 243 1014 l 243 583 l 386 583 l 603 1014 l 751 1014 l 507 526 l 704 124 l 815 124 l 815 -194 l 693 -194 l 693 0 l 610 0 l 382 463 l 243 463 l 243 0 l 106 0 z "},"Ң":{"ha":833,"x_min":117,"x_max":772,"o":"m 117 0 l 117 1014 l 254 1014 l 254 586 l 565 586 l 565 1014 l 703 1014 l 703 124 l 772 124 l 772 -194 l 651 -194 l 651 0 l 565 0 l 565 461 l 254 461 l 254 0 l 117 0 z "},"Ү":{"ha":833,"x_min":44,"x_max":789,"o":"m 349 0 l 349 376 l 44 1014 l 190 1014 l 378 614 q 405 549 394 578 q 418 507 415 519 q 433 549 422 519 q 461 614 443 578 l 647 1014 l 789 1014 l 486 376 l 486 0 l 349 0 z "},"Ұ":{"ha":833,"x_min":44,"x_max":789,"o":"m 172 269 l 172 376 l 349 376 l 44 1014 l 190 1014 l 378 614 q 405 549 394 578 q 418 507 415 519 q 433 549 422 519 q 461 614 443 578 l 647 1014 l 789 1014 l 486 376 l 661 376 l 661 269 l 486 269 l 486 0 l 349 0 l 349 269 l 172 269 z "},"Ҷ":{"ha":833,"x_min":85,"x_max":760,"o":"m 556 0 l 556 372 l 367 372 q 160 440 235 372 q 85 626 85 507 l 85 1014 l 222 1014 l 222 628 q 265 529 222 564 q 383 494 307 494 l 556 494 l 556 1014 l 693 1014 l 693 124 l 760 124 l 760 -194 l 638 -194 l 638 0 l 556 0 z "},"Һ":{"ha":833,"x_min":126,"x_max":735,"o":"m 264 1014 l 264 642 l 453 642 q 660 574 585 642 q 735 388 735 507 l 735 0 l 597 0 l 597 386 q 555 485 597 450 q 436 519 513 519 l 264 519 l 264 0 l 126 0 l 126 1014 l 264 1014 z "},"Ә":{"ha":833,"x_min":110,"x_max":715,"o":"m 413 -14 q 192 65 274 -14 q 110 281 110 144 l 110 574 l 578 574 l 578 735 q 533 860 578 814 q 413 907 489 907 q 292 860 336 907 q 247 735 247 814 l 110 735 q 192 949 110 869 q 413 1028 274 1028 q 633 949 551 1028 q 715 735 715 869 l 715 281 q 633 65 715 144 q 413 -14 551 -14 m 413 108 q 533 154 489 108 q 578 281 578 200 l 578 449 l 247 449 l 247 281 q 292 154 247 200 q 413 108 336 108 z "},"Ӝ":{"ha":833,"x_min":6,"x_max":828,"o":"m 6 0 l 186 526 l 19 1014 l 156 1014 l 299 575 l 361 575 l 361 1014 l 472 1014 l 472 575 l 536 575 l 678 1014 l 814 1014 l 644 525 l 828 0 l 693 0 l 533 472 l 472 472 l 472 0 l 363 0 l 361 472 l 296 472 l 140 0 l 6 0 m 574 1132 q 506 1156 531 1132 q 481 1222 481 1181 q 506 1290 481 1265 q 574 1315 531 1315 q 640 1290 615 1315 q 665 1222 665 1265 q 640 1156 665 1181 q 574 1132 615 1132 m 260 1132 q 193 1156 218 1132 q 168 1222 168 1181 q 193 1290 168 1265 q 260 1315 218 1315 q 328 1290 303 1315 q 353 1222 353 1265 q 328 1156 353 1181 q 260 1132 303 1132 z "},"Ӟ":{"ha":833,"x_min":68,"x_max":746,"o":"m 404 -14 q 230 23 306 -14 q 112 126 154 60 q 68 281 69 193 l 204 281 q 263 155 207 203 q 406 107 318 107 q 550 157 494 107 q 606 288 606 207 q 550 417 606 367 q 406 467 494 467 l 286 467 l 286 588 l 407 588 q 531 633 483 588 q 578 750 578 678 q 531 864 578 821 q 410 907 485 907 q 281 859 331 907 q 232 735 232 811 l 96 735 q 135 888 96 821 q 246 991 175 954 q 410 1028 317 1028 q 569 994 500 1028 q 676 901 638 961 q 715 764 715 842 q 670 617 715 681 q 553 538 625 554 l 553 533 q 692 447 639 518 q 746 278 746 376 q 703 126 746 192 q 583 23 660 60 q 404 -14 506 -14 m 574 1132 q 506 1156 531 1132 q 481 1222 481 1181 q 506 1290 481 1265 q 574 1315 531 1315 q 640 1290 615 1315 q 665 1222 665 1265 q 640 1156 665 1181 q 574 1132 615 1132 m 260 1132 q 193 1156 218 1132 q 168 1222 168 1181 q 193 1290 168 1265 q 260 1315 218 1315 q 328 1290 303 1315 q 353 1222 353 1265 q 328 1156 353 1181 q 260 1132 303 1132 z "},"Ӥ":{"ha":833,"x_min":119,"x_max":715,"o":"m 119 0 l 119 1014 l 249 1014 l 249 464 q 247 356 249 413 q 242 247 244 299 q 236 158 239 194 l 536 1014 l 715 1014 l 715 0 l 585 0 l 585 547 q 587 655 585 597 q 592 766 589 713 q 600 856 596 819 l 297 0 l 119 0 m 574 1132 q 506 1156 531 1132 q 481 1222 481 1181 q 506 1290 481 1265 q 574 1315 531 1315 q 640 1290 615 1315 q 665 1222 665 1265 q 640 1156 665 1181 q 574 1132 615 1132 m 260 1132 q 193 1156 218 1132 q 168 1222 168 1181 q 193 1290 168 1265 q 260 1315 218 1315 q 328 1290 303 1315 q 353 1222 353 1265 q 328 1156 353 1181 q 260 1132 303 1132 z "},"Ӧ":{"ha":833,"x_min":117,"x_max":717,"o":"m 417 -14 q 197 67 278 -14 q 117 294 117 147 l 117 721 q 197 947 117 867 q 417 1028 278 1028 q 636 948 556 1028 q 717 721 717 868 l 717 294 q 636 67 717 147 q 417 -14 556 -14 m 417 108 q 537 153 494 108 q 579 281 579 197 l 579 735 q 538 861 579 817 q 417 906 496 906 q 296 861 338 906 q 254 735 254 817 l 254 281 q 297 153 254 197 q 417 108 339 108 m 574 1132 q 506 1156 531 1132 q 481 1222 481 1181 q 506 1290 481 1265 q 574 1315 531 1315 q 640 1290 615 1315 q 665 1222 665 1265 q 640 1156 665 1181 q 574 1132 615 1132 m 260 1132 q 193 1156 218 1132 q 168 1222 168 1181 q 193 1290 168 1265 q 260 1315 218 1315 q 328 1290 303 1315 q 353 1222 353 1265 q 328 1156 353 1181 q 260 1132 303 1132 z "},"Ө":{"ha":833,"x_min":119,"x_max":715,"o":"m 417 -14 q 198 65 276 -14 q 119 282 119 144 l 119 733 q 198 949 119 871 q 417 1028 276 1028 q 636 949 557 1028 q 715 733 715 871 l 715 282 q 635 66 715 146 q 417 -14 556 -14 m 253 579 l 581 579 l 581 732 q 539 862 581 817 q 417 907 497 907 q 294 862 336 907 q 253 732 253 817 l 253 579 m 417 107 q 538 153 496 107 q 581 283 581 199 l 581 458 l 253 458 l 253 283 q 295 153 253 199 q 417 107 338 107 z "},"Ӵ":{"ha":833,"x_min":99,"x_max":707,"o":"m 569 0 l 569 372 l 381 372 q 174 440 249 372 q 99 626 99 507 l 99 1014 l 236 1014 l 236 628 q 278 529 236 564 q 397 494 321 494 l 569 494 l 569 1014 l 707 1014 l 707 0 l 569 0 m 574 1132 q 506 1156 531 1132 q 481 1222 481 1181 q 506 1290 481 1265 q 574 1315 531 1315 q 640 1290 615 1315 q 665 1222 665 1265 q 640 1156 665 1181 q 574 1132 615 1132 m 260 1132 q 193 1156 218 1132 q 168 1222 168 1181 q 193 1290 168 1265 q 260 1315 218 1315 q 328 1290 303 1315 q 353 1222 353 1265 q 328 1156 353 1181 q 260 1132 303 1132 z "},"а":{"ha":833,"x_min":90,"x_max":711,"o":"m 346 -14 q 159 52 228 -14 q 90 225 90 118 q 162 397 90 332 q 350 463 233 463 l 574 463 l 574 521 q 418 661 574 661 q 306 635 349 661 q 261 564 264 610 l 125 564 q 210 717 132 657 q 418 778 288 778 q 635 711 558 778 q 711 524 711 644 l 711 0 l 576 0 l 576 140 l 574 140 q 503 28 564 69 q 346 -14 443 -14 m 382 101 q 522 144 469 101 q 574 260 574 186 l 574 361 l 363 361 q 266 326 303 361 q 229 232 229 290 q 269 137 229 172 q 382 101 310 101 z "},"б":{"ha":833,"x_min":114,"x_max":719,"o":"m 417 -14 q 195 67 276 -14 q 114 286 114 147 l 114 636 q 190 898 114 804 q 415 1004 267 992 l 676 1028 l 676 893 l 436 872 q 229 636 229 854 l 229 571 q 302 678 246 639 q 444 717 358 717 q 648 636 576 717 q 719 421 719 556 l 719 286 q 638 67 719 147 q 417 -14 557 -14 m 417 108 q 538 156 494 108 q 582 286 582 203 l 582 421 q 538 551 582 503 q 417 599 494 599 q 296 551 340 599 q 251 421 251 503 l 251 286 q 296 156 251 203 q 417 108 340 108 z "},"в":{"ha":833,"x_min":122,"x_max":736,"o":"m 122 0 l 122 764 l 461 764 q 648 712 579 764 q 717 571 717 660 q 672 463 717 506 q 557 415 628 419 l 557 408 q 689 351 642 403 q 736 215 736 299 q 664 58 736 117 q 468 0 592 0 l 122 0 m 257 446 l 460 446 q 549 473 517 446 q 581 549 581 500 q 549 622 581 596 q 460 649 517 649 l 257 649 l 257 446 m 257 115 l 465 115 q 565 145 529 115 q 600 228 600 175 q 565 310 600 281 q 465 340 529 340 l 257 340 l 257 115 z "},"г":{"ha":833,"x_min":183,"x_max":738,"o":"m 183 0 l 183 764 l 738 764 l 738 638 l 321 638 l 321 0 l 183 0 z "},"ѓ":{"ha":833,"x_min":183,"x_max":738,"o":"m 183 0 l 183 764 l 738 764 l 738 638 l 321 638 l 321 0 l 183 0 m 372 896 l 518 1090 l 667 1090 l 511 896 l 372 896 z "},"ґ":{"ha":833,"x_min":178,"x_max":732,"o":"m 178 0 l 178 764 l 601 764 l 601 910 l 732 910 l 732 638 l 315 638 l 315 0 l 178 0 z "},"д":{"ha":833,"x_min":36,"x_max":793,"o":"m 36 -194 l 36 121 l 93 121 q 127 171 110 138 q 157 263 144 204 q 171 415 169 322 l 176 764 l 692 764 l 692 121 l 793 121 l 793 -194 l 669 -194 l 669 0 l 160 0 l 160 -194 l 36 -194 m 229 121 l 557 121 l 557 644 l 306 644 l 303 414 q 279 210 301 276 q 229 121 257 144 z "},"е":{"ha":833,"x_min":111,"x_max":722,"o":"m 417 -14 q 195 68 279 -14 q 111 292 111 150 l 111 472 q 195 696 111 614 q 417 778 279 778 q 577 741 508 778 q 684 638 646 704 q 722 485 722 572 l 722 347 l 246 347 l 246 281 q 292 150 246 197 q 417 103 338 103 q 526 128 483 103 q 578 197 569 153 l 715 197 q 619 43 701 100 q 417 -14 538 -14 m 246 485 l 246 449 l 588 449 l 588 485 q 543 619 588 572 q 417 667 499 667 q 290 619 335 667 q 246 485 246 572 z "},"ё":{"ha":833,"x_min":111,"x_max":722,"o":"m 417 -14 q 195 68 279 -14 q 111 292 111 150 l 111 472 q 195 696 111 614 q 417 778 279 778 q 577 741 508 778 q 684 638 646 704 q 722 485 722 572 l 722 347 l 246 347 l 246 281 q 292 150 246 197 q 417 103 338 103 q 526 128 483 103 q 578 197 569 153 l 715 197 q 619 43 701 100 q 417 -14 538 -14 m 246 485 l 246 449 l 588 449 l 588 485 q 543 619 588 572 q 417 667 499 667 q 290 619 335 667 q 246 485 246 572 m 574 899 q 506 923 531 899 q 481 989 481 947 q 506 1057 481 1032 q 574 1082 531 1082 q 640 1057 615 1082 q 665 989 665 1032 q 640 923 665 947 q 574 899 615 899 m 260 899 q 193 923 218 899 q 168 989 168 947 q 193 1057 168 1032 q 260 1082 218 1082 q 328 1057 303 1082 q 353 989 353 1032 q 328 923 353 947 q 260 899 303 899 z "},"ж":{"ha":833,"x_min":17,"x_max":817,"o":"m 17 0 l 186 394 l 28 764 l 157 764 l 293 438 l 363 438 l 363 764 l 471 764 l 471 438 l 539 438 l 679 764 l 806 764 l 649 399 l 817 0 l 685 0 l 542 344 l 471 344 l 471 0 l 363 0 l 363 344 l 292 344 l 149 0 l 17 0 z "},"з":{"ha":833,"x_min":90,"x_max":736,"o":"m 368 -10 q 165 50 240 -10 q 90 211 90 110 l 226 211 q 265 138 226 165 q 368 110 303 110 l 446 110 q 553 140 514 110 q 593 222 593 169 q 553 306 593 275 q 446 338 514 338 l 275 338 l 275 453 l 440 453 q 539 481 503 453 q 575 556 575 508 q 539 630 575 603 q 440 657 503 657 l 375 657 q 280 634 315 657 q 243 572 244 611 l 107 572 q 181 719 108 665 q 375 774 253 774 l 440 774 q 642 722 567 774 q 717 575 717 669 q 672 467 717 510 q 557 418 628 424 l 557 413 q 689 355 642 407 q 736 219 736 303 q 658 53 736 115 q 446 -10 579 -10 l 368 -10 z "},"и":{"ha":833,"x_min":122,"x_max":711,"o":"m 122 0 l 122 764 l 251 764 l 251 364 q 249 238 251 303 q 235 129 247 172 l 542 764 l 711 764 l 711 0 l 582 0 l 582 401 q 584 527 582 463 q 597 633 586 592 l 292 0 l 122 0 z "}}}
